<svg width="521" height="519" viewBox="0 0 521 519" fill="none" xmlns="http://www.w3.org/2000/svg">
<g clip-path="url(#clip0_56_3)" filter="url(#filter0_d_56_3)">
<path opacity="0.942" fill-rule="evenodd" clip-rule="evenodd" d="M516.602 188.916C516.116 227.58 515.629 266.243 515.143 304.907C508.263 343.113 489.864 374.717 459.947 399.72C439.442 416.783 416.607 429.997 391.443 439.362C353.815 424.656 322.773 401.264 298.318 369.186C245.006 367.516 191.68 366.512 138.343 366.175C138.644 374.596 138.039 382.923 136.529 391.154C133.594 399.285 128.025 404.715 119.823 407.445C103.871 408.866 87.8683 408.997 71.8143 407.842C59.3811 404.206 52.3177 395.95 50.624 383.073C50.4584 369.737 50.2926 356.4 50.127 343.064C40.1716 330.371 34.3523 315.962 32.669 299.841C32.2705 278.501 32.5387 257.169 33.4735 235.846C34.7924 224.496 38.7553 214.211 45.3623 204.993C35.6489 204.294 25.9934 203.338 16.3961 202.129C10.4468 199.204 6.50367 194.654 4.56672 188.479C4.65891 181.146 4.75111 173.813 4.8433 166.481C10.5896 153.839 20.4851 148.963 34.5295 151.853C49.8046 150.512 62.2408 155.668 71.838 167.323C83.5727 144.634 95.0276 121.776 106.203 98.7494C112.31 89.078 120.891 82.6853 131.946 79.5716C200.264 78.784 268.596 79.3097 336.942 81.1488C347.062 82.7612 355.505 87.3677 362.271 94.9683C368.484 105.056 374.187 115.462 379.379 126.186C401.42 122.693 422.379 126.123 442.255 136.477C462.649 146.494 482.855 156.749 502.873 167.242C509.631 173.176 514.208 180.401 516.602 188.916ZM138.751 95.1583C204.081 95.813 269.408 96.801 334.729 98.1223C342.652 99.7759 348.766 104.02 353.07 110.854C356.552 116.997 359.139 123.364 360.831 129.953C336.78 141.023 312.804 152.223 288.903 163.551C278.857 171.158 273.396 181.257 272.52 193.848C207.855 193.202 143.197 192.222 78.542 190.909C93.38 163.28 107.567 135.29 121.101 106.937C125.607 100.869 131.49 96.9424 138.751 95.1583ZM387.19 141.285C401.402 140.386 415.04 142.724 428.105 148.3C449.102 158.292 469.975 168.555 490.723 179.09C496.248 182.447 499.687 187.324 501.04 193.721C501.483 224.734 500.928 255.729 499.371 286.707C497.27 323.779 482.875 355.1 456.186 380.672C437.157 398.015 415.65 411.579 391.67 421.364C353.578 405.423 324.066 379.716 303.132 344.245C294.691 327.516 289.913 309.788 288.8 291.06C288.547 258.054 288.962 225.057 290.044 192.068C291.666 185.556 295.231 180.433 300.738 176.701C322.866 166.646 344.995 156.589 367.123 146.533C373.795 144.198 380.484 142.449 387.19 141.285ZM26.829 167.757C39.7988 165.816 50.5853 169.619 59.1881 179.165C61.2512 181.66 61.7177 184.333 60.5874 187.183C48.5876 188.198 36.5865 188.214 24.584 187.23C20.4272 182.278 19.6631 176.768 22.2916 170.7C23.7163 169.437 25.2288 168.456 26.829 167.757ZM394.712 179.383C401.238 179.919 407.551 181.498 413.654 184.121C429.593 191.756 445.326 199.788 460.855 208.217C460.837 222.885 460.819 237.551 460.801 252.219C467.878 295.299 455.096 330.974 422.453 359.246C413.721 366.46 404.309 372.675 394.216 377.892C365.821 365.659 345.243 345.232 332.482 316.611C330.27 310.073 328.687 303.386 327.734 296.55C327.615 266.214 327.829 235.881 328.378 205.551C344.555 198.545 360.648 191.247 376.657 183.656C382.582 181.259 388.601 179.835 394.712 179.383ZM63.3358 207.219C132.997 208.095 202.658 208.971 272.319 209.847C272.03 232.845 271.741 255.843 271.452 278.841C241.787 278.301 212.122 278.095 182.453 278.222C176.11 280.731 174.22 285.207 176.783 291.652C177.671 292.864 178.827 293.713 180.252 294.196C210.908 295.081 241.57 295.634 272.238 295.852C272.842 300.86 273.445 305.868 274.049 310.876C242.719 310.315 211.386 310.088 180.05 310.195C173.79 314.636 173.394 319.632 178.862 325.181C211.851 326.096 244.846 326.677 277.848 326.925C280.001 335.217 283.235 343.091 287.552 350.549C221.548 350.386 155.554 349.557 89.5673 348.06C68.4173 341.563 55.0922 327.561 49.5922 306.054C48.5688 301.104 47.9651 296.096 47.7809 291.03C47.1458 271.993 47.7179 252.998 49.4974 234.047C52.0241 223.946 56.6369 215.004 63.3358 207.219ZM85.8059 249.505C100.065 252.911 114.357 256.258 128.683 259.545C132.706 261.983 135.664 265.353 137.557 269.657C120.217 270.106 102.884 269.888 85.5608 269.003C84.3219 266.434 83.691 263.592 83.6678 260.479C83.5149 256.584 84.2275 252.925 85.8059 249.505ZM66.4622 356.27C72.9973 359.936 79.9653 362.523 87.3663 364.034C99.021 364.68 110.685 364.994 122.357 364.974C122.534 371.374 121.954 377.701 120.618 383.953C118.578 387.918 115.38 390.378 111.025 391.333C99.3508 391.853 87.6851 391.707 76.0277 390.893C71.9682 389.77 69.1665 387.235 67.6227 383.287C66.3893 374.33 66.0025 365.324 66.4622 356.27Z" fill="#442359"/>
<path opacity="0.932" fill-rule="evenodd" clip-rule="evenodd" d="M387.914 163.296C398.234 162.867 408.214 164.492 417.855 168.173C436.865 177.14 455.75 186.378 474.511 195.887C475.7 196.805 476.52 197.982 476.967 199.419C477.21 233.091 476.787 266.755 475.697 300.411C472.744 319.202 465.531 336.113 454.057 351.142C437.244 371.767 416.553 386.841 391.984 396.366C358.969 382.606 334.423 359.628 318.345 327.434C314.393 318.109 311.847 308.409 310.71 298.336C310.466 264.663 310.889 231 311.98 197.344C313.498 195.863 315.017 194.382 316.536 192.901C335.094 184.74 353.535 176.305 371.858 167.595C377.255 165.822 382.607 164.389 387.914 163.296ZM394.712 179.383C388.601 179.835 382.582 181.26 376.657 183.656C360.648 191.247 344.555 198.545 328.378 205.551C327.829 235.882 327.615 266.214 327.734 296.55C328.687 303.386 330.27 310.073 332.482 316.611C345.243 345.232 365.821 365.659 394.216 377.892C404.309 372.675 413.721 366.46 422.453 359.246C455.096 330.974 467.879 295.299 460.802 252.219C460.819 237.552 460.837 222.885 460.855 208.217C445.326 199.788 429.593 191.756 413.654 184.121C407.551 181.498 401.238 179.919 394.712 179.383Z" fill="#442359"/>
<path opacity="0.935" fill-rule="evenodd" clip-rule="evenodd" d="M80.995 234.443C85.3429 234.332 89.6737 234.553 93.9877 235.107C106.257 238.055 118.556 240.877 130.884 243.571C146.203 247.807 154.077 257.907 154.505 273.871C154.92 281.205 151.533 285.496 144.343 286.744C124.003 287.155 103.671 286.899 83.3474 285.977C74.5548 285.402 69.4452 280.838 68.0183 272.283C67.4481 264.608 67.5444 256.943 68.3075 249.285C69.9099 241.971 74.1392 237.023 80.995 234.443ZM85.8061 249.505C84.2277 252.925 83.515 256.584 83.6679 260.479C83.6911 263.592 84.322 266.434 85.5609 269.003C102.884 269.888 120.217 270.106 137.557 269.657C135.664 265.353 132.706 261.983 128.683 259.545C114.357 256.258 100.065 252.911 85.8061 249.505Z" fill="#442359"/>
<path opacity="0.916" fill-rule="evenodd" clip-rule="evenodd" d="M430.867 246.843C437.842 245.911 441.471 248.957 441.753 255.98C441.653 257.778 441.132 259.439 440.19 260.961C424.8 280.874 409.052 300.512 392.946 319.872C389.254 321.825 385.588 321.779 381.947 319.733C372.661 311.899 363.088 304.444 353.225 297.371C349.103 293.464 348.327 288.954 350.895 283.84C355.353 280.328 359.855 280.218 364.401 283.51C370.67 288.589 376.941 293.668 383.21 298.748C384.457 299.745 385.786 300.095 387.198 299.798C400.241 283.128 413.286 266.456 426.329 249.786C427.993 248.908 429.505 247.927 430.867 246.843Z" fill="#442359"/>
</g>
<defs>
<filter id="filter0_d_56_3" x="-3" y="0" width="526.396" height="526.396" filterUnits="userSpaceOnUse" color-interpolation-filters="sRGB">
<feFlood flood-opacity="0" result="BackgroundImageFix"/>
<feColorMatrix in="SourceAlpha" type="matrix" values="0 0 0 0 0 0 0 0 0 0 0 0 0 0 0 0 0 0 127 0" result="hardAlpha"/>
<feOffset dy="4"/>
<feGaussianBlur stdDeviation="2"/>
<feComposite in2="hardAlpha" operator="out"/>
<feColorMatrix type="matrix" values="0 0 0 0 0 0 0 0 0 0 0 0 0 0 0 0 0 0 0.25 0"/>
<feBlend mode="normal" in2="BackgroundImageFix" result="effect1_dropShadow_56_3"/>
<feBlend mode="normal" in="SourceGraphic" in2="effect1_dropShadow_56_3" result="shape"/>
</filter>
<clipPath id="clip0_56_3">
<rect width="512" height="512" fill="white" transform="translate(7.43652) rotate(0.720315)"/>
</clipPath>
</defs>
</svg>
