<svg width="512" height="512" viewBox="0 0 512 512" fill="none" xmlns="http://www.w3.org/2000/svg">
<path opacity="0.979" fill-rule="evenodd" clip-rule="evenodd" d="M154.5 25.5C198.143 21.3126 218.643 40.9792 216 84.5C213.107 106.808 202.274 123.975 183.5 136C163.25 143.14 146.417 138.306 133 121.5C116.16 98.1322 113.16 73.1322 124 46.5C131.234 35.1411 141.4 28.1411 154.5 25.5Z" fill="#442359"/>
<path opacity="0.979" fill-rule="evenodd" clip-rule="evenodd" d="M115.5 153.5C120.179 153.334 124.845 153.501 129.5 154C154.5 166.667 179.5 166.667 204.5 154C227.232 151.907 246.398 159.074 262 175.5C262.483 176.448 262.649 177.448 262.5 178.5C239.84 186.222 216.506 190.388 192.5 191C183.854 254.776 197.021 313.609 232 367.5C232.5 406.832 232.667 446.165 232.5 485.5C213.167 485.5 193.833 485.5 174.5 485.5C174.667 438.832 174.5 392.165 174 345.5C169.333 338.833 164.667 338.833 160 345.5C159.5 392.165 159.333 438.832 159.5 485.5C142.833 485.5 126.167 485.5 109.5 485.5C109.667 396.833 109.5 308.166 109 219.5C106.487 215.788 102.987 214.622 98.5 216C96.5125 217.319 95.3459 219.152 95 221.5C94.6667 263.5 94.3333 305.5 94 347.5C74.0426 340.532 62.3759 326.532 59 305.5C58.3333 273.5 58.3333 241.5 59 209.5C63.7942 176.539 82.6275 157.872 115.5 153.5Z" fill="#442359"/>
<path opacity="0.98" fill-rule="evenodd" clip-rule="evenodd" d="M327.5 155.5C328.552 155.351 329.552 155.517 330.5 156C365.52 185.997 406.186 202.497 452.5 205.5C456.297 307.928 414.963 385.928 328.5 439.5C267.071 402.202 227.571 348.535 210 278.5C204.82 254.384 203.32 230.051 205.5 205.5C251.945 202.258 292.611 185.591 327.5 155.5ZM400.5 232.5C408.329 239.495 415.662 246.995 422.5 255C386.697 288.468 351.197 322.302 316 356.5C295.986 336.653 276.153 316.653 256.5 296.5C263.167 289.167 270.167 282.167 277.5 275.5C290.486 287.986 303.319 300.653 316 313.5C344.365 286.633 372.532 259.633 400.5 232.5Z" fill="#442359"/>
</svg>
