<svg width="259" height="176" viewBox="0 0 259 176" fill="none" xmlns="http://www.w3.org/2000/svg">
<path d="M84.832 73.176C84.4267 74.5413 83.7867 75.6827 82.912 76.6C82.0373 77.5173 81.0027 78.2 79.808 78.648C78.6133 79.096 77.3013 79.32 75.872 79.32C73.7813 79.32 71.968 78.8827 70.432 78.008C68.9173 77.1333 67.744 75.8853 66.912 74.264C66.1013 72.6427 65.696 70.7013 65.696 68.44C65.696 66.1787 66.1013 64.2373 66.912 62.616C67.744 60.9947 68.9173 59.7467 70.432 58.872C71.968 57.9973 73.76 57.56 75.808 57.56C77.2587 57.56 78.5707 57.7627 79.744 58.168C80.9173 58.552 81.9093 59.1493 82.72 59.96C83.552 60.7707 84.16 61.7947 84.544 63.032L80.544 64.728C80.1813 63.448 79.6267 62.5413 78.88 62.008C78.1333 61.4533 77.1733 61.176 76 61.176C74.848 61.176 73.8347 61.4533 72.96 62.008C72.1067 62.5627 71.4453 63.384 70.976 64.472C70.5067 65.5387 70.272 66.8613 70.272 68.44C70.272 69.9973 70.4853 71.32 70.912 72.408C71.36 73.496 72.0107 74.3173 72.864 74.872C73.7173 75.4267 74.7627 75.704 76 75.704C77.152 75.704 78.144 75.3947 78.976 74.776C79.8293 74.1573 80.4267 73.2187 80.768 71.96L84.832 73.176ZM117.456 63H122L115.92 79H110.864L104.784 63H109.456L113.424 75.64L117.456 63ZM131.666 79.32C129.98 79.32 128.508 78.9893 127.25 78.328C126.012 77.6667 125.052 76.7173 124.37 75.48C123.687 74.2427 123.346 72.7493 123.346 71C123.346 69.2507 123.687 67.7573 124.37 66.52C125.052 65.2827 126.002 64.3333 127.218 63.672C128.455 63.0107 129.863 62.68 131.442 62.68C133.063 62.68 134.439 63.0107 135.57 63.672C136.7 64.312 137.564 65.1973 138.162 66.328C138.759 67.4373 139.058 68.7067 139.058 70.136C139.058 70.5627 139.047 70.968 139.026 71.352C139.004 71.736 138.972 72.0773 138.93 72.376H126.161V69.336H137.01L134.898 70.104C134.898 68.76 134.588 67.7253 133.97 67C133.372 66.2747 132.519 65.912 131.41 65.912C130.599 65.912 129.895 66.104 129.298 66.488C128.722 66.872 128.284 67.448 127.986 68.216C127.687 68.9627 127.538 69.912 127.538 71.064C127.538 72.1947 127.698 73.1333 128.018 73.88C128.359 74.6053 128.828 75.1493 129.426 75.512C130.044 75.8747 130.78 76.056 131.634 76.056C132.572 76.056 133.33 75.8747 133.906 75.512C134.482 75.1493 134.93 74.648 135.25 74.008L138.738 75.352C138.396 76.184 137.874 76.8987 137.17 77.496C136.487 78.0933 135.666 78.552 134.706 78.872C133.767 79.1707 132.754 79.32 131.666 79.32ZM142.773 79V63H146.581L146.869 66.136C147.295 65.0267 147.914 64.1733 148.725 63.576C149.557 62.9787 150.591 62.68 151.829 62.68C152.191 62.68 152.522 62.712 152.821 62.776C153.119 62.84 153.365 62.9253 153.557 63.032L153.045 66.712C152.831 66.6267 152.565 66.5627 152.245 66.52C151.946 66.4773 151.551 66.456 151.061 66.456C150.421 66.456 149.802 66.616 149.205 66.936C148.607 67.2347 148.117 67.704 147.733 68.344C147.349 68.9627 147.157 69.752 147.157 70.712V79H142.773ZM156.533 79V57.88H172.373V61.432H160.949V66.68H169.941V70.072H160.949V75.448H172.821V79H156.533ZM183.159 55.672C183.905 55.672 184.577 55.7573 185.175 55.928C185.793 56.0773 186.252 56.2693 186.551 56.504L185.943 59.416C185.708 59.2667 185.441 59.1493 185.143 59.064C184.844 58.9787 184.492 58.936 184.087 58.936C183.255 58.936 182.593 59.128 182.103 59.512C181.612 59.8747 181.367 60.504 181.367 61.4V63.608L181.559 64.472V79H177.175V61.08C177.175 60.184 177.324 59.3947 177.623 58.712C177.921 58.0293 178.337 57.464 178.871 57.016C179.404 56.568 180.033 56.2373 180.759 56.024C181.505 55.7893 182.305 55.672 183.159 55.672ZM186.423 63V66.264H174.391V63H186.423ZM195.927 55.672C196.673 55.672 197.345 55.7573 197.943 55.928C198.561 56.0773 199.02 56.2693 199.319 56.504L198.711 59.416C198.476 59.2667 198.209 59.1493 197.911 59.064C197.612 58.9787 197.26 58.936 196.855 58.936C196.023 58.936 195.361 59.128 194.871 59.512C194.38 59.8747 194.135 60.504 194.135 61.4V63.608L194.327 64.472V79H189.943V61.08C189.943 60.184 190.092 59.3947 190.391 58.712C190.689 58.0293 191.105 57.464 191.639 57.016C192.172 56.568 192.801 56.2373 193.527 56.024C194.273 55.7893 195.073 55.672 195.927 55.672ZM199.191 63V66.264H187.159V63H199.191ZM208.947 79.32C207.261 79.32 205.789 78.9893 204.531 78.328C203.293 77.6667 202.333 76.7173 201.651 75.48C200.968 74.2427 200.627 72.7493 200.627 71C200.627 69.2507 200.968 67.7573 201.651 66.52C202.333 65.2827 203.283 64.3333 204.499 63.672C205.736 63.0107 207.144 62.68 208.723 62.68C210.344 62.68 211.72 63.0107 212.851 63.672C213.981 64.312 214.845 65.1973 215.443 66.328C216.04 67.4373 216.339 68.7067 216.339 70.136C216.339 70.5627 216.328 70.968 216.307 71.352C216.285 71.736 216.253 72.0773 216.211 72.376H203.443V69.336H214.291L212.179 70.104C212.179 68.76 211.869 67.7253 211.251 67C210.653 66.2747 209.8 65.912 208.691 65.912C207.88 65.912 207.176 66.104 206.579 66.488C206.003 66.872 205.565 67.448 205.267 68.216C204.968 68.9627 204.819 69.912 204.819 71.064C204.819 72.1947 204.979 73.1333 205.299 73.88C205.64 74.6053 206.109 75.1493 206.707 75.512C207.325 75.8747 208.061 76.056 208.915 76.056C209.853 76.056 210.611 75.8747 211.187 75.512C211.763 75.1493 212.211 74.648 212.531 74.008L216.019 75.352C215.677 76.184 215.155 76.8987 214.451 77.496C213.768 78.0933 212.947 78.552 211.987 78.872C211.048 79.1707 210.035 79.32 208.947 79.32ZM227.318 62.68C228.747 62.68 229.953 62.8933 230.934 63.32C231.937 63.7253 232.737 64.2907 233.334 65.016C233.953 65.72 234.39 66.5093 234.646 67.384L230.55 68.856C230.337 67.896 229.974 67.1707 229.462 66.68C228.95 66.1893 228.257 65.944 227.382 65.944C226.571 65.944 225.878 66.136 225.302 66.52C224.726 66.8827 224.289 67.448 223.99 68.216C223.691 68.9627 223.542 69.9013 223.542 71.032C223.542 72.1627 223.691 73.1013 223.99 73.848C224.31 74.5947 224.758 75.1493 225.334 75.512C225.931 75.8747 226.625 76.056 227.414 76.056C228.054 76.056 228.598 75.9493 229.046 75.736C229.494 75.5013 229.857 75.1707 230.134 74.744C230.433 74.3173 230.635 73.8053 230.742 73.208L234.71 74.488C234.475 75.448 234.038 76.2907 233.398 77.016C232.758 77.7413 231.937 78.3067 230.934 78.712C229.931 79.1173 228.769 79.32 227.446 79.32C225.803 79.32 224.353 78.9893 223.094 78.328C221.835 77.6667 220.865 76.7173 220.182 75.48C219.499 74.2427 219.158 72.7493 219.158 71C219.158 69.2507 219.499 67.7573 220.182 66.52C220.865 65.2827 221.825 64.3333 223.062 63.672C224.299 63.0107 225.718 62.68 227.318 62.68ZM243.781 58.104V73.784C243.781 74.552 243.973 75.1173 244.357 75.48C244.762 75.8213 245.306 75.992 245.989 75.992C246.522 75.992 246.991 75.9173 247.397 75.768C247.802 75.5973 248.165 75.3733 248.485 75.096L249.189 78.008C248.677 78.4133 248.037 78.7333 247.269 78.968C246.501 79.2027 245.69 79.32 244.837 79.32C243.77 79.32 242.821 79.16 241.989 78.84C241.178 78.52 240.538 78.008 240.069 77.304C239.621 76.6 239.397 75.6613 239.397 74.488V59.32L243.781 58.104ZM248.901 63V66.264H236.453V63H248.901Z" fill="#1D5B79"/>
<path d="M254.2 74.104C255.053 74.104 255.725 74.3387 256.216 74.808C256.728 75.2773 256.984 75.9067 256.984 76.696C256.984 77.5067 256.728 78.1467 256.216 78.616C255.725 79.064 255.053 79.288 254.2 79.288C253.346 79.288 252.664 79.064 252.152 78.616C251.661 78.1467 251.416 77.5067 251.416 76.696C251.416 75.9067 251.661 75.2773 252.152 74.808C252.664 74.3387 253.346 74.104 254.2 74.104Z" fill="#81007C"/>
<path d="M99.176 35.9439L98.736 39.6142L96.558 39.2233L96.996 35.5505C97.084 34.8179 97.638 34.3091 98.234 34.4148C98.24 34.4172 98.248 34.4172 98.254 34.4197C98.852 34.5279 99.262 35.2113 99.176 35.9439Z" fill="#CE22CE"/>
<mask id="mask0_47_2" style="mask-type:luminance" maskUnits="userSpaceOnUse" x="77" y="39" width="19" height="19">
<path d="M77.992 39.4346H95.744V57.6852H77.992V39.4346Z" fill="white"/>
</mask>
<g mask="url(#mask0_47_2)">
<path d="M93.262 42.8665C94.112 41.6496 94.91 40.7425 95.552 40.0935C86.754 39.474 79.144 45.3961 78.046 54.074C78.042 54.0888 78.04 54.0986 78.038 54.1109C78.038 54.1183 78.038 54.1256 78.038 54.1306C78.034 54.1527 78.032 54.1724 78.028 54.1945H78.032C77.992 54.8238 78.356 55.3941 78.872 55.4876C79.388 55.581 79.868 55.1631 79.98 54.546C80.756 54.5116 81.528 54.5632 82.29 54.7009C83.878 54.9885 85.416 55.6449 86.816 56.643L87.568 57.1789C88.992 50.0424 91.446 45.46 93.262 42.8665Z" fill="#EC4899"/>
</g>
<path d="M99.496 40.804C99.958 41.6545 100.51 42.805 101.04 44.2702C102.172 47.3972 103.45 52.6507 103.142 59.9888L103.334 59.9322C105.87 59.1751 108.522 59.2513 111.024 60.151C110.946 60.8148 111.32 61.4318 111.858 61.5277C111.872 61.5302 111.886 61.5326 111.898 61.5351C112.434 61.6039 112.908 61.1122 112.984 60.4583C114.002 51.7312 108.088 43.3287 99.496 40.804Z" fill="#EC4899"/>
<path d="M97.344 41.947C96.744 42.5149 95.882 43.4368 94.942 44.7913C93.33 47.1169 91.15 51.2248 89.84 57.6459C91.71 57.5599 93.58 57.6853 95.426 58.0171C97.27 58.3515 99.088 58.8923 100.86 59.6347C101.228 49.8555 98.624 44.1374 97.344 41.947Z" fill="#CE22CE"/>
<mask id="mask1_47_2" style="mask-type:luminance" maskUnits="userSpaceOnUse" x="86" y="60" width="19" height="22">
<path d="M86.528 60.832H104.448V81.4943H86.528V60.832Z" fill="white"/>
</mask>
<g mask="url(#mask1_47_2)">
<path d="M102.814 69.0479C102.684 70.5794 102.118 72.1331 101.218 73.4213C99.904 75.2994 96.662 78.2961 95.564 79.2893C94.464 78.2961 91.222 75.2994 89.91 73.4237C89.508 72.846 89.172 72.2191 88.914 71.5652H89.82C89.822 71.5652 89.822 71.5628 89.824 71.5628L90.474 69.3896C90.474 69.3871 90.478 69.3871 90.478 69.3896L92.268 74.7193C92.356 74.9774 92.658 74.9651 92.73 74.6971L93.562 71.5677C93.562 71.5652 93.564 71.5652 93.564 71.5652H95.342C95.342 71.5652 95.342 71.5628 95.344 71.5628L96.25 68.6545C96.252 68.6521 96.254 68.6521 96.256 68.6545L97.872 74.8594C97.946 75.147 98.278 75.1372 98.342 74.8471L99.06 71.5677C99.06 71.5652 99.062 71.5652 99.064 71.5652H100.514C100.772 71.5652 100.978 71.2973 100.962 70.9777C100.948 70.6827 100.736 70.459 100.496 70.459H98.374L98.372 70.4614L98.054 71.9192C98.052 71.9217 98.05 71.9217 98.048 71.9192L96.544 66.1372C96.472 65.8643 96.162 65.8545 96.08 66.12L94.726 70.459C94.724 70.459 94.724 70.459 94.724 70.459H92.912C92.912 70.459 92.912 70.4614 92.91 70.4614L92.426 72.283C92.426 72.2855 92.422 72.2855 92.422 72.283L90.67 67.0615C90.584 66.8083 90.288 66.8157 90.212 67.0738L89.196 70.459C89.196 70.459 89.196 70.459 89.194 70.459H88.554C88.434 69.9919 88.352 69.5199 88.312 69.0479C88.17 67.3762 88.556 65.8348 89.428 64.5885C90.192 63.4945 91.192 62.8898 92.246 62.8898C92.864 62.8898 93.458 63.1012 94.01 63.5215L94.024 63.5314C94.19 63.6494 94.524 63.9862 95.022 64.5319L95.564 65.1244L96.106 64.5319C96.602 63.9862 96.938 63.6494 97.102 63.5314L97.118 63.5215C97.67 63.1012 98.262 62.8898 98.88 62.8898C99.934 62.8898 100.936 63.4945 101.7 64.5885C102.57 65.8348 102.956 67.3762 102.814 69.0479ZM102.892 63.3323C101.824 61.8032 100.4 60.96 98.88 60.96C97.97 60.96 97.102 61.2673 96.3 61.872C96.094 62.022 95.832 62.2727 95.564 62.553C95.294 62.2727 95.032 62.022 94.826 61.872C94.024 61.2673 93.156 60.96 92.246 60.96C90.726 60.96 89.302 61.8032 88.236 63.3298C87.076 64.9892 86.562 67.0345 86.75 69.247C86.914 71.167 87.612 73.0943 88.718 74.6799C90.356 77.0203 94.498 80.7274 95.02 81.1896L95.564 81.6935L96.108 81.1896H96.106C96.63 80.7274 100.77 77.0203 102.408 74.6799C103.514 73.0943 104.214 71.167 104.376 69.247C104.564 67.0345 104.05 64.9892 102.892 63.3323Z" fill="#EC4899"/>
</g>
</svg>
