<?xml version="1.0" encoding="UTF-8"?>
<!DOCTYPE svg PUBLIC "-//W3C//DTD SVG 1.1//EN" "http://www.w3.org/Graphics/SVG/1.1/DTD/svg11.dtd">
<svg xmlns="http://www.w3.org/2000/svg" version="1.1" width="1436px" height="1436px" style="shape-rendering:geometricPrecision; text-rendering:geometricPrecision; image-rendering:optimizeQuality; fill-rule:evenodd; clip-rule:evenodd" xmlns:xlink="http://www.w3.org/1999/xlink">
<g><path style="opacity:0.959" fill="#253685" d="M 701.5,16.5 C 893.009,16.5794 1058.68,81.0794 1198.5,210C 1331.58,339.362 1404.41,497.196 1417,683.5C 1424.83,878.999 1364.5,1049.67 1236,1195.5C 1123.68,1317.43 985.178,1391.93 820.5,1419C 621.764,1446.49 442.431,1400.49 282.5,1281C 126.896,1157.7 36.7294,996.865 12,798.5C -6.07444,608.791 42.2589,438.458 157,287.5C 280.05,134.692 439.55,45.8587 635.5,21C 657.618,18.9102 679.618,17.4102 701.5,16.5 Z M 691.5,39.5 C 912.38,38.0534 1094.55,120.387 1238,286.5C 1356.09,432.751 1407.43,600.084 1392,788.5C 1371.16,970.369 1292.33,1121.2 1155.5,1241C 1008.15,1363.29 838.488,1416.62 646.5,1401C 461.104,1379.74 308.27,1298.57 188,1157.5C 69.434,1011.02 18.1007,843.351 34,654.5C 54.2847,475.746 131.118,326.913 264.5,208C 387.108,103.071 529.442,46.904 691.5,39.5 Z M 415.5,161.5 C 426.779,159.98 435.946,163.647 443,172.5C 451.254,186.672 459.254,201.005 467,215.5C 472.199,232.271 466.699,244.104 450.5,251C 435.966,254.483 425.132,249.65 418,236.5C 411.333,224.5 404.667,212.5 398,200.5C 390.828,181.542 396.661,168.542 415.5,161.5 Z M 1005.5,163.5 C 1003.8,183.056 1001.14,202.723 997.5,222.5C 986.323,216.411 974.99,210.578 963.5,205C 977.395,190.938 991.395,177.104 1005.5,163.5 Z M 321.5,226.5 C 332.668,227.828 340.168,233.828 344,244.5C 345.418,252.243 342.918,258.41 336.5,263C 328.667,269.5 320.833,276 313,282.5C 304.5,272.667 296,262.833 287.5,253C 295.796,246.373 303.796,239.373 311.5,232C 314.489,229.343 317.822,227.509 321.5,226.5 Z M 709.5,269.5 C 848.327,270.02 964.494,321.02 1058,422.5C 1150.76,531.511 1186.43,657.178 1165,799.5C 1137.45,938.628 1062.95,1044.13 941.5,1116C 829.205,1177.14 711.538,1190.14 588.5,1155C 481.797,1120.93 397.964,1057.1 337,963.5C 268.512,851.227 250.512,731.227 283,603.5C 317.207,484.997 387.04,394.164 492.5,331C 559.796,292.51 632.129,272.01 709.5,269.5 Z M 1210.5,316.5 C 1211.5,316.414 1212.33,316.748 1213,317.5C 1219.33,325.833 1225.67,334.167 1232,342.5C 1239.69,359.027 1234.53,369.36 1216.5,373.5C 1210.01,372.332 1204.85,368.999 1201,363.5C 1194.95,355.244 1188.79,347.077 1182.5,339C 1192.02,331.636 1201.35,324.136 1210.5,316.5 Z M 1167.5,349.5 C 1175.46,358.736 1182.96,368.403 1190,378.5C 1195.17,386.988 1194.33,394.821 1187.5,402C 1183.29,406.036 1178.29,408.536 1172.5,409.5C 1168.95,408.945 1165.61,407.779 1162.5,406C 1152.76,396.329 1144.09,385.829 1136.5,374.5C 1146.68,365.918 1157.01,357.585 1167.5,349.5 Z M 162.5,434.5 C 181.873,437.007 201.207,439.84 220.5,443C 214.701,454.293 208.701,465.459 202.5,476.5C 189.541,463.041 176.375,449.708 163,436.5C 162.536,435.906 162.369,435.239 162.5,434.5 Z M 1303.5,496.5 C 1304.24,496.369 1304.91,496.536 1305.5,497C 1290.63,510.209 1275.46,523.042 1260,535.5C 1255.5,523.833 1251,512.167 1246.5,500.5C 1246.71,499.914 1247.04,499.414 1247.5,499C 1266.34,498.495 1285.01,497.662 1303.5,496.5 Z M 144.5,719.5 C 145.5,719.5 146.5,719.5 147.5,719.5C 148.708,732.162 148.708,744.828 147.5,757.5C 128.869,751.568 110.203,745.734 91.5,740C 109.305,733.237 126.972,726.403 144.5,719.5 Z M 170.5,993.5 C 178.501,991.807 185.001,994.14 190,1000.5C 195.246,1010.66 200.746,1020.66 206.5,1030.5C 195.73,1037.41 184.564,1043.75 173,1049.5C 171.779,1048.73 170.779,1047.73 170,1046.5C 163.814,1035.63 158.314,1024.46 153.5,1013C 153.742,1008.51 155.409,1004.68 158.5,1001.5C 162.255,998.302 166.255,995.635 170.5,993.5 Z M 482.5,1025.5 C 485.518,1025.34 488.518,1025.5 491.5,1026C 494.167,1028.67 494.167,1031.33 491.5,1034C 488.518,1034.5 485.518,1034.66 482.5,1034.5C 482.5,1031.5 482.5,1028.5 482.5,1025.5 Z M 523.5,1025.5 C 527.49,1024.62 530.323,1025.95 532,1029.5C 532.667,1033.83 532.667,1038.17 532,1042.5C 528.834,1048.59 525.167,1048.92 521,1043.5C 520.333,1038.83 520.333,1034.17 521,1029.5C 521.662,1028.02 522.496,1026.68 523.5,1025.5 Z M 630.5,1025.5 C 633.85,1025.33 637.183,1025.5 640.5,1026C 643.167,1028.33 643.167,1030.67 640.5,1033C 637.183,1033.5 633.85,1033.67 630.5,1033.5C 630.5,1030.83 630.5,1028.17 630.5,1025.5 Z M 825.5,1025.5 C 828.518,1025.34 831.518,1025.5 834.5,1026C 837.167,1028.33 837.167,1030.67 834.5,1033C 831.518,1033.5 828.518,1033.66 825.5,1033.5C 825.5,1030.83 825.5,1028.17 825.5,1025.5 Z M 923.5,1025.5 C 926.898,1025.18 930.232,1025.51 933.5,1026.5C 934.78,1028.7 934.78,1030.87 933.5,1033C 930.183,1033.5 926.85,1033.67 923.5,1033.5C 923.5,1030.83 923.5,1028.17 923.5,1025.5 Z M 900.5,1028.5 C 902.405,1032.22 903.739,1036.22 904.5,1040.5C 902.167,1040.5 899.833,1040.5 897.5,1040.5C 898.5,1036.5 899.5,1032.5 900.5,1028.5 Z M 644.5,1077.5 C 647.652,1076.96 650.152,1077.96 652,1080.5C 652.667,1085.83 652.667,1091.17 652,1096.5C 648.667,1100.5 645.333,1100.5 642,1096.5C 641.333,1091.17 641.333,1085.83 642,1080.5C 643.045,1079.63 643.878,1078.63 644.5,1077.5 Z M 758.5,1077.5 C 761.652,1076.96 764.152,1077.96 766,1080.5C 766.667,1085.83 766.667,1091.17 766,1096.5C 762.667,1100.5 759.333,1100.5 756,1096.5C 755.333,1091.17 755.333,1085.83 756,1080.5C 756.698,1079.31 757.531,1078.31 758.5,1077.5 Z M 1087.5,1121.5 C 1089.02,1121.51 1090.18,1122.18 1091,1123.5C 1110.12,1146.96 1129.62,1170.13 1149.5,1193C 1140.68,1201.49 1131.02,1208.82 1120.5,1215C 1112.36,1217.62 1104.69,1216.62 1097.5,1212C 1084.2,1198.38 1072.04,1183.88 1061,1168.5C 1057.5,1160.68 1057.83,1153.01 1062,1145.5C 1065.13,1141.37 1068.63,1137.53 1072.5,1134C 1077.94,1130.29 1082.94,1126.12 1087.5,1121.5 Z M 340.5,1150.5 C 350.509,1158.84 360.509,1167.17 370.5,1175.5C 353.916,1185.71 337.416,1196.04 321,1206.5C 327.169,1187.8 333.669,1169.14 340.5,1150.5 Z"/></g>
<g><path style="opacity:0.956" fill="#253685" d="M 701.5,64.5 C 732.805,66.3248 764.138,67.6582 795.5,68.5C 794.81,74.8097 794.476,81.143 794.5,87.5C 782.155,86.9488 769.822,86.2822 757.5,85.5C 755.862,123.168 754.196,160.835 752.5,198.5C 746.167,198.5 739.833,198.5 733.5,198.5C 734.647,160.46 736.313,122.46 738.5,84.5C 726.161,84.3251 713.828,83.9918 701.5,83.5C 701.5,77.1667 701.5,70.8333 701.5,64.5 Z"/></g>
<g><path style="opacity:0.953" fill="#253685" d="M 678.5,65.5 C 679.222,65.9175 679.722,66.5842 680,67.5C 680.509,72.9007 681.343,78.234 682.5,83.5C 660.899,86.9667 639.233,89.9667 617.5,92.5C 618.833,105.167 620.167,117.833 621.5,130.5C 640.218,128.54 658.885,126.207 677.5,123.5C 678.249,129.824 678.915,136.157 679.5,142.5C 661.425,144.343 643.425,146.676 625.5,149.5C 625.908,161.121 627.075,172.788 629,184.5C 629.519,185.516 630.353,186.182 631.5,186.5C 652.457,183.458 673.457,180.792 694.5,178.5C 695.26,184.489 695.927,190.489 696.5,196.5C 668.465,200.508 640.465,203.841 612.5,206.5C 606.507,163.221 600.84,119.888 595.5,76.5C 623.356,73.2274 651.023,69.5607 678.5,65.5 Z"/></g>
<g><path style="opacity:0.961" fill="#253685" d="M 562.5,82.5 C 563.833,105.324 564.5,128.49 564.5,152C 564.167,175.167 563.833,198.333 563.5,221.5C 557.975,224.135 552.308,225.468 546.5,225.5C 519.447,189.113 492.78,152.447 466.5,115.5C 467.381,114.029 468.714,113.196 470.5,113C 475.81,111.223 481.143,109.89 486.5,109C 506.456,137.079 526.29,165.246 546,193.5C 546.205,158.49 545.705,123.49 544.5,88.5C 550.784,87.072 556.784,85.072 562.5,82.5 Z"/></g>
<g><path style="opacity:0.948" fill="#253685" d="M 911.5,226.5 C 945.13,196.04 978.63,165.373 1012,134.5C 1016.42,136.961 1020.92,139.294 1025.5,141.5C 1021.04,187.326 1015.71,233.16 1009.5,279C 1009.17,279.833 1008.83,280.667 1008.5,281.5C 1002.14,278.658 996.143,275.325 990.5,271.5C 992.825,261.577 993.825,251.577 993.5,241.5C 978.745,233.706 963.912,226.039 949,218.5C 941.952,226.05 934.452,233.05 926.5,239.5C 921.08,236.373 915.58,233.373 910,230.5C 909.439,231.022 908.772,231.355 908,231.5C 883.902,224.1 859.735,216.934 835.5,210C 833.349,209.735 831.682,208.735 830.5,207C 832.202,202.227 833.702,197.394 835,192.5C 861.88,166.652 889.047,141.152 916.5,116C 899.536,110.734 882.536,105.568 865.5,100.5C 865.167,99.8333 864.833,99.1667 864.5,98.5C 866.075,93.275 867.742,88.1084 869.5,83C 894.262,89.5271 918.928,96.6938 943.5,104.5C 943.833,105.167 944.167,105.833 944.5,106.5C 943.303,111.59 941.803,116.59 940,121.5C 912.865,146.3 886.032,171.467 859.5,197C 877.704,202.967 896.037,208.467 914.5,213.5C 913.344,217.793 912.344,222.126 911.5,226.5 Z M 1005.5,163.5 C 991.395,177.104 977.395,190.938 963.5,205C 974.99,210.578 986.323,216.411 997.5,222.5C 1001.14,202.723 1003.8,183.056 1005.5,163.5 Z"/></g>
<g><path style="opacity:0.952" fill="#253685" d="M 415.5,141.5 C 436.772,139.717 452.606,148.051 463,166.5C 471.874,181.375 479.874,196.708 487,212.5C 492.729,242.527 480.896,262.027 451.5,271C 430.859,274.763 414.693,267.93 403,250.5C 393.54,234.579 384.873,218.246 377,201.5C 371.039,176.261 379.539,157.761 402.5,146C 406.893,144.329 411.226,142.829 415.5,141.5 Z M 415.5,161.5 C 396.661,168.542 390.828,181.542 398,200.5C 404.667,212.5 411.333,224.5 418,236.5C 425.132,249.65 435.966,254.483 450.5,251C 466.699,244.104 472.199,232.271 467,215.5C 459.254,201.005 451.254,186.672 443,172.5C 435.946,163.647 426.779,159.98 415.5,161.5 Z"/></g>
<g><path style="opacity:0.948" fill="#253685" d="M 1138.5,278.5 C 1117.07,288.717 1095.73,299.217 1074.5,310C 1069.21,308.994 1065.21,305.994 1062.5,301C 1069.41,277.842 1075.91,254.675 1082,231.5C 1063.67,253.167 1045.33,274.833 1027,296.5C 1022.14,292.632 1017.64,288.465 1013.5,284C 1040.95,250.048 1068.95,216.548 1097.5,183.5C 1102.49,187.155 1107.15,191.155 1111.5,195.5C 1102.93,225.051 1094.26,254.551 1085.5,284C 1113.51,270.831 1141.51,257.331 1169.5,243.5C 1174.49,247.155 1179.15,251.155 1183.5,255.5C 1155.52,289.313 1127.35,322.98 1099,356.5C 1093.89,352.688 1089.05,348.521 1084.5,344C 1102.63,322.228 1120.63,300.395 1138.5,278.5 Z"/></g>
<g><path style="opacity:0.949" fill="#253685" d="M 317.5,207.5 C 344.951,206.283 360.618,219.283 364.5,246.5C 364.537,253.157 362.87,259.324 359.5,265C 379.5,273 399.5,281 419.5,289C 413.908,294.435 407.908,299.268 401.5,303.5C 382.948,295.974 364.448,288.308 346,280.5C 338.424,285.24 331.591,290.907 325.5,297.5C 337.167,311.5 348.833,325.5 360.5,339.5C 356.128,343.874 351.461,347.874 346.5,351.5C 317.488,318.487 288.822,285.153 260.5,251.5C 274.327,239.176 288.327,227.009 302.5,215C 307.313,211.927 312.313,209.427 317.5,207.5 Z M 321.5,226.5 C 317.822,227.509 314.489,229.343 311.5,232C 303.796,239.373 295.796,246.373 287.5,253C 296,262.833 304.5,272.667 313,282.5C 320.833,276 328.667,269.5 336.5,263C 342.918,258.41 345.418,252.243 344,244.5C 340.168,233.828 332.668,227.828 321.5,226.5 Z"/></g>
<g><path style="opacity:0.959" fill="#253685" d="M 690.5,247.5 C 837.005,241.921 961.505,290.921 1064,394.5C 1163.43,503.475 1205.77,631.808 1191,779.5C 1173.53,908.326 1114.69,1013.49 1014.5,1095C 897.164,1183.95 765.83,1214.61 620.5,1187C 490.647,1157.07 389.48,1086.57 317,975.5C 245.659,857.115 226.992,730.781 261,596.5C 300.85,461.003 383.35,360.836 508.5,296C 566.095,267.936 626.762,251.769 690.5,247.5 Z M 709.5,269.5 C 632.129,272.01 559.796,292.51 492.5,331C 387.04,394.164 317.207,484.997 283,603.5C 250.512,731.227 268.512,851.227 337,963.5C 397.964,1057.1 481.797,1120.93 588.5,1155C 711.538,1190.14 829.205,1177.14 941.5,1116C 1062.95,1044.13 1137.45,938.628 1165,799.5C 1186.43,657.178 1150.76,531.511 1058,422.5C 964.494,321.02 848.327,270.02 709.5,269.5 Z M 482.5,1025.5 C 482.5,1028.5 482.5,1031.5 482.5,1034.5C 485.518,1034.66 488.518,1034.5 491.5,1034C 494.167,1031.33 494.167,1028.67 491.5,1026C 488.518,1025.5 485.518,1025.34 482.5,1025.5 Z M 523.5,1025.5 C 522.496,1026.68 521.662,1028.02 521,1029.5C 520.333,1034.17 520.333,1038.83 521,1043.5C 525.167,1048.92 528.834,1048.59 532,1042.5C 532.667,1038.17 532.667,1033.83 532,1029.5C 530.323,1025.95 527.49,1024.62 523.5,1025.5 Z M 630.5,1025.5 C 630.5,1028.17 630.5,1030.83 630.5,1033.5C 633.85,1033.67 637.183,1033.5 640.5,1033C 643.167,1030.67 643.167,1028.33 640.5,1026C 637.183,1025.5 633.85,1025.33 630.5,1025.5 Z M 825.5,1025.5 C 825.5,1028.17 825.5,1030.83 825.5,1033.5C 828.518,1033.66 831.518,1033.5 834.5,1033C 837.167,1030.67 837.167,1028.33 834.5,1026C 831.518,1025.5 828.518,1025.34 825.5,1025.5 Z M 923.5,1025.5 C 923.5,1028.17 923.5,1030.83 923.5,1033.5C 926.85,1033.67 930.183,1033.5 933.5,1033C 934.78,1030.87 934.78,1028.7 933.5,1026.5C 930.232,1025.51 926.898,1025.18 923.5,1025.5 Z M 900.5,1028.5 C 899.5,1032.5 898.5,1036.5 897.5,1040.5C 899.833,1040.5 902.167,1040.5 904.5,1040.5C 903.739,1036.22 902.405,1032.22 900.5,1028.5 Z M 644.5,1077.5 C 643.878,1078.63 643.045,1079.63 642,1080.5C 641.333,1085.83 641.333,1091.17 642,1096.5C 645.333,1100.5 648.667,1100.5 652,1096.5C 652.667,1091.17 652.667,1085.83 652,1080.5C 650.152,1077.96 647.652,1076.96 644.5,1077.5 Z M 758.5,1077.5 C 757.531,1078.31 756.698,1079.31 756,1080.5C 755.333,1085.83 755.333,1091.17 756,1096.5C 759.333,1100.5 762.667,1100.5 766,1096.5C 766.667,1091.17 766.667,1085.83 766,1080.5C 764.152,1077.96 761.652,1076.96 758.5,1077.5 Z"/></g>
<g><path style="opacity:0.947" fill="#253685" d="M 1213.5,289.5 C 1215.13,290.625 1216.63,291.959 1218,293.5C 1228.33,307.167 1238.67,320.833 1249,334.5C 1261.99,357.206 1257.16,375.04 1234.5,388C 1225.13,391.551 1216.13,390.718 1207.5,385.5C 1210.92,406.312 1202.58,420.478 1182.5,428C 1168.42,431.195 1156.25,427.695 1146,417.5C 1134.2,401.396 1122.03,385.563 1109.5,370C 1144.35,343.303 1179.02,316.47 1213.5,289.5 Z M 1210.5,316.5 C 1201.35,324.136 1192.02,331.636 1182.5,339C 1188.79,347.077 1194.95,355.244 1201,363.5C 1204.85,368.999 1210.01,372.332 1216.5,373.5C 1234.53,369.36 1239.69,359.027 1232,342.5C 1225.67,334.167 1219.33,325.833 1213,317.5C 1212.33,316.748 1211.5,316.414 1210.5,316.5 Z M 1167.5,349.5 C 1157.01,357.585 1146.68,365.918 1136.5,374.5C 1144.09,385.829 1152.76,396.329 1162.5,406C 1165.61,407.779 1168.95,408.945 1172.5,409.5C 1178.29,408.536 1183.29,406.036 1187.5,402C 1194.33,394.821 1195.17,386.988 1190,378.5C 1182.96,368.403 1175.46,358.736 1167.5,349.5 Z"/></g>
<g><path style="opacity:0.947" fill="#253685" d="M 231.5,298.5 C 240.075,297.967 248.408,299.134 256.5,302C 258.555,302.687 260.221,303.854 261.5,305.5C 257.575,311.015 253.408,316.348 249,321.5C 232.803,315.262 220.803,319.929 213,335.5C 210.261,344.186 211.594,352.186 217,359.5C 231.739,373.913 247.905,386.413 265.5,397C 282.387,399.796 293.554,392.963 299,376.5C 300.287,362.605 294.787,352.272 282.5,345.5C 276.833,352.167 271.167,358.833 265.5,365.5C 260.514,361.845 255.847,357.845 251.5,353.5C 260.759,341.318 270.259,329.318 280,317.5C 287.41,323.454 294.91,329.287 302.5,335C 325.522,359.909 324.855,384.243 300.5,408C 281.532,421.898 262.532,421.898 243.5,408C 232.787,398.952 221.787,390.286 210.5,382C 186.419,358.945 185.419,334.945 207.5,310C 214.673,304.245 222.673,300.412 231.5,298.5 Z"/></g>
<g><path style="opacity:0.994" fill="#253685" d="M 668.5,337.5 C 672.548,337.395 676.548,337.728 680.5,338.5C 681.178,342.273 679.844,345.106 676.5,347C 679.366,348.876 681.032,351.542 681.5,355C 679.106,358.7 676.439,362.2 673.5,365.5C 674.128,367.258 675.128,368.758 676.5,370C 682.529,369.517 687.529,371.517 691.5,376C 697.954,376.149 704.287,376.982 710.5,378.5C 710.73,382.694 712.397,386.194 715.5,389C 725.036,389.623 733.87,392.456 742,397.5C 743.944,396.561 745.611,395.227 747,393.5C 746.377,390.563 746.043,387.563 746,384.5C 753.065,376.09 761.898,373.424 772.5,376.5C 774.439,378.122 774.772,379.956 773.5,382C 784.801,383.682 795.468,386.182 805.5,389.5C 807.139,392.283 809.639,392.949 813,391.5C 815.855,391.446 818.522,392.112 821,393.5C 826.739,390.732 832.739,388.732 839,387.5C 843.824,389.44 848.824,390.774 854,391.5C 857.21,390.721 860.377,390.221 863.5,390C 868.339,399.551 868.672,409.218 864.5,419C 862.711,419.52 861.044,419.187 859.5,418C 855.142,413.443 851.142,408.61 847.5,403.5C 847.167,404 846.833,404.5 846.5,405C 853.956,416.071 860.79,427.571 867,439.5C 869.34,443.006 872.174,446.006 875.5,448.5C 876.605,453.445 877.272,458.445 877.5,463.5C 882.809,464.296 886.975,466.962 890,471.5C 891.611,479.106 892.944,486.773 894,494.5C 897.667,496.833 901.333,499.167 905,501.5C 908.22,509.608 912.22,517.274 917,524.5C 928.461,530.625 938.794,538.291 948,547.5C 949.366,549.37 950.533,551.37 951.5,553.5C 950.352,555.149 949.019,556.649 947.5,558C 950.376,558.438 953.043,559.438 955.5,561C 957.683,563.35 960.016,565.517 962.5,567.5C 967.059,564.531 971.893,563.865 977,565.5C 978.918,564.458 980.751,563.292 982.5,562C 993.164,562 1003,559.167 1012,553.5C 1014.68,555.693 1015.85,558.526 1015.5,562C 1014.23,577.81 1009.73,592.643 1002,606.5C 994.363,619.476 985.196,631.31 974.5,642C 958.309,647.266 945.643,657.099 936.5,671.5C 922.663,681.845 913.33,695.345 908.5,712C 911.036,715.224 912.703,718.891 913.5,723C 913.256,726.487 911.923,729.487 909.5,732C 913.082,735.737 914.915,740.237 915,745.5C 918.564,747.014 921.064,749.514 922.5,753C 922.054,754.726 921.221,756.226 920,757.5C 919.304,766.349 919.47,775.182 920.5,784C 920.122,791.047 917.122,796.714 911.5,801C 904.341,805.579 896.674,809.079 888.5,811.5C 884.409,817.891 878.742,822.391 871.5,825C 869.333,826.5 867.5,828.333 866,830.5C 866.934,834.416 867.934,838.416 869,842.5C 873.027,860.313 866.194,870.813 848.5,874C 847,875.5 845.5,877 844,878.5C 846.376,886.695 845.042,894.362 840,901.5C 835.952,905.216 831.618,908.55 827,911.5C 818.066,926.435 805.899,937.935 790.5,946C 786.909,947.152 783.242,947.985 779.5,948.5C 764.852,945.165 750.519,946.165 736.5,951.5C 728.108,949.439 723.108,944.105 721.5,935.5C 725.873,930.546 725.373,926.213 720,922.5C 717.22,914.939 713.887,907.606 710,900.5C 701.537,891.907 696.537,881.573 695,869.5C 694.897,861.756 694.231,854.089 693,846.5C 686.691,833.211 679.357,820.544 671,808.5C 670.817,798.067 671.817,787.734 674,777.5C 675.379,771.134 678.712,766.134 684,762.5C 685.701,760.1 686.534,757.433 686.5,754.5C 685.371,746.78 683.038,739.447 679.5,732.5C 680.963,730.369 681.963,728.035 682.5,725.5C 679.051,712.935 673.217,701.601 665,691.5C 658.667,684.5 652.333,677.5 646,670.5C 645.245,667.312 644.411,664.145 643.5,661C 647.313,654.598 648.813,647.764 648,640.5C 654.63,629.687 652.464,621.021 641.5,614.5C 633.954,616.648 626.288,617.481 618.5,617C 617.584,616.626 616.75,616.126 616,615.5C 613.001,603.912 605.501,598.578 593.5,599.5C 578.133,600.9 563.633,605.233 550,612.5C 544.17,609.135 537.837,607.468 531,607.5C 518.331,608.641 505.831,610.474 493.5,613C 480.5,603.833 467.5,594.667 454.5,585.5C 451.498,572.833 446.331,561.167 439,550.5C 434.888,545.893 430.388,541.893 425.5,538.5C 426.552,534.73 427.885,531.063 429.5,527.5C 427.62,523.572 425.62,519.739 423.5,516C 433.174,503.483 438.507,489.316 439.5,473.5C 439.536,468.403 438.869,463.403 437.5,458.5C 438.099,455.298 439.266,452.298 441,449.5C 446.293,441.873 452.626,435.206 460,429.5C 461.866,421.468 466.699,416.135 474.5,413.5C 476.883,408.612 480.217,404.445 484.5,401C 494.879,398.896 503.713,394.062 511,386.5C 511.401,378.453 514.234,371.453 519.5,365.5C 527.437,362.198 535.103,358.365 542.5,354C 545.612,348.232 549.946,343.732 555.5,340.5C 561.05,345.524 567.55,348.524 575,349.5C 590.534,346.737 605.867,343.07 621,338.5C 627.063,339.136 633.063,340.136 639,341.5C 646.737,338.977 654.403,338.977 662,341.5C 664.013,339.752 666.18,338.418 668.5,337.5 Z"/></g>
<g><path style="opacity:0.942" fill="#253685" d="M 1285.5,395.5 C 1288.29,395.452 1290.13,396.785 1291,399.5C 1292.91,403.66 1295.08,407.66 1297.5,411.5C 1259.4,432.967 1221.23,454.3 1183,475.5C 1179.51,471.202 1176.51,466.536 1174,461.5C 1173.32,460.216 1173.48,459.049 1174.5,458C 1211.56,437.139 1248.56,416.306 1285.5,395.5 Z"/></g>
<g><path style="opacity:0.949" fill="#253685" d="M 139.5,414.5 C 186.279,419.514 232.946,425.347 279.5,432C 276.5,437.667 273.5,443.333 270.5,449C 260.596,448.681 250.763,447.514 241,445.5C 232.592,460.647 224.425,475.98 216.5,491.5C 223.184,498.35 229.684,505.35 236,512.5C 236.667,513.833 236.667,515.167 236,516.5C 233.246,521.008 230.746,525.674 228.5,530.5C 227.5,531.833 226.5,531.833 225.5,530.5C 194.851,496.683 164.018,463.017 133,429.5C 134.567,424.353 136.734,419.353 139.5,414.5 Z M 162.5,434.5 C 162.369,435.239 162.536,435.906 163,436.5C 176.375,449.708 189.541,463.041 202.5,476.5C 208.701,465.459 214.701,454.293 220.5,443C 201.207,439.84 181.873,437.007 162.5,434.5 Z"/></g>
<g><path style="opacity:0.951" fill="#253685" d="M 1287.5,479.5 C 1301.52,479.167 1315.52,479.501 1329.5,480.5C 1331.94,485.303 1333.44,490.303 1334,495.5C 1299.62,526.219 1264.95,556.552 1230,586.5C 1226.6,580.67 1223.77,574.503 1221.5,568C 1229.58,561.626 1237.25,554.793 1244.5,547.5C 1238.57,532.206 1232.74,516.872 1227,501.5C 1225.99,500.342 1224.66,499.675 1223,499.5C 1213.83,500.736 1204.67,500.736 1195.5,499.5C 1193.36,493.753 1191.03,488.086 1188.5,482.5C 1221.64,481.059 1254.64,480.059 1287.5,479.5 Z M 1303.5,496.5 C 1285.01,497.662 1266.34,498.495 1247.5,499C 1247.04,499.414 1246.71,499.914 1246.5,500.5C 1251,512.167 1255.5,523.833 1260,535.5C 1275.46,523.042 1290.63,510.209 1305.5,497C 1304.91,496.536 1304.24,496.369 1303.5,496.5 Z"/></g>
<g><path style="opacity:0.952" fill="#253685" d="M 82.5,555.5 C 125.799,563.383 169.132,571.05 212.5,578.5C 211.968,584.867 210.635,591.034 208.5,597C 174.247,611.195 139.914,625.195 105.5,639C 136.14,644.795 166.807,650.461 197.5,656C 198.022,656.561 198.355,657.228 198.5,658C 197.326,663.879 195.993,669.712 194.5,675.5C 151.857,667.371 109.191,659.371 66.5,651.5C 66.1258,645.525 67.1258,639.691 69.5,634C 104.167,620 138.833,606 173.5,592C 142.223,585.843 110.89,580.01 79.5,574.5C 80.6289,568.188 81.6289,561.855 82.5,555.5 Z"/></g>
<g><path style="opacity:0.953" fill="#253685" d="M 1357.5,625.5 C 1361.5,625.5 1365.5,625.5 1369.5,625.5C 1370.01,631.822 1370.35,638.155 1370.5,644.5C 1333.16,647.773 1295.83,651.107 1258.5,654.5C 1260.29,676.491 1261.95,698.491 1263.5,720.5C 1257.48,720.593 1251.48,720.926 1245.5,721.5C 1243.13,693.453 1240.47,665.453 1237.5,637.5C 1277.64,633.428 1317.64,629.428 1357.5,625.5 Z"/></g>
<g><path style="opacity:0.95" fill="#253685" d="M 191.5,680.5 C 192.75,680.577 193.583,681.244 194,682.5C 194.831,688.859 194.664,695.193 193.5,701.5C 184.833,704.833 176.167,708.167 167.5,711.5C 166.417,728.837 166.583,746.17 168,763.5C 177.114,766.593 186.28,769.593 195.5,772.5C 196.277,779.506 196.944,786.506 197.5,793.5C 152.833,779 108.333,764 64,748.5C 63.3333,743.167 63.3333,737.833 64,732.5C 106.623,715.243 149.123,697.909 191.5,680.5 Z M 144.5,719.5 C 126.972,726.403 109.305,733.237 91.5,740C 110.203,745.734 128.869,751.568 147.5,757.5C 148.708,744.828 148.708,732.162 147.5,719.5C 146.5,719.5 145.5,719.5 144.5,719.5 Z"/></g>
<g><path style="opacity:0.954" fill="#253685" d="M 1243.5,733.5 C 1287.48,735.593 1331.48,737.259 1375.5,738.5C 1374.67,745.131 1374.34,751.798 1374.5,758.5C 1330.52,756.407 1286.52,754.741 1242.5,753.5C 1242.95,746.841 1243.29,740.174 1243.5,733.5 Z"/></g>
<g><path style="opacity:0.965" fill="#253685" d="M 991.5,769.5 C 993.288,769.215 994.955,769.548 996.5,770.5C 1002.28,780.378 1002.95,790.544 998.5,801C 998.167,801.167 997.833,801.333 997.5,801.5C 996.749,800.624 996.249,799.624 996,798.5C 994.399,804.637 992.399,810.637 990,816.5C 980.89,837.053 972.057,857.719 963.5,878.5C 956.789,878.792 950.623,880.792 945,884.5C 941.63,881.465 938.63,878.132 936,874.5C 936.023,865.879 936.023,857.212 936,848.5C 936.36,846.392 937.027,844.392 938,842.5C 943.537,837.235 946.371,830.735 946.5,823C 945.499,818.178 944.999,813.345 945,808.5C 945.69,805.804 947.19,803.637 949.5,802C 968.346,797.308 982.346,786.475 991.5,769.5 Z"/></g>
<g><path style="opacity:0.952" fill="#253685" d="M 1243.5,774.5 C 1286.54,782.909 1329.54,791.575 1372.5,800.5C 1372.15,805.569 1371.32,810.569 1370,815.5C 1369.68,817.061 1368.85,818.228 1367.5,819C 1338.09,825.187 1308.75,831.687 1279.5,838.5C 1303.84,856.661 1328.34,874.661 1353,892.5C 1352.76,898.548 1351.93,904.548 1350.5,910.5C 1307.53,901.674 1264.53,893.007 1221.5,884.5C 1222.37,878.142 1223.37,871.809 1224.5,865.5C 1252.85,871.203 1281.18,876.703 1309.5,882C 1289.69,868.361 1270.03,854.528 1250.5,840.5C 1250.17,839.5 1249.83,838.5 1249.5,837.5C 1250.3,833.511 1250.96,829.511 1251.5,825.5C 1275.61,820.911 1299.61,815.744 1323.5,810C 1296.19,804.206 1268.86,798.539 1241.5,793C 1240.92,792.107 1240.59,791.107 1240.5,790C 1241.82,784.885 1242.82,779.718 1243.5,774.5 Z"/></g>
<g><path style="opacity:0.949" fill="#253685" d="M 159.5,796.5 C 194.884,798.388 211.384,817.054 209,852.5C 203.682,871.816 191.182,883.65 171.5,888C 157.525,891.128 143.525,894.128 129.5,897C 102.422,899.901 84.9217,888.401 77,862.5C 73.0697,837.359 82.5697,819.359 105.5,808.5C 107.479,814.548 109.145,820.715 110.5,827C 96.3041,836.254 92.1374,848.754 98,864.5C 105.43,875.093 115.596,879.26 128.5,877C 144.755,873.936 160.755,869.936 176.5,865C 190.298,856.32 193.798,844.487 187,829.5C 181.559,820.863 173.726,816.529 163.5,816.5C 162.482,809.763 161.149,803.097 159.5,796.5 Z"/></g>
<g><path style="opacity:0.945" fill="#253685" d="M 221.5,896.5 C 222.833,896.5 224.167,896.5 225.5,896.5C 227.095,902.283 229.095,907.949 231.5,913.5C 191.094,929.415 150.428,944.748 109.5,959.5C 107.647,958.811 106.481,957.478 106,955.5C 104.639,951.279 103.139,947.113 101.5,943C 101.833,942.5 102.167,942 102.5,941.5C 142.343,926.668 182.01,911.668 221.5,896.5 Z"/></g>
<g><path style="opacity:0.944" fill="#253685" d="M 1211.5,902.5 C 1252.43,918.366 1293.43,934.033 1334.5,949.5C 1332.56,956.056 1330.06,962.389 1327,968.5C 1286.07,952.525 1245.24,936.358 1204.5,920C 1206.98,914.217 1209.31,908.383 1211.5,902.5 Z"/></g>
<g><path style="opacity:0.948" fill="#253685" d="M 233.5,928.5 C 238.333,934.302 242.333,940.802 245.5,948C 233.848,964.99 222.182,981.99 210.5,999C 212.461,1002.42 214.294,1005.92 216,1009.5C 218.181,1013.87 220.848,1017.87 224,1021.5C 239.667,1013.17 255.333,1004.83 271,996.5C 271.772,996.645 272.439,996.978 273,997.5C 274.746,1001.33 276.746,1004.99 279,1008.5C 280.187,1010.04 280.52,1011.71 280,1013.5C 241.753,1034.37 203.586,1055.37 165.5,1076.5C 156.079,1059.99 146.913,1043.33 138,1026.5C 130.215,1002.24 138.048,985.069 161.5,975C 175.024,970.539 187.357,972.705 198.5,981.5C 210.585,964.087 222.252,946.42 233.5,928.5 Z M 170.5,993.5 C 166.255,995.635 162.255,998.302 158.5,1001.5C 155.409,1004.68 153.742,1008.51 153.5,1013C 158.314,1024.46 163.814,1035.63 170,1046.5C 170.779,1047.73 171.779,1048.73 173,1049.5C 184.564,1043.75 195.73,1037.41 206.5,1030.5C 200.746,1020.66 195.246,1010.66 190,1000.5C 185.001,994.14 178.501,991.807 170.5,993.5 Z"/></g>
<g><path style="opacity:0.944" fill="#253685" d="M 1183.5,965.5 C 1186.02,965.755 1188.35,966.589 1190.5,968C 1221.11,985.222 1251.94,1002.05 1283,1018.5C 1289.2,1008.61 1295.03,998.44 1300.5,988C 1306.72,989.273 1312.38,991.94 1317.5,996C 1302.88,1023.41 1287.88,1050.57 1272.5,1077.5C 1266.84,1075.01 1261.51,1072.01 1256.5,1068.5C 1261.75,1058.34 1267.25,1048.34 1273,1038.5C 1273.75,1037.36 1273.58,1036.36 1272.5,1035.5C 1239.71,1017.87 1207.04,1000.03 1174.5,982C 1177.39,976.393 1180.39,970.893 1183.5,965.5 Z"/></g>
<g><path style="opacity:0.946" fill="#253685" d="M 1152.5,1018.5 C 1187.32,1045.75 1221.99,1073.25 1256.5,1101C 1239.03,1123.44 1221.19,1145.61 1203,1167.5C 1197.89,1164.03 1193.06,1160.19 1188.5,1156C 1202.17,1139 1215.83,1122 1229.5,1105C 1219.74,1097.04 1209.91,1089.21 1200,1081.5C 1188.2,1094.98 1176.7,1108.81 1165.5,1123C 1164.09,1123.32 1162.76,1122.98 1161.5,1122C 1157.66,1118.99 1153.99,1115.82 1150.5,1112.5C 1161.83,1098.17 1173.17,1083.83 1184.5,1069.5C 1175.13,1061.39 1165.63,1053.39 1156,1045.5C 1142.5,1062.33 1129,1079.17 1115.5,1096C 1113.72,1095.96 1112.05,1095.29 1110.5,1094C 1106.93,1091.06 1103.6,1087.89 1100.5,1084.5C 1118.26,1062.75 1135.6,1040.75 1152.5,1018.5 Z"/></g>
<g><path style="opacity:0.852" fill="#253685" d="M 524.5,1019.5 C 530.097,1019.38 534.264,1021.71 537,1026.5C 537.667,1032.83 537.667,1039.17 537,1045.5C 532.423,1052.94 526.257,1054.44 518.5,1050C 517.299,1049.1 516.465,1047.93 516,1046.5C 515.333,1039.83 515.333,1033.17 516,1026.5C 517.866,1022.78 520.699,1020.45 524.5,1019.5 Z M 523.5,1025.5 C 522.496,1026.68 521.662,1028.02 521,1029.5C 520.333,1034.17 520.333,1038.83 521,1043.5C 525.167,1048.92 528.834,1048.59 532,1042.5C 532.667,1038.17 532.667,1033.83 532,1029.5C 530.323,1025.95 527.49,1024.62 523.5,1025.5 Z"/></g>
<g><path style="opacity:0.859" fill="#253685" d="M 477.5,1020.5 C 483.176,1020.33 488.843,1020.5 494.5,1021C 500.313,1026.03 500.98,1031.7 496.5,1038C 492.078,1040.1 487.412,1040.94 482.5,1040.5C 482.5,1044.5 482.5,1048.5 482.5,1052.5C 480.833,1052.5 479.167,1052.5 477.5,1052.5C 477.5,1041.83 477.5,1031.17 477.5,1020.5 Z M 482.5,1025.5 C 482.5,1028.5 482.5,1031.5 482.5,1034.5C 485.518,1034.66 488.518,1034.5 491.5,1034C 494.167,1031.33 494.167,1028.67 491.5,1026C 488.518,1025.5 485.518,1025.34 482.5,1025.5 Z"/></g>
<g><path style="opacity:0.774" fill="#253685" d="M 503.5,1020.5 C 505.5,1020.5 507.5,1020.5 509.5,1020.5C 509.5,1031.17 509.5,1041.83 509.5,1052.5C 507.5,1052.5 505.5,1052.5 503.5,1052.5C 503.5,1041.83 503.5,1031.17 503.5,1020.5 Z"/></g>
<g><path style="opacity:0.82" fill="#253685" d="M 543.5,1020.5 C 545.467,1020.26 547.301,1020.59 549,1021.5C 553.25,1027.66 557.25,1034 561,1040.5C 561.5,1033.84 561.666,1027.17 561.5,1020.5C 563.5,1020.5 565.5,1020.5 567.5,1020.5C 567.5,1031.17 567.5,1041.83 567.5,1052.5C 564.956,1052.9 562.789,1052.23 561,1050.5C 557.25,1044 553.25,1037.66 549,1031.5C 548.5,1038.49 548.334,1045.49 548.5,1052.5C 546.833,1052.5 545.167,1052.5 543.5,1052.5C 543.5,1041.83 543.5,1031.17 543.5,1020.5 Z"/></g>
<g><path style="opacity:0.822" fill="#253685" d="M 573.5,1020.5 C 580.5,1020.5 587.5,1020.5 594.5,1020.5C 594.5,1022.17 594.5,1023.83 594.5,1025.5C 589.5,1025.5 584.5,1025.5 579.5,1025.5C 579.5,1028.17 579.5,1030.83 579.5,1033.5C 583.833,1033.5 588.167,1033.5 592.5,1033.5C 592.5,1035.17 592.5,1036.83 592.5,1038.5C 588.167,1038.5 583.833,1038.5 579.5,1038.5C 579.5,1041.17 579.5,1043.83 579.5,1046.5C 584.5,1046.5 589.5,1046.5 594.5,1046.5C 594.5,1048.5 594.5,1050.5 594.5,1052.5C 587.5,1052.5 580.5,1052.5 573.5,1052.5C 573.5,1041.83 573.5,1031.17 573.5,1020.5 Z"/></g>
<g><path style="opacity:0.822" fill="#253685" d="M 599.5,1020.5 C 606.5,1020.5 613.5,1020.5 620.5,1020.5C 620.5,1022.17 620.5,1023.83 620.5,1025.5C 615.5,1025.5 610.5,1025.5 605.5,1025.5C 605.5,1028.17 605.5,1030.83 605.5,1033.5C 609.833,1033.5 614.167,1033.5 618.5,1033.5C 618.5,1035.17 618.5,1036.83 618.5,1038.5C 614.167,1038.5 609.833,1038.5 605.5,1038.5C 605.5,1041.17 605.5,1043.83 605.5,1046.5C 610.5,1046.5 615.5,1046.5 620.5,1046.5C 620.5,1048.5 620.5,1050.5 620.5,1052.5C 613.5,1052.5 606.5,1052.5 599.5,1052.5C 599.5,1041.83 599.5,1031.17 599.5,1020.5 Z"/></g>
<g><path style="opacity:0.846" fill="#253685" d="M 625.5,1020.5 C 631.176,1020.33 636.843,1020.5 642.5,1021C 644.286,1021.78 645.786,1022.95 647,1024.5C 648.772,1030.47 647.272,1035.3 642.5,1039C 644.707,1043.25 647.04,1047.41 649.5,1051.5C 647.167,1052.83 644.833,1052.83 642.5,1051.5C 640.667,1047.83 638.833,1044.17 637,1040.5C 634.959,1039.58 632.792,1039.24 630.5,1039.5C 630.5,1043.83 630.5,1048.17 630.5,1052.5C 628.833,1052.5 627.167,1052.5 625.5,1052.5C 625.5,1041.83 625.5,1031.17 625.5,1020.5 Z M 630.5,1025.5 C 630.5,1028.17 630.5,1030.83 630.5,1033.5C 633.85,1033.67 637.183,1033.5 640.5,1033C 643.167,1030.67 643.167,1028.33 640.5,1026C 637.183,1025.5 633.85,1025.33 630.5,1025.5 Z"/></g>
<g><path style="opacity:0.88" fill="#253685" d="M 665.5,1020.5 C 667.167,1020.5 668.833,1020.5 670.5,1020.5C 670.5,1031.17 670.5,1041.83 670.5,1052.5C 668.833,1052.5 667.167,1052.5 665.5,1052.5C 665.5,1041.83 665.5,1031.17 665.5,1020.5 Z"/></g>
<g><path style="opacity:0.856" fill="#253685" d="M 677.5,1020.5 C 679.604,1020.2 681.604,1020.53 683.5,1021.5C 687.416,1028.33 691.583,1035 696,1041.5C 696.5,1034.51 696.666,1027.51 696.5,1020.5C 698.167,1020.5 699.833,1020.5 701.5,1020.5C 701.5,1031.17 701.5,1041.83 701.5,1052.5C 699.533,1052.74 697.699,1052.41 696,1051.5C 691.667,1044.83 687.333,1038.17 683,1031.5C 682.5,1038.49 682.334,1045.49 682.5,1052.5C 680.833,1052.5 679.167,1052.5 677.5,1052.5C 677.5,1041.83 677.5,1031.17 677.5,1020.5 Z"/></g>
<g><path style="opacity:0.835" fill="#253685" d="M 716.5,1020.5 C 718.604,1020.2 720.604,1020.53 722.5,1021.5C 724.766,1028.46 726.932,1035.46 729,1042.5C 731.68,1035.3 733.846,1027.96 735.5,1020.5C 737.5,1020.5 739.5,1020.5 741.5,1020.5C 738.441,1030.85 735.274,1041.18 732,1051.5C 729.67,1053.03 727.67,1052.7 726,1050.5C 722.83,1040.48 719.663,1030.48 716.5,1020.5 Z"/></g>
<g><path style="opacity:0.849" fill="#253685" d="M 745.5,1020.5 C 752.5,1020.5 759.5,1020.5 766.5,1020.5C 766.5,1022.17 766.5,1023.83 766.5,1025.5C 761.167,1025.5 755.833,1025.5 750.5,1025.5C 750.5,1028.17 750.5,1030.83 750.5,1033.5C 754.833,1033.5 759.167,1033.5 763.5,1033.5C 763.5,1035.17 763.5,1036.83 763.5,1038.5C 759.167,1038.5 754.833,1038.5 750.5,1038.5C 750.5,1041.17 750.5,1043.83 750.5,1046.5C 755.833,1046.5 761.167,1046.5 766.5,1046.5C 766.5,1048.5 766.5,1050.5 766.5,1052.5C 759.5,1052.5 752.5,1052.5 745.5,1052.5C 745.5,1041.83 745.5,1031.17 745.5,1020.5 Z"/></g>
<g><path style="opacity:0.817" fill="#253685" d="M 767.5,1020.5 C 775.167,1020.5 782.833,1020.5 790.5,1020.5C 790.5,1022.17 790.5,1023.83 790.5,1025.5C 787.833,1025.5 785.167,1025.5 782.5,1025.5C 782.5,1034.5 782.5,1043.5 782.5,1052.5C 780.5,1052.5 778.5,1052.5 776.5,1052.5C 776.5,1043.5 776.5,1034.5 776.5,1025.5C 773.5,1025.5 770.5,1025.5 767.5,1025.5C 767.5,1023.83 767.5,1022.17 767.5,1020.5 Z"/></g>
<g><path style="opacity:0.822" fill="#253685" d="M 793.5,1020.5 C 800.5,1020.5 807.5,1020.5 814.5,1020.5C 814.5,1022.17 814.5,1023.83 814.5,1025.5C 809.5,1025.5 804.5,1025.5 799.5,1025.5C 799.5,1028.17 799.5,1030.83 799.5,1033.5C 803.833,1033.5 808.167,1033.5 812.5,1033.5C 812.5,1035.17 812.5,1036.83 812.5,1038.5C 808.167,1038.5 803.833,1038.5 799.5,1038.5C 799.5,1041.17 799.5,1043.83 799.5,1046.5C 804.5,1046.5 809.5,1046.5 814.5,1046.5C 814.5,1048.5 814.5,1050.5 814.5,1052.5C 807.5,1052.5 800.5,1052.5 793.5,1052.5C 793.5,1041.83 793.5,1031.17 793.5,1020.5 Z"/></g>
<g><path style="opacity:0.815" fill="#253685" d="M 819.5,1020.5 C 825.509,1020.33 831.509,1020.5 837.5,1021C 844.038,1026.91 844.038,1032.91 837.5,1039C 839.364,1043.23 841.364,1047.39 843.5,1051.5C 841.579,1052.64 839.579,1052.81 837.5,1052C 835.372,1048.25 833.372,1044.41 831.5,1040.5C 829.604,1039.53 827.604,1039.2 825.5,1039.5C 825.5,1043.83 825.5,1048.17 825.5,1052.5C 823.5,1052.5 821.5,1052.5 819.5,1052.5C 819.5,1041.83 819.5,1031.17 819.5,1020.5 Z M 825.5,1025.5 C 825.5,1028.17 825.5,1030.83 825.5,1033.5C 828.518,1033.66 831.518,1033.5 834.5,1033C 837.167,1030.67 837.167,1028.33 834.5,1026C 831.518,1025.5 828.518,1025.34 825.5,1025.5 Z"/></g>
<g><path style="opacity:0.882" fill="#253685" d="M 848.5,1020.5 C 850.167,1020.5 851.833,1020.5 853.5,1020.5C 853.5,1031.17 853.5,1041.83 853.5,1052.5C 851.833,1052.5 850.167,1052.5 848.5,1052.5C 848.5,1041.83 848.5,1031.17 848.5,1020.5 Z"/></g>
<g><path style="opacity:0.848" fill="#253685" d="M 860.5,1020.5 C 862.467,1020.26 864.301,1020.59 866,1021.5C 869.75,1028 873.75,1034.34 878,1040.5C 878.5,1033.84 878.666,1027.17 878.5,1020.5C 880.5,1020.5 882.5,1020.5 884.5,1020.5C 884.5,1031.17 884.5,1041.83 884.5,1052.5C 881.956,1052.9 879.789,1052.23 878,1050.5C 873.75,1044.34 869.75,1038 866,1031.5C 865.5,1038.49 865.334,1045.49 865.5,1052.5C 863.833,1052.5 862.167,1052.5 860.5,1052.5C 860.5,1041.83 860.5,1031.17 860.5,1020.5 Z"/></g>
<g><path style="opacity:0.832" fill="#253685" d="M 898.5,1020.5 C 900.288,1020.21 901.955,1020.55 903.5,1021.5C 907.769,1031.64 911.436,1041.97 914.5,1052.5C 912.801,1052.66 911.134,1052.49 909.5,1052C 908.308,1050.09 907.308,1048.09 906.5,1046C 902.833,1045.33 899.167,1045.33 895.5,1046C 894.692,1048.09 893.692,1050.09 892.5,1052C 890.866,1052.49 889.199,1052.66 887.5,1052.5C 890.77,1041.69 894.436,1031.02 898.5,1020.5 Z M 900.5,1028.5 C 899.5,1032.5 898.5,1036.5 897.5,1040.5C 899.833,1040.5 902.167,1040.5 904.5,1040.5C 903.739,1036.22 902.405,1032.22 900.5,1028.5 Z"/></g>
<g><path style="opacity:0.849" fill="#253685" d="M 918.5,1020.5 C 924.176,1020.33 929.843,1020.5 935.5,1021C 940.155,1023.9 941.655,1028.06 940,1033.5C 938.878,1035.62 937.378,1037.46 935.5,1039C 938.196,1043.22 940.196,1047.72 941.5,1052.5C 939.396,1052.8 937.396,1052.47 935.5,1051.5C 933.628,1047.59 931.628,1043.75 929.5,1040C 927.527,1039.5 925.527,1039.34 923.5,1039.5C 923.5,1043.83 923.5,1048.17 923.5,1052.5C 921.833,1052.5 920.167,1052.5 918.5,1052.5C 918.5,1041.83 918.5,1031.17 918.5,1020.5 Z M 923.5,1025.5 C 923.5,1028.17 923.5,1030.83 923.5,1033.5C 926.85,1033.67 930.183,1033.5 933.5,1033C 934.78,1030.87 934.78,1028.7 933.5,1026.5C 930.232,1025.51 926.898,1025.18 923.5,1025.5 Z"/></g>
<g><path style="opacity:0.839" fill="#253685" d="M 942.5,1020.5 C 944.604,1020.2 946.604,1020.53 948.5,1021.5C 950.333,1025.17 952.167,1028.83 954,1032.5C 956.361,1029.11 958.194,1025.45 959.5,1021.5C 961.765,1020.35 964.098,1020.19 966.5,1021C 963.206,1027.09 960.039,1033.26 957,1039.5C 956.501,1043.82 956.334,1048.15 956.5,1052.5C 954.833,1052.5 953.167,1052.5 951.5,1052.5C 951.666,1047.82 951.499,1043.15 951,1038.5C 947.86,1032.56 945.027,1026.56 942.5,1020.5 Z"/></g>
<g><path style="opacity:0.942" fill="#253685" d="M 248.5,1063.5 C 250.716,1064.2 252.549,1065.54 254,1067.5C 263.689,1080.2 273.856,1092.53 284.5,1104.5C 298.521,1092.64 312.688,1080.98 327,1069.5C 331.199,1074.08 335.033,1078.91 338.5,1084C 305.636,1112.86 272.136,1141.03 238,1168.5C 220.056,1147.46 202.223,1126.29 184.5,1105C 187.977,1101.43 191.644,1098.1 195.5,1095C 196.759,1094.02 198.092,1093.68 199.5,1094C 212.645,1109.98 225.979,1125.81 239.5,1141.5C 249.909,1133.63 259.909,1125.3 269.5,1116.5C 257.978,1102.81 246.644,1088.98 235.5,1075C 240.027,1071.3 244.361,1067.47 248.5,1063.5 Z"/></g>
<g><path style="opacity:0.83" fill="#253685" d="M 615.5,1072.5 C 619.514,1072.33 623.514,1072.5 627.5,1073C 632.408,1074.71 632.575,1076.88 628,1079.5C 624.762,1077.57 621.262,1077.07 617.5,1078C 614.679,1080.72 615.013,1083.05 618.5,1085C 626.03,1084.55 630.696,1087.89 632.5,1095C 632.067,1099.55 629.734,1102.55 625.5,1104C 619.237,1105.42 613.571,1104.26 608.5,1100.5C 609.026,1098.77 610.026,1097.44 611.5,1096.5C 616.232,1099.77 621.065,1100.1 626,1097.5C 626.825,1095.3 626.325,1093.47 624.5,1092C 619.4,1091.44 614.9,1089.61 611,1086.5C 608.807,1080.59 610.307,1075.93 615.5,1072.5 Z"/></g>
<g><path style="opacity:0.815" fill="#253685" d="M 641.5,1072.5 C 645.182,1072.33 648.848,1072.5 652.5,1073C 655.663,1074.48 657.496,1076.98 658,1080.5C 658.87,1086.92 658.536,1093.25 657,1099.5C 650.333,1106.17 643.667,1106.17 637,1099.5C 634.759,1091.37 635.092,1083.37 638,1075.5C 639.145,1074.36 640.312,1073.36 641.5,1072.5 Z M 644.5,1077.5 C 643.878,1078.63 643.045,1079.63 642,1080.5C 641.333,1085.83 641.333,1091.17 642,1096.5C 645.333,1100.5 648.667,1100.5 652,1096.5C 652.667,1091.17 652.667,1085.83 652,1080.5C 650.152,1077.96 647.652,1076.96 644.5,1077.5 Z"/></g>
<g><path style="opacity:0.799" fill="#253685" d="M 663.5,1072.5 C 665.5,1072.5 667.5,1072.5 669.5,1072.5C 669.5,1081.5 669.5,1090.5 669.5,1099.5C 674.5,1099.5 679.5,1099.5 684.5,1099.5C 684.5,1101.17 684.5,1102.83 684.5,1104.5C 677.5,1104.5 670.5,1104.5 663.5,1104.5C 663.5,1093.83 663.5,1083.17 663.5,1072.5 Z"/></g>
<g><path style="opacity:0.828" fill="#253685" d="M 687.5,1072.5 C 689.167,1072.5 690.833,1072.5 692.5,1072.5C 692.099,1080.59 692.599,1088.59 694,1096.5C 697.333,1100.5 700.667,1100.5 704,1096.5C 704.5,1088.51 704.666,1080.51 704.5,1072.5C 706.5,1072.5 708.5,1072.5 710.5,1072.5C 710.914,1081.58 710.414,1090.58 709,1099.5C 705.212,1104.15 700.378,1105.65 694.5,1104C 691.943,1103.31 690.109,1101.81 689,1099.5C 687.586,1090.58 687.086,1081.58 687.5,1072.5 Z"/></g>
<g><path style="opacity:0.813" fill="#253685" d="M 712.5,1072.5 C 719.833,1072.5 727.167,1072.5 734.5,1072.5C 734.5,1074.17 734.5,1075.83 734.5,1077.5C 731.833,1077.5 729.167,1077.5 726.5,1077.5C 726.5,1086.5 726.5,1095.5 726.5,1104.5C 724.5,1104.5 722.5,1104.5 720.5,1104.5C 720.5,1095.5 720.5,1086.5 720.5,1077.5C 717.833,1077.5 715.167,1077.5 712.5,1077.5C 712.5,1075.83 712.5,1074.17 712.5,1072.5 Z"/></g>
<g><path style="opacity:0.922" fill="#253685" d="M 738.5,1072.5 C 740.167,1072.5 741.833,1072.5 743.5,1072.5C 743.5,1083.17 743.5,1093.83 743.5,1104.5C 741.833,1104.5 740.167,1104.5 738.5,1104.5C 738.5,1093.83 738.5,1083.17 738.5,1072.5 Z"/></g>
<g><path style="opacity:0.821" fill="#253685" d="M 755.5,1072.5 C 763.599,1070.34 769.099,1073.01 772,1080.5C 773.098,1087.38 772.431,1094.05 770,1100.5C 763.38,1106.06 757.047,1105.73 751,1099.5C 749.456,1092.92 749.123,1086.25 750,1079.5C 750.967,1076.38 752.8,1074.05 755.5,1072.5 Z M 758.5,1077.5 C 757.531,1078.31 756.698,1079.31 756,1080.5C 755.333,1085.83 755.333,1091.17 756,1096.5C 759.333,1100.5 762.667,1100.5 766,1096.5C 766.667,1091.17 766.667,1085.83 766,1080.5C 764.152,1077.96 761.652,1076.96 758.5,1077.5 Z"/></g>
<g><path style="opacity:0.813" fill="#253685" d="M 777.5,1072.5 C 779.604,1072.2 781.604,1072.53 783.5,1073.5C 787.865,1080.03 792.031,1086.7 796,1093.5C 796.5,1086.51 796.666,1079.51 796.5,1072.5C 798.167,1072.5 799.833,1072.5 801.5,1072.5C 801.5,1083.17 801.5,1093.83 801.5,1104.5C 799.533,1104.74 797.699,1104.41 796,1103.5C 792.25,1097 788.25,1090.66 784,1084.5C 783.5,1091.16 783.334,1097.83 783.5,1104.5C 781.5,1104.5 779.5,1104.5 777.5,1104.5C 777.5,1093.83 777.5,1083.17 777.5,1072.5 Z"/></g>
<g><path style="opacity:0.824" fill="#253685" d="M 813.5,1072.5 C 817.182,1072.33 820.848,1072.5 824.5,1073C 830.288,1074.37 830.788,1076.54 826,1079.5C 822.686,1077.69 819.186,1077.19 815.5,1078C 813.398,1079.73 813.065,1081.73 814.5,1084C 817.784,1085.12 821.117,1086.12 824.5,1087C 826.286,1087.78 827.786,1088.95 829,1090.5C 829.667,1093.5 829.667,1096.5 829,1099.5C 827.891,1101.81 826.057,1103.31 823.5,1104C 819.833,1104.67 816.167,1104.67 812.5,1104C 809.958,1103.45 807.958,1102.12 806.5,1100C 806.954,1098.38 807.954,1097.21 809.5,1096.5C 813.135,1099.14 817.135,1099.97 821.5,1099C 825.352,1096.51 825.352,1094.18 821.5,1092C 817.72,1091.15 814.054,1089.98 810.5,1088.5C 805.904,1082.07 806.904,1076.74 813.5,1072.5 Z"/></g>
<g><path style="opacity:0.948" fill="#253685" d="M 342.5,1090.5 C 348.135,1094.8 353.468,1099.47 358.5,1104.5C 354.963,1113.74 351.296,1122.9 347.5,1132C 361.291,1142.79 374.791,1153.96 388,1165.5C 396.416,1160.04 404.916,1154.71 413.5,1149.5C 419.24,1153.36 424.573,1157.7 429.5,1162.5C 389.449,1186.53 349.115,1210.2 308.5,1233.5C 304.523,1230.69 300.69,1227.69 297,1224.5C 296.333,1222.83 296.333,1221.17 297,1219.5C 311.88,1176.36 327.047,1133.36 342.5,1090.5 Z M 340.5,1150.5 C 333.669,1169.14 327.169,1187.8 321,1206.5C 337.416,1196.04 353.916,1185.71 370.5,1175.5C 360.509,1167.17 350.509,1158.84 340.5,1150.5 Z"/></g>
<g><path style="opacity:0.947" fill="#253685" d="M 1089.5,1094.5 C 1091.9,1094.39 1093.74,1095.39 1095,1097.5C 1121.98,1129.98 1149.15,1162.31 1176.5,1194.5C 1164.34,1205.16 1152.01,1215.66 1139.5,1226C 1119.86,1240.31 1100.52,1239.97 1081.5,1225C 1069.88,1211.59 1058.38,1198.09 1047,1184.5C 1033.45,1160.9 1036.95,1140.07 1057.5,1122C 1068.65,1113.34 1079.32,1104.18 1089.5,1094.5 Z M 1087.5,1121.5 C 1082.94,1126.12 1077.94,1130.29 1072.5,1134C 1068.63,1137.53 1065.13,1141.37 1062,1145.5C 1057.83,1153.01 1057.5,1160.68 1061,1168.5C 1072.04,1183.88 1084.2,1198.38 1097.5,1212C 1104.69,1216.62 1112.36,1217.62 1120.5,1215C 1131.02,1208.82 1140.68,1201.49 1149.5,1193C 1129.62,1170.13 1110.12,1146.96 1091,1123.5C 1090.18,1122.18 1089.02,1121.51 1087.5,1121.5 Z"/></g>
</svg>
