<?xml version="1.0" encoding="UTF-8"?>
<!DOCTYPE svg PUBLIC "-//W3C//DTD SVG 1.1//EN" "http://www.w3.org/Graphics/SVG/1.1/DTD/svg11.dtd">
<svg xmlns="http://www.w3.org/2000/svg" version="1.1" width="225px" height="225px" style="shape-rendering:geometricPrecision; text-rendering:geometricPrecision; image-rendering:optimizeQuality; fill-rule:evenodd; clip-rule:evenodd" xmlns:xlink="http://www.w3.org/1999/xlink">
<g><path style="opacity:1" fill="#fefefe" d="M -0.5,-0.5 C 74.5,-0.5 149.5,-0.5 224.5,-0.5C 224.5,74.5 224.5,149.5 224.5,224.5C 149.5,224.5 74.5,224.5 -0.5,224.5C -0.5,149.5 -0.5,74.5 -0.5,-0.5 Z"/></g>
<g><path style="opacity:1" fill="#09652d" d="M 23.5,83.5 C 29.8421,83.3338 36.1754,83.5005 42.5,84C 43.8333,88 43.8333,92 42.5,96C 36.5845,96.1896 30.7512,96.6896 25,97.5C 24.5012,101.486 24.3345,105.486 24.5,109.5C 30.5092,109.334 36.5092,109.501 42.5,110C 43.8333,114.333 43.8333,118.667 42.5,123C 36.5,123.667 30.5,123.667 24.5,123C 20,119.167 15.5,115.333 11,111.5C 10.3333,106.167 10.3333,100.833 11,95.5C 15.0356,91.2964 19.2022,87.2964 23.5,83.5 Z"/></g>
<g><path style="opacity:1" fill="#0a652d" d="M 59.5,83.5 C 62.8499,83.335 66.1832,83.5017 69.5,84C 74.0541,88.5541 78.5541,93.0541 83,97.5C 83.6667,105.5 83.6667,113.5 83,121.5C 79.27,122.46 75.4367,122.793 71.5,122.5C 72.1742,117.174 69.8408,114.841 64.5,115.5C 59.1592,114.841 56.8258,117.174 57.5,122.5C 53.5633,122.793 49.73,122.46 46,121.5C 45.3333,113.5 45.3333,105.5 46,97.5C 50.7033,92.9645 55.2033,88.2979 59.5,83.5 Z"/></g>
<g><path style="opacity:1" fill="#0b652e" d="M 93.5,83.5 C 98.5111,83.3341 103.511,83.5007 108.5,84C 110.138,87.0571 111.471,87.0571 112.5,84C 117.833,83.3333 123.167,83.3333 128.5,84C 131.126,88.0838 133.626,92.2505 136,96.5C 136.816,105.079 136.649,113.579 135.5,122C 131.909,122.789 128.409,122.622 125,121.5C 124.667,113.5 124.333,105.5 124,97.5C 121.667,96.1667 119.333,96.1667 117,97.5C 116.667,105.5 116.333,113.5 116,121.5C 112.606,122.456 109.106,122.789 105.5,122.5C 105.666,114.16 105.5,105.827 105,97.5C 102.333,96.1667 99.6667,96.1667 97,97.5C 96.5003,105.827 96.3336,114.16 96.5,122.5C 92.8936,122.789 89.3936,122.456 86,121.5C 85.3333,112.833 85.3333,104.167 86,95.5C 88.2606,91.3037 90.7606,87.3037 93.5,83.5 Z"/></g>
<g><path style="opacity:1" fill="#0d662f" d="M 151.5,83.5 C 157.842,83.3338 164.175,83.5005 170.5,84C 171.833,88 171.833,92 170.5,96C 164.584,96.1896 158.751,96.6896 153,97.5C 152.501,101.486 152.334,105.486 152.5,109.5C 158.509,109.334 164.509,109.501 170.5,110C 171.833,114.333 171.833,118.667 170.5,123C 164.5,123.667 158.5,123.667 152.5,123C 148,119.167 143.5,115.333 139,111.5C 138.333,105.833 138.333,100.167 139,94.5C 143.36,90.9681 147.527,87.3014 151.5,83.5 Z"/></g>
<g><path style="opacity:1" fill="#f58220" d="M 185.5,82.5 C 190.844,82.334 196.177,82.5006 201.5,83C 205.685,86.1878 209.518,89.6878 213,93.5C 213.667,100.167 213.667,106.833 213,113.5C 209.167,116.667 205.333,119.833 201.5,123C 196.167,123.667 190.833,123.667 185.5,123C 181.315,119.812 177.482,116.312 174,112.5C 173.333,106.167 173.333,99.8333 174,93.5C 177.729,89.6019 181.562,85.9352 185.5,82.5 Z"/></g>
<g><path style="opacity:1" fill="#fffbf9" d="M 201.5,98.5 C 202.209,99.404 203.209,99.7373 204.5,99.5C 204.5,102.167 204.5,104.833 204.5,107.5C 200.5,108.167 198.167,110.5 197.5,114.5C 194.833,114.5 192.167,114.5 189.5,114.5C 188.833,110.5 186.5,108.167 182.5,107.5C 182.5,104.5 182.5,101.5 182.5,98.5C 183.978,98.762 185.311,98.4287 186.5,97.5C 188.559,96.0488 189.559,94.0488 189.5,91.5C 192.572,91.1826 195.572,91.5159 198.5,92.5C 198.167,93.1667 197.833,93.8333 197.5,94.5C 199.188,95.5213 200.521,96.8546 201.5,98.5 Z"/></g>
<g><path style="opacity:1" fill="#eff3f0" d="M 59.5,96.5 C 63.226,96.1774 66.8927,96.5108 70.5,97.5C 71.5748,100.438 71.7415,103.438 71,106.5C 66.9215,107.629 62.7548,107.796 58.5,107C 56.9875,103.276 57.3209,99.7758 59.5,96.5 Z"/></g>
<g><path style="opacity:1" fill="#f8b58a" d="M 201.5,98.5 C 202.833,98.5 204.167,98.5 205.5,98.5C 205.81,101.713 205.477,104.713 204.5,107.5C 204.5,104.833 204.5,102.167 204.5,99.5C 203.209,99.7373 202.209,99.404 201.5,98.5 Z"/></g>
<g><path style="opacity:1" fill="#a6a39a" d="M 25.5,129.5 C 25.5,133.167 25.5,136.833 25.5,140.5C 27.5,140.5 29.5,140.5 31.5,140.5C 29.3926,141.468 27.0593,141.802 24.5,141.5C 24.1832,137.298 24.5166,133.298 25.5,129.5 Z"/></g>
<g><path style="opacity:1" fill="#948e7e" d="M 75.5,129.5 C 76.5,129.5 77.5,129.5 78.5,129.5C 78.5,133.5 78.5,137.5 78.5,141.5C 77.5,141.5 76.5,141.5 75.5,141.5C 75.5,137.5 75.5,133.5 75.5,129.5 Z"/></g>
<g><path style="opacity:1" fill="#87816f" d="M 185.5,129.5 C 186.5,129.5 187.5,129.5 188.5,129.5C 188.5,133.5 188.5,137.5 188.5,141.5C 187.5,141.5 186.5,141.5 185.5,141.5C 185.5,137.5 185.5,133.5 185.5,129.5 Z"/></g>
<g><path style="opacity:1" fill="#544b2d" d="M 25.5,129.5 C 32.9897,128.302 35.823,131.302 34,138.5C 33.2917,139.381 32.4584,140.047 31.5,140.5C 29.5,140.5 27.5,140.5 25.5,140.5C 25.5,136.833 25.5,133.167 25.5,129.5 Z"/></g>
<g><path style="opacity:1" fill="#fafafa" d="M 27.5,131.5 C 30.5904,130.83 32.257,131.997 32.5,135C 32.2515,138.082 30.5849,139.582 27.5,139.5C 27.5,136.833 27.5,134.167 27.5,131.5 Z"/></g>
<g><path style="opacity:1" fill="#403615" d="M 42.5,139.5 C 41.4324,140.434 40.099,140.768 38.5,140.5C 37.2706,137.865 37.2706,135.199 38.5,132.5C 39.4742,134.743 39.8076,137.076 39.5,139.5C 40.5,139.5 41.5,139.5 42.5,139.5 Z"/></g>
<g><path style="opacity:1" fill="#3d330f" d="M 44.5,132.5 C 44.6641,135.187 44.4974,137.854 44,140.5C 43.6174,139.944 43.1174,139.611 42.5,139.5C 43.0654,137.048 43.7321,134.715 44.5,132.5 Z"/></g>
<g><path style="opacity:1" fill="#463b1a" d="M 67.5,139.5 C 66.8826,139.611 66.3826,139.944 66,140.5C 65.1747,136.789 65.3414,133.122 66.5,129.5C 67.3857,130.325 67.719,131.325 67.5,132.5C 72.849,132.197 74.5157,134.531 72.5,139.5C 70.7015,140.788 69.0348,140.788 67.5,139.5 Z"/></g>
<g><path style="opacity:1" fill="#4f4528" d="M 115.5,129.5 C 116.675,129.281 117.675,129.614 118.5,130.5C 119.704,133.739 121.038,136.906 122.5,140C 120.658,139.421 118.658,138.921 116.5,138.5C 115.006,138.709 113.839,139.376 113,140.5C 113.293,136.771 114.126,133.104 115.5,129.5 Z"/></g>
<g><path style="opacity:1" fill="#e4e3e1" d="M 116.5,131.5 C 117.339,132.641 118.006,133.974 118.5,135.5C 117.277,136.614 115.944,136.781 114.5,136C 115.582,134.67 116.249,133.17 116.5,131.5 Z"/></g>
<g><path style="opacity:1" fill="#4c4229" d="M 125.5,129.5 C 128.797,129.329 129.131,129.995 126.5,131.5C 127.025,132.192 127.692,132.692 128.5,133C 127.004,135.201 126.004,137.701 125.5,140.5C 123.717,136.585 123.717,132.918 125.5,129.5 Z"/></g>
<g><path style="opacity:1" fill="#52482d" d="M 147.5,132.5 C 149.225,133.278 150.891,133.611 152.5,133.5C 150.205,135.2 148.872,137.534 148.5,140.5C 147.52,137.914 147.187,135.247 147.5,132.5 Z"/></g>
<g><path style="opacity:1" fill="#4a4023" d="M 59.5,139.5 C 58.0813,140.451 56.4147,140.784 54.5,140.5C 54.238,139.022 54.5713,137.689 55.5,136.5C 62.169,134.524 62.169,133.858 55.5,134.5C 54.3044,134.154 54.3044,133.654 55.5,133C 62.2432,131.47 64.2432,133.97 61.5,140.5C 60.8165,140.137 60.1499,139.804 59.5,139.5 Z"/></g>
<g><path style="opacity:1" fill="#f1f1f0" d="M 67.5,139.5 C 67.0508,137.023 67.7175,135.023 69.5,133.5C 71.3837,134.693 71.8837,136.359 71,138.5C 69.9887,139.337 68.8221,139.67 67.5,139.5 Z"/></g>
<g><path style="opacity:1" fill="#3d3312" d="M 132.5,129.5 C 135.797,129.329 136.131,129.995 133.5,131.5C 134.025,132.192 134.692,132.692 135.5,133C 134.004,135.201 133.004,137.701 132.5,140.5C 130.717,136.585 130.717,132.918 132.5,129.5 Z"/></g>
<g><path style="opacity:1" fill="#493f1f" d="M 138.5,132.5 C 145.004,132.138 146.671,134.638 143.5,140C 137.593,140.746 135.927,138.246 138.5,132.5 Z"/></g>
<g><path style="opacity:1" fill="#e2e1de" d="M 140.5,133.5 C 142.484,133.484 143.484,134.484 143.5,136.5C 143.566,138.266 142.732,139.266 141,139.5C 137.897,137.888 137.73,135.888 140.5,133.5 Z"/></g>
<g><path style="opacity:1" fill="#504626" d="M 159.5,133.5 C 156.003,133.995 155.003,135.828 156.5,139C 157.448,139.483 158.448,139.649 159.5,139.5C 158.432,140.434 157.099,140.768 155.5,140.5C 152.401,136.896 153.068,134.229 157.5,132.5C 158.416,132.543 159.083,132.876 159.5,133.5 Z"/></g>
<g><path style="opacity:1" fill="#dbdad6" d="M 159.5,133.5 C 160.833,135.5 160.833,137.5 159.5,139.5C 158.448,139.649 157.448,139.483 156.5,139C 155.003,135.828 156.003,133.995 159.5,133.5 Z"/></g>
<g><path style="opacity:1" fill="#52482c" d="M 86.5,133.5 C 88.0481,133.821 88.7148,134.821 88.5,136.5C 86.396,136.201 84.396,136.534 82.5,137.5C 83.7476,139.69 85.4143,140.023 87.5,138.5C 88.6956,138.846 88.6956,139.346 87.5,140C 81.9057,141.913 79.739,140.08 81,134.5C 82.6779,132.447 84.5112,132.113 86.5,133.5 Z"/></g>
<g><path style="opacity:1" fill="#efeeed" d="M 86.5,133.5 C 85.7961,135.344 84.4628,135.844 82.5,135C 83.5634,133.812 84.8967,133.312 86.5,133.5 Z"/></g>
<g><path style="opacity:1" fill="#3f3511" d="M 161.5,129.5 C 161.665,133.182 161.499,136.848 161,140.5C 160.617,139.944 160.117,139.611 159.5,139.5C 160.833,137.5 160.833,135.5 159.5,133.5C 160.167,132.167 160.833,130.833 161.5,129.5 Z"/></g>
<g><path style="opacity:1" fill="#463b1a" d="M 178.5,133.5 C 179.884,132.199 181.384,132.199 183,133.5C 183.758,135.769 183.591,137.936 182.5,140C 180.141,140.208 177.974,140.374 176,140.5C 175.175,136.789 175.341,133.122 176.5,129.5C 177.172,130.949 177.839,132.282 178.5,133.5 Z"/></g>
<g><path style="opacity:1" fill="#f6f6f5" d="M 178.5,133.5 C 180.484,133.484 181.484,134.484 181.5,136.5C 180.167,140.5 178.833,140.5 177.5,136.5C 177.685,135.416 178.018,134.416 178.5,133.5 Z"/></g>
<g><path style="opacity:1" fill="#4d4223" d="M 48.5,132.5 C 50.5567,134.857 50.89,137.524 49.5,140.5C 48.52,137.914 48.1866,135.247 48.5,132.5 Z"/></g>
<g><path style="opacity:1" fill="#f7f7f6" d="M 59.5,139.5 C 57.6453,139.728 56.8119,139.061 57,137.5C 59.8076,136.14 60.6409,136.807 59.5,139.5 Z"/></g>
<g><path style="opacity:1" fill="#4a4021" d="M 101.5,130.5 C 102.799,132.153 102.466,133.653 100.5,135C 102.324,137.081 103.991,136.915 105.5,134.5C 105.833,134.833 106.167,135.167 106.5,135.5C 105.833,136.5 105.167,137.5 104.5,138.5C 105.025,139.192 105.692,139.692 106.5,140C 103.01,140.235 99.3437,140.235 95.5,140C 93.9157,137.175 94.5824,135.008 97.5,133.5C 96.6744,132.549 96.5078,131.549 97,130.5C 98.6155,129.199 100.116,129.199 101.5,130.5 Z"/></g>
<g><path style="opacity:1" fill="#eeedec" d="M 97.5,135.5 C 99.3841,135.712 100.717,136.712 101.5,138.5C 97.6723,140.252 96.3389,139.252 97.5,135.5 Z"/></g>
<g><path style="opacity:1" fill="#ddddd9" d="M 101.5,130.5 C 101.048,133.674 100.048,134.007 98.5,131.5C 99.325,130.614 100.325,130.281 101.5,130.5 Z"/></g>
<g><path style="opacity:1" fill="#51472a" d="M 166.5,133.5 C 168.223,132.193 170.057,132.193 172,133.5C 172.497,135.81 172.663,138.143 172.5,140.5C 170.738,140.357 169.071,140.691 167.5,141.5C 164.177,140.062 163.844,138.229 166.5,136C 171.797,134.866 171.797,134.032 166.5,133.5 Z"/></g>
<g><path style="opacity:1" fill="#f3f2f1" d="M 167.5,136.5 C 169.355,136.272 170.188,136.939 170,138.5C 167.192,139.86 166.359,139.193 167.5,136.5 Z"/></g>
<g><path style="opacity:1" fill="#4d4225" d="M 192.5,132.5 C 196.241,131.599 198.241,132.932 198.5,136.5C 196.396,136.201 194.396,136.534 192.5,137.5C 193.748,139.69 195.414,140.023 197.5,138.5C 198.696,138.846 198.696,139.346 197.5,140C 190.683,140.861 189.016,138.361 192.5,132.5 Z"/></g>
<g><path style="opacity:1" fill="#ececea" d="M 193.5,133.5 C 194.675,133.281 195.675,133.614 196.5,134.5C 195.277,135.614 193.944,135.781 192.5,135C 193.056,134.617 193.389,134.117 193.5,133.5 Z"/></g>
<g><path style="opacity:1" fill="#b7b4ac" d="M 44.5,132.5 C 45.4767,135.287 45.81,138.287 45.5,141.5C 42.9407,141.802 40.6074,141.468 38.5,140.5C 40.099,140.768 41.4324,140.434 42.5,139.5C 43.1174,139.611 43.6174,139.944 44,140.5C 44.4974,137.854 44.6641,135.187 44.5,132.5 Z"/></g>
<g><path style="opacity:1" fill="#bebcb5" d="M 161.5,129.5 C 162.483,133.298 162.817,137.298 162.5,141.5C 159.941,141.802 157.607,141.468 155.5,140.5C 157.099,140.768 158.432,140.434 159.5,139.5C 160.117,139.611 160.617,139.944 161,140.5C 161.499,136.848 161.665,133.182 161.5,129.5 Z"/></g>
</svg>
