<svg width="512" height="512" viewBox="0 0 512 512" fill="none" xmlns="http://www.w3.org/2000/svg">
<g clip-path="url(#clip0_56_65)">
<path opacity="0.945" fill-rule="evenodd" clip-rule="evenodd" d="M439.5 -0.5C448.5 -0.5 457.5 -0.5 466.5 -0.5C477.064 1.44501 486.73 5.61168 495.5 12C503.938 21.3756 509.272 32.2089 511.5 44.5C511.5 53.1667 511.5 61.8333 511.5 70.5C509.649 80.5506 505.815 89.8839 500 98.5C473.5 123.667 447 148.833 420.5 174C414.211 177.744 408.378 177.244 403 172.5C401 168.167 401 163.833 403 159.5C427.355 135.422 452.189 111.922 477.5 89C486.007 80.4897 490.007 70.1564 489.5 58C489.888 47.2025 486.888 37.5358 480.5 29C465.506 20.628 449.84 19.2946 433.5 25C431.004 26.0804 428.67 27.4138 426.5 29C394.167 63.3333 361.833 97.6667 329.5 132C316.604 140.363 302.937 141.696 288.5 136C205.722 118.244 122.889 100.744 39.9999 83.5C34.4072 84.7612 31.2405 88.2612 30.4999 94C31.1187 97.57 32.7854 100.57 35.4999 103C95.6748 135.255 156.008 167.255 216.5 199C230.334 209.84 234.5 223.673 229 240.5C227.503 244.165 225.503 247.498 223 250.5C185.167 291 147.333 331.5 109.5 372C105.961 373.504 102.295 373.837 98.4999 373C77.8332 364 57.1666 355 36.4999 346C26.1597 344.675 21.3263 349.175 21.9999 359.5C23.0457 361.09 24.2124 362.59 25.4999 364C50.2817 381.781 74.7817 399.948 98.9999 418.5C116.167 441.667 133.333 464.833 150.5 488C161.246 490.93 166.413 486.763 166 475.5C157 454.833 148 434.167 139 413.5C136.325 406.329 138.158 400.496 144.5 396C161.5 380.333 178.5 364.667 195.5 349C205.249 344.598 211.249 347.598 213.5 358C213.385 360.732 212.552 363.232 211 365.5C194.353 380.313 178.187 395.646 162.5 411.5C170.333 429.167 178.167 446.833 186 464.5C192.902 487.356 185.402 503.023 163.5 511.5C158.167 511.5 152.833 511.5 147.5 511.5C140.639 509.141 134.805 505.141 130 499.5C114.026 477.359 97.8596 455.359 81.4999 433.5C56.1915 414.692 31.0248 395.692 5.99991 376.5C3.53598 372.566 1.36932 368.566 -0.500092 364.5C-0.500092 358.833 -0.500092 353.167 -0.500092 347.5C8.69053 325.589 24.6905 318.423 47.4999 326C65.0743 333.705 82.5743 341.538 99.9999 349.5C135.333 311.5 170.667 273.5 206 235.5C210.817 228.258 209.65 222.091 202.5 217C142.008 185.255 81.6748 153.255 21.4999 121C8.62658 109.006 5.45991 94.8397 11.9999 78.5C19.8201 64.5081 31.6534 59.0081 47.4999 62C132.528 79.8722 217.528 97.8722 302.5 116C306.594 116.767 310.594 116.434 314.5 115C346.833 80.6667 379.167 46.3333 411.5 12C419.99 5.78758 429.323 1.62091 439.5 -0.5Z" fill="#442359"/>
<path opacity="0.952" fill-rule="evenodd" clip-rule="evenodd" d="M511.5 258.5C511.5 295.167 511.5 331.833 511.5 368.5C504.861 406.66 487.194 438.826 458.5 465C437.335 483.75 414.001 499.25 388.5 511.5C385.167 511.5 381.833 511.5 378.5 511.5C352.999 499.25 329.665 483.75 308.5 465C285.476 444.295 269.309 419.129 260 389.5C258.128 382.604 256.795 375.604 256 368.5C255.013 331.082 255.346 293.749 257 256.5C258.731 254.383 260.898 252.883 263.5 252C303.432 238.522 343.432 225.356 383.5 212.5C423.568 225.356 463.568 238.522 503.5 252C506.961 253.305 509.628 255.471 511.5 258.5ZM381.5 235.5C417.299 246.822 452.965 258.655 488.5 271C489.163 286.427 489.496 301.927 489.5 317.5C495.994 361.29 485.16 399.957 457 433.5C435.807 456.337 411.307 474.67 383.5 488.5C347.777 471.612 318.61 446.945 296 414.5C287.548 400.925 281.881 386.259 279 370.5C277.884 352.866 277.384 335.199 277.5 317.5C277.504 301.927 277.837 286.427 278.5 271C313.043 259.431 347.377 247.598 381.5 235.5Z" fill="#442359"/>
<path opacity="0.938" fill-rule="evenodd" clip-rule="evenodd" d="M443.5 308.5C455.7 308.191 460.2 313.857 457 325.5C430.833 351.667 404.667 377.833 378.5 404C372.559 406.355 367.392 405.188 363 400.5C348.667 382.167 334.333 363.833 320 345.5C317.613 336.559 320.946 331.226 330 329.5C332.634 329.934 335.134 330.767 337.5 332C349.69 346.689 361.69 361.522 373.5 376.5C396.576 353.421 419.91 330.755 443.5 308.5Z" fill="#442359"/>
</g>
<defs>
<clipPath id="clip0_56_65">
<rect width="512" height="512" fill="white"/>
</clipPath>
</defs>
</svg>
