<svg width="519" height="519" viewBox="0 0 519 519" fill="none" xmlns="http://www.w3.org/2000/svg">
<g filter="url(#filter0_d_56_42)">
<path opacity="0.92" fill-rule="evenodd" clip-rule="evenodd" d="M196.714 18.8936C221.794 17.5609 243.363 25.4994 261.42 42.7089C290.401 18.0946 322.123 13.9931 356.582 30.4043C389.078 50.8267 402.21 80.1608 395.979 118.407C392.639 132.686 386.147 145.271 376.503 156.165C338.84 193.222 300.875 229.915 262.61 266.242C259.136 267.015 255.806 266.639 252.623 265.116C216.256 227.823 179.888 190.529 143.521 153.235C120.496 123.493 117.561 91.7869 134.716 58.1173C149.325 35.4768 169.991 22.4023 196.714 18.8936ZM198.5 35.9174C222.079 35.1664 241.305 43.9087 256.175 62.1445C259.483 64.1863 262.816 64.2282 266.174 62.2702C290.81 35.8055 319.209 30.8288 351.369 47.3401C378.216 67.3001 386.39 93.2382 375.892 125.155C373.328 130.78 370.262 136.075 366.692 141.04C330.901 176.107 294.96 210.991 258.868 245.693C223.659 210.094 188.606 174.318 153.709 138.362C136.8 113.253 136.453 87.9134 152.664 62.3432C164.461 47.3612 179.74 38.5525 198.5 35.9174ZM252.817 90.6046C258.15 90.6716 263.483 90.7387 268.816 90.8057C268.24 100.904 268.614 110.91 269.938 120.822C270.68 121.458 271.508 121.968 272.419 122.353C281.739 122.971 291.071 123.254 300.411 123.205C300.344 128.538 300.277 133.872 300.21 139.204C290.111 138.628 280.106 139.002 270.193 140.327C269.558 141.069 269.047 141.897 268.662 142.808C268.045 152.128 267.761 161.459 267.81 170.799C262.477 170.732 257.144 170.665 251.811 170.598C252.387 160.5 252.013 150.494 250.688 140.582C249.946 139.946 249.119 139.436 248.208 139.05C238.888 138.433 229.556 138.15 220.216 138.198C220.283 132.866 220.35 127.532 220.417 122.2C230.516 122.776 240.521 122.401 250.434 121.077C251.069 120.335 251.579 119.507 251.965 118.596C252.582 109.276 252.866 99.9452 252.817 90.6046Z" fill="#442359"/>
<path opacity="0.988" fill-rule="evenodd" clip-rule="evenodd" d="M241.019 74.4549C255.122 74.1673 269.114 74.8433 282.997 76.4828C283.613 77.241 284.103 78.0807 284.465 79.0015C284.848 88.3344 284.897 97.6691 284.613 107.006C294.723 106.684 304.716 107.309 314.592 108.883C315.209 109.64 315.698 110.481 316.06 111.401C316.56 124.742 316.392 138.075 315.558 151.398C315.172 152.309 314.662 153.137 314.026 153.879C304.114 155.204 294.108 155.578 284.01 155.002C284.332 165.112 283.706 175.105 282.133 184.981C281.375 185.597 280.535 186.087 279.614 186.449C266.274 186.948 252.941 186.781 239.617 185.946C238.706 185.561 237.878 185.05 237.136 184.415C235.812 174.502 235.438 164.497 236.014 154.398C225.904 154.72 215.911 154.095 206.035 152.521C205.418 151.763 204.929 150.923 204.566 150.003C204.067 136.662 204.235 123.329 205.069 110.006C205.455 109.095 205.965 108.267 206.601 107.525C216.513 106.2 226.519 105.826 236.617 106.402C236.568 97.0615 236.852 87.731 237.469 78.4106C238.182 76.5692 239.365 75.2506 241.019 74.4549ZM252.817 90.6045C252.866 99.9452 252.582 109.276 251.965 118.596C251.579 119.507 251.069 120.335 250.434 121.077C240.521 122.401 230.516 122.776 220.417 122.2C220.35 127.532 220.283 132.866 220.216 138.198C229.556 138.15 238.888 138.433 248.208 139.05C249.119 139.436 249.946 139.946 250.688 140.582C252.013 150.494 252.387 160.5 251.811 170.598C257.144 170.665 262.477 170.732 267.81 170.799C267.761 161.459 268.045 152.128 268.662 142.808C269.047 141.897 269.558 141.069 270.193 140.327C280.106 139.002 290.111 138.628 300.21 139.204C300.277 133.872 300.344 128.538 300.411 123.205C291.071 123.254 281.739 122.971 272.419 122.353C271.508 121.968 270.68 121.458 269.938 120.822C268.614 110.91 268.24 100.904 268.816 90.8057C263.483 90.7386 258.15 90.6716 252.817 90.6045Z" fill="#442359"/>
<path opacity="0.953" fill-rule="evenodd" clip-rule="evenodd" d="M66.5551 110.265C80.7642 109.959 91.5254 115.762 98.8388 127.672C111.118 164.21 123.494 200.701 135.965 237.147C160.977 252.496 186.123 267.646 211.4 282.599C227.888 294.804 237.85 311.098 241.288 331.479C241.423 360.481 241.226 389.48 240.694 418.478C244.159 418.168 246.642 419.532 248.143 422.572C248.812 447.336 248.169 471.997 246.213 496.554C245.455 497.17 244.615 497.66 243.694 498.022C203.689 498.186 163.692 497.683 123.704 496.513C122.793 496.128 121.965 495.618 121.223 494.982C119.885 470.384 119.862 445.715 121.153 420.975C122.73 417.974 125.247 416.673 128.703 417.07C129.027 409.026 128.628 401.021 127.505 393.053C126.736 390.097 125.437 387.415 123.606 385.003C103.175 366.078 82.745 347.154 62.3146 328.228C60.1049 324.693 58.1511 321.003 56.4534 317.154C43.8428 269.665 31.9409 222.011 20.7478 174.194C21.96 161.753 27.7477 152.159 38.111 145.41C37.8118 125.783 47.2931 114.069 66.5551 110.265ZM67.3413 127.276C75.5385 127.39 81.3252 131.129 84.7016 138.495C95.4445 170.222 105.879 202.023 116.005 233.896C112.622 234.312 109.28 234.937 105.98 235.77C98.7551 210.162 90.9076 184.729 82.4378 159.468C76.5751 149.988 68.1449 144.381 57.1472 142.649C56.0774 141.961 55.4233 140.953 55.1851 139.624C57.0908 133.322 61.1429 129.206 67.3413 127.276ZM50.9402 159.072C59.1375 159.186 64.9242 162.925 68.3006 170.291C76.2818 196.317 84.4564 222.255 92.8243 248.106C84.5736 263.422 86.3974 277.446 98.2958 290.178C115.001 300.641 131.874 310.854 148.915 320.817C159.421 322.757 163.306 318.638 160.571 308.462C145.607 298.476 130.224 289.116 114.42 280.38C102.984 272.712 101.764 263.696 110.76 253.332C113.731 251.608 116.912 250.481 120.303 249.951C125.061 251.146 129.537 253.036 133.733 255.621C156.231 269.237 178.727 282.855 201.225 296.472C216.737 308.149 224.709 323.751 225.138 343.277C225.324 368.279 225.177 393.279 224.695 418.277C198.03 417.942 171.367 417.606 144.702 417.271C144.981 408.268 144.928 399.267 144.541 390.267C142.482 382.42 138.734 375.538 133.3 369.624C117.806 355.761 102.313 341.899 86.8189 328.036C82.0092 323.444 77.5703 318.553 73.5023 313.368C61.2667 267.287 49.346 221.134 37.7401 174.907C39.3024 167.14 43.7024 161.862 50.9402 159.072ZM136.501 433.169C168.499 433.572 200.496 433.974 232.494 434.376C232.292 450.375 232.091 466.374 231.89 482.372C199.893 481.97 167.895 481.568 135.898 481.166C136.099 465.167 136.3 449.168 136.501 433.169Z" fill="#442359"/>
<path opacity="0.952" fill-rule="evenodd" clip-rule="evenodd" d="M447.525 115.054C470.556 116.22 482.073 128.199 482.076 150.991C495.281 160.298 500.289 172.862 497.103 188.683C484.457 235.044 471.209 281.214 457.359 327.195C454.212 332.243 450.322 336.695 445.69 340.549C427.229 356.367 408.861 372.305 390.585 388.36C388.694 390.724 387.327 393.373 386.484 396.309C385.161 404.246 384.561 412.239 384.683 420.288C388.148 419.978 390.631 421.342 392.132 424.382C392.801 449.147 392.157 473.808 390.202 498.364C389.444 498.98 388.604 499.47 387.683 499.832C347.678 499.996 307.681 499.494 267.692 498.324C266.781 497.938 265.954 497.428 265.212 496.792C263.874 472.195 263.851 447.525 265.142 422.786C266.719 419.784 269.235 418.483 272.692 418.88C272.889 389.879 273.421 360.883 274.285 331.894C278.023 311.459 288.392 295.421 305.393 283.781C331.038 269.468 356.556 254.955 381.946 240.24C395.33 204.119 408.619 167.95 421.813 131.732C427.731 121.998 436.302 116.438 447.525 115.054ZM449.311 132.078C457.501 132.77 462.781 137.004 465.153 144.778C464.809 145.607 464.465 146.437 464.121 147.265C452.698 148.899 443.794 154.454 437.41 163.931C428.421 189.006 419.936 214.235 411.956 239.617C408.678 238.702 405.353 237.993 401.982 237.491C412.906 205.883 424.137 174.355 435.674 142.907C438.367 136.813 442.912 133.204 449.311 132.078ZM464.908 164.277C474.759 165.264 480.358 170.667 481.705 180.489C468.94 226.414 455.862 272.253 442.473 318.007C438.276 323.088 433.715 327.865 428.792 332.336C410.546 347.376 392.849 362.987 375.699 379.172C373.092 383.575 371.034 388.215 369.523 393.096C368.91 402.083 368.631 411.08 368.684 420.087C342.019 419.752 315.355 419.417 288.69 419.081C288.838 394.079 289.319 369.083 290.133 344.094C291.053 324.585 299.415 309.189 315.216 297.905C338.719 284.533 362.223 271.161 385.726 257.789C394.121 251.562 401.947 252.16 409.205 259.584C414.881 269.911 412.611 278.05 402.397 284C386.379 292.337 370.765 301.307 355.555 310.914C352.565 321.018 356.345 325.233 366.897 323.557C384.184 314.026 401.308 304.24 418.27 294.201C430.482 281.811 432.658 267.837 424.798 252.279C433.813 226.648 442.637 200.923 451.27 175.106C453.963 169.011 458.509 165.402 464.908 164.277ZM280.49 434.98C312.487 435.382 344.485 435.784 376.482 436.187C376.281 452.185 376.08 468.184 375.879 484.183C343.881 483.78 311.884 483.378 279.886 482.976C280.087 466.977 280.289 450.978 280.49 434.98Z" fill="#442359"/>
</g>
<defs>
<filter id="filter0_d_56_42" x="-4.00012" y="0" width="526.396" height="526.396" filterUnits="userSpaceOnUse" color-interpolation-filters="sRGB">
<feFlood flood-opacity="0" result="BackgroundImageFix"/>
<feColorMatrix in="SourceAlpha" type="matrix" values="0 0 0 0 0 0 0 0 0 0 0 0 0 0 0 0 0 0 127 0" result="hardAlpha"/>
<feOffset dy="4"/>
<feGaussianBlur stdDeviation="2"/>
<feComposite in2="hardAlpha" operator="out"/>
<feColorMatrix type="matrix" values="0 0 0 0 0 0 0 0 0 0 0 0 0 0 0 0 0 0 0.25 0"/>
<feBlend mode="normal" in2="BackgroundImageFix" result="effect1_dropShadow_56_42"/>
<feBlend mode="normal" in="SourceGraphic" in2="effect1_dropShadow_56_42" result="shape"/>
</filter>
</defs>
</svg>
