<?xml version="1.0" encoding="utf-8"?>
<!-- Generator: Adobe Illustrator 19.0.0, SVG Export Plug-In . SVG Version: 6.00 Build 0)  -->
<svg version="1.1" id="layer" xmlns="http://www.w3.org/2000/svg" xmlns:xlink="http://www.w3.org/1999/xlink" x="0px" y="0px"
	 viewBox="-153 -46 652 652" style="enable-background:new -153 -46 652 652;" xml:space="preserve">
<style type="text/css">
	.st0{fill:#442359;}
	.st1{fill:#FFFFFF;}
	.st2{fill:#F05B24;}
</style>
<rect x="-126.7" y="128.1" class="st0" width="600" height="303"/>
<path class="st1" d="M369.4,321.7c-1.4-0.4-2.6,0.4-2.8,1.2c-1.7,6.5-4,10.1-9.2,9.7c-9.6-1.2-9.1-21.6-9.1-30.5
	c0-33.9,1-74.9,1-76.5c0-1.4-1.5-2.4-7.2-3.8c-3.4-0.8-5.3-1.1-6.2-1.1c-1.9,0-3.8,1.6-3.8,3.6v44.6c-4.3-4.7-9.9-7.7-17-7.7
	c-34.6-0.4-40.1,76.7-5.2,81.5c11.9,1.6,20.5-4.6,25.9-14.2c4.1,10.6,10.5,13.6,15,14.5c3.2,0.6,13.7-0.4,18.8-11.1
	C371.5,327.9,372.4,322.7,369.4,321.7 M318.6,332.7c-23.1,0-17.8-58.9,0.6-58.7c7.8,0.1,12.5,10,13,22.9
	C332.8,317.9,329.7,332.7,318.6,332.7 M276.3,261.2c-14,2.2-20,21.6-20,24.2v-16.9c0-1.4-1.5-2.3-7.2-3.8c-3.4-0.8-5.3-1.1-6.2-1.1
	c-1.9,0-3.8,1.6-3.8,3.6v40.2c-0.1,0.7-0.1,1.3-0.2,2c-1,11.5-2.1,23-9.6,23c-10,0-7-21-6.9-29.9c0.4-27.8,1-34,1-34.1
	c0-1.4-1.5-2.4-7.2-3.8c-3.4-0.8-5.3-1.2-6.2-1.2c-1.9,0-3.8,1.6-3.8,3.6v2.7c-4.4-5.2-10.3-8.5-17.8-8.6
	c-23.9-0.3-34,36.5-26.3,60.8c-1.1,6.4-3.5,11.2-9.6,10.7c-9.6-1.2-9.1-21.6-9.1-30.5c0-33.9,1-76.4,1-76.5c0-1.4-1.5-2.4-7.2-3.8
	c-3.4-0.8-5.3-1.1-6.2-1.1c-1.9,0-3.8,1.6-3.8,3.6v73.9c-0.2,7.4,0.1,13.5,0.9,18.7c-1.6,8.9-4.8,16.2-11.3,15.7
	c-9.6-1.2-9.1-21.6-9.1-30.5c0-33.9,1-76.4,1-76.5c0-1.4-1.5-2.4-7.2-3.8c-3.4-0.8-5.3-1.1-6.2-1.1c-1.9,0-3.8,1.6-3.8,3.6v74.9
	c-1.1,36,11.3,42.7,18.6,43.6c3.7,0.5,16.4-0.7,20.4-15.1c4,11.4,10.7,14.8,15.3,15.2c3,0.3,14.9-0.6,19.6-12.9
	c3.9,6.8,9.7,11.6,17.6,12.6c11.5,1.5,20-4.1,25.5-13c2.8,9.5,7.6,12.3,12.7,13.3c3.8,0.8,12.5,0.1,17.7-8.4v4.1
	c0,1.4,0.5,2.4,6.3,3.8c3.4,0.8,6.3,1.1,7.2,1.1c2,0,3.7-1.6,3.7-3.6v-20.6c0-8.8,5.6-40.9,19.3-41.9c0.9-0.1,2.8,0.1,4.2,0.6
	C290.6,281.7,290.3,258.9,276.3,261.2 M192,332.7c-23.1-0.4-17.8-58.9,0.5-58.7c8.8,0.1,13.1,12.8,13.2,28.2
	C205.8,317.4,202.9,332.9,192,332.7 M55.7,261.1c-34.6-0.4-40.1,75.8-5.2,81.4C94,349.5,97.4,261.6,55.7,261.1 M59.1,332.7
	c-23.1-0.4-16.8-56.7,0.6-58.7C79.1,271.8,81.8,333.1,59.1,332.7 M12,221.8c-3.4-0.8-5.3-1.1-6.2-1.1c-1.9,0-3.8,1.6-3.8,3.6v48.6
	c-10.7-0.3-20.2,0.1-30.9,1.6c0,0-0.1-48.4-0.1-48.9c0-1.4-1.5-2.4-7.2-3.8c-3.4-0.8-5.3-1.1-6.2-1.1c-1.9,0-3.8,1.6-3.8,3.6v53.6
	c-1.2,0.3-6.6,1.5-9.7,2.4c-3.1,1-3.5,3.2-2.5,6.3c1.6,5,7.2,11,10.5,9.6c0.8-0.3,1.7-0.6,1.7-0.6c0,13.1,0.1,22.3,0.1,22.3l0,20.6
	c0,1.4,0.5,2.4,6.2,3.8c3.4,0.8,6.3,1.1,7.2,1.1c1.9,0,3.7-1.6,3.7-3.6v-49.3c12.8-3,22.8-3.8,30.9-4.4v52.4c0,1.4,0.5,2.4,6.3,3.8
	c3.4,0.8,6.3,1.2,7.2,1.2c1.9,0,3.7-1.6,3.7-3.6V225.6C19.3,224.2,17.8,223.2,12,221.8"/>
<path class="st2" d="M394.2,315.9c-6.7-1.2-13.1,4.4-14.4,11.7c-1.3,7.3,3.1,14.1,9.8,15.2c6.6,1.1,13.1-3.8,14.3-11.1
	C405.2,324.5,400.9,317.1,394.2,315.9"/>
</svg>
