<?xml version="1.0" encoding="UTF-8"?>
<!DOCTYPE svg PUBLIC "-//W3C//DTD SVG 1.1//EN" "http://www.w3.org/Graphics/SVG/1.1/DTD/svg11.dtd">
<svg xmlns="http://www.w3.org/2000/svg" version="1.1" width="364px" height="190px" style="shape-rendering:geometricPrecision; text-rendering:geometricPrecision; image-rendering:optimizeQuality; fill-rule:evenodd; clip-rule:evenodd" xmlns:xlink="http://www.w3.org/1999/xlink">
<g><path style="opacity:1" fill="#0d8c44" d="M -0.5,-0.5 C 53.8333,-0.5 108.167,-0.5 162.5,-0.5C 162.5,15.5 162.5,31.5 162.5,47.5C 156.167,47.5 149.833,47.5 143.5,47.5C 136.833,47.5 130.167,47.5 123.5,47.5C 117.167,47.5 110.833,47.5 104.5,47.5C 104.5,76.5 104.5,105.5 104.5,134.5C 69.5,134.5 34.5,134.5 -0.5,134.5C -0.5,89.5 -0.5,44.5 -0.5,-0.5 Z"/></g>
<g><path style="opacity:0.85" fill="#010100" d="M 272.5,85.5 C 270.274,83.82 268.607,84.1534 267.5,86.5C 266.209,86.7373 265.209,86.404 264.5,85.5C 264.5,84.1667 263.833,83.5 262.5,83.5C 262.754,80.9857 263.587,78.6524 265,76.5C 270.688,74.4586 272.688,70.4586 271,64.5C 269.759,66.4206 268.259,66.754 266.5,65.5C 264.407,63.6954 263.24,61.3621 263,58.5C 258.168,61.1994 253.002,62.3661 247.5,62C 245.963,60.8904 245.297,59.3904 245.5,57.5C 240.92,57.9234 236.753,56.9234 233,54.5C 231.215,57.9524 228.715,60.7857 225.5,63C 230.789,65.1061 233.456,68.9394 233.5,74.5C 228.883,74.4607 224.716,73.1273 221,70.5C 220.334,77.1821 217.167,82.1821 211.5,85.5C 211.843,83.5168 211.176,82.1834 209.5,81.5C 209.167,80.1667 208.833,80.1667 208.5,81.5C 208.611,82.1174 208.944,82.6174 209.5,83C 207.881,83.2355 206.881,84.0689 206.5,85.5C 205.5,85.5 204.5,85.5 203.5,85.5C 203.338,83.4727 203.505,81.4727 204,79.5C 207.008,76.1406 209.508,72.4739 211.5,68.5C 211.392,67.5581 211.059,66.7247 210.5,66C 207.807,65.9734 206.473,64.64 206.5,62C 208.126,56.7458 209.459,51.4124 210.5,46C 210.057,44.175 209.723,42.3417 209.5,40.5C 206.15,40.4944 203.15,39.4944 200.5,37.5C 199.673,33.5408 199.173,29.5408 199,25.5C 198.01,22.374 196.844,19.374 195.5,16.5C 193.097,16.607 191.264,15.607 190,13.5C 189.333,10.1667 189.333,6.83333 190,3.5C 197.026,-1.39114 199.193,-0.057804 196.5,7.5C 196.833,8.16667 197.167,8.83333 197.5,9.5C 199.924,8.57714 201.924,7.07714 203.5,5C 206.099,4.23101 208.599,4.39768 211,5.5C 211.519,4.48444 212.353,3.81777 213.5,3.5C 217.214,4.19127 220.548,5.69127 223.5,8C 225.134,8.49351 226.801,8.66018 228.5,8.5C 228.425,5.79384 228.092,3.12717 227.5,0.5C 234.005,1.02125 236.005,4.35459 233.5,10.5C 241.297,12.5988 248.63,15.7655 255.5,20C 265.049,21.1696 274.549,22.3362 284,23.5C 285.14,20.4718 284.306,18.3051 281.5,17C 278.833,16.3333 276.167,16.3333 273.5,17C 270.644,17.8798 267.811,18.7131 265,19.5C 260.937,18.2154 256.77,17.0488 252.5,16C 251.14,14.0624 251.473,12.3957 253.5,11C 256.107,10.1816 258.774,9.68156 261.5,9.5C 268.486,10.1756 275.486,10.6756 282.5,11C 289.647,13.4483 292.481,18.2817 291,25.5C 290.308,26.0253 289.808,26.6919 289.5,27.5C 294.332,36.1311 296.499,45.4644 296,55.5C 305.967,65.0401 306.801,75.2068 298.5,86C 294.833,86.6667 291.167,86.6667 287.5,86C 286.289,84.8869 286.289,83.7202 287.5,82.5C 290.167,80.5 292.5,78.1667 294.5,75.5C 293.96,74.2519 293.293,73.0852 292.5,72C 292.833,71.6667 293.167,71.3333 293.5,71C 291.257,68.5329 288.59,66.6996 285.5,65.5C 281.669,72.4951 277.336,79.1618 272.5,85.5 Z M 221.5,18.5 C 222.251,17.4265 223.251,17.2599 224.5,18C 223.648,19.7284 222.648,19.895 221.5,18.5 Z M 213.5,20.5 C 214.376,20.3691 215.043,20.7025 215.5,21.5C 214.523,24.7879 213.023,27.7879 211,30.5C 210.674,27.6677 211.174,25.001 212.5,22.5C 212.833,21.8333 213.167,21.1667 213.5,20.5 Z M 208.5,32.5 C 211.293,32.74 211.793,33.74 210,35.5C 208.961,34.7562 208.461,33.7562 208.5,32.5 Z M 233.5,48.5 C 233.56,47.9569 233.893,47.6236 234.5,47.5C 235.795,48.0983 237.128,48.5983 238.5,49C 236.735,49.6397 235.068,49.4731 233.5,48.5 Z"/></g>
<g><path style="opacity:1" fill="#9c6729" d="M 156.5,18.5 C 156.428,16.6891 155.595,15.3557 154,14.5C 151.901,15.2865 149.734,15.6199 147.5,15.5C 150.575,13.8058 153.908,12.9725 157.5,13C 158.98,15.2345 158.647,17.0679 156.5,18.5 Z"/></g>
<g><path style="opacity:0.235" fill="#587d7d" d="M 213.5,20.5 C 213.167,21.1667 212.833,21.8333 212.5,22.5C 209.814,21.0119 210.147,20.3453 213.5,20.5 Z"/></g>
<g><path style="opacity:1" fill="#c26524" d="M 147.5,15.5 C 149.734,15.6199 151.901,15.2865 154,14.5C 155.595,15.3557 156.428,16.6891 156.5,18.5C 156.586,19.4959 156.252,20.3292 155.5,21C 149.579,24.1283 143.579,26.9616 137.5,29.5C 137.5,31.1667 137.5,32.8333 137.5,34.5C 135.143,34.6633 132.81,34.4966 130.5,34C 131.423,31.9592 131.756,29.7925 131.5,27.5C 123.302,26.232 115.969,23.0653 109.5,18C 108.941,17.2753 108.608,16.4419 108.5,15.5C 109.779,14.4555 111.112,13.4555 112.5,12.5C 117.587,14.0452 122.587,15.7118 127.5,17.5C 128.509,14.663 130.509,13.3297 133.5,13.5C 133.5,14.8333 133.5,16.1667 133.5,17.5C 138.271,17.4624 142.938,16.7957 147.5,15.5 Z"/></g>
<g><path style="opacity:1" fill="#dcdcd9" d="M 203.5,20.5 C 205.465,20.9483 205.798,21.9483 204.5,23.5C 203.614,22.675 203.281,21.675 203.5,20.5 Z"/></g>
<g><path style="opacity:1" fill="#f37524" d="M 143.5,47.5 C 149.833,47.5 156.167,47.5 162.5,47.5C 162.5,73.8333 162.5,100.167 162.5,126.5C 162.5,128.833 162.5,131.167 162.5,133.5C 156.355,134.49 150.022,134.823 143.5,134.5C 143.5,105.5 143.5,76.5 143.5,47.5 Z"/></g>
<g><path style="opacity:1" fill="#110b09" d="M 123.5,47.5 C 130.167,47.5 136.833,47.5 143.5,47.5C 143.5,76.5 143.5,105.5 143.5,134.5C 136.833,134.5 130.167,134.5 123.5,134.5C 123.5,105.5 123.5,76.5 123.5,47.5 Z"/></g>
<g><path style="opacity:1" fill="#cd2b2a" d="M 123.5,47.5 C 123.5,76.5 123.5,105.5 123.5,134.5C 117.167,134.5 110.833,134.5 104.5,134.5C 104.5,105.5 104.5,76.5 104.5,47.5C 110.833,47.5 117.167,47.5 123.5,47.5 Z"/></g>
<g><path style="opacity:1" fill="#e51e26" d="M 105.5,48.5 C 111.167,48.5 116.833,48.5 122.5,48.5C 122.5,76.8333 122.5,105.167 122.5,133.5C 116.833,133.5 111.167,133.5 105.5,133.5C 105.5,105.167 105.5,76.8333 105.5,48.5 Z"/></g>
<g><path style="opacity:1" fill="#888c8c" d="M 284.5,48.5 C 287.569,48.963 288.069,50.2963 286,52.5C 284.812,51.4366 284.312,50.1033 284.5,48.5 Z"/></g>
<g><path style="opacity:0.941" fill="#4e704e" d="M 269.5,50.5 C 273.243,50.4592 273.41,51.1259 270,52.5C 269.536,51.9056 269.369,51.2389 269.5,50.5 Z"/></g>
<g><path style="opacity:0.941" fill="#616100" d="M 282.5,58.5 C 282.639,56.663 283.306,56.3296 284.5,57.5C 284.043,58.2975 283.376,58.6309 282.5,58.5 Z"/></g>
<g><path style="opacity:1" fill="#51590f" d="M 208.5,81.5 C 208.833,81.5 209.167,81.5 209.5,81.5C 211.176,82.1834 211.843,83.5168 211.5,85.5C 209.833,85.5 208.167,85.5 206.5,85.5C 206.881,84.0689 207.881,83.2355 209.5,83C 208.944,82.6174 208.611,82.1174 208.5,81.5 Z"/></g>
<g><path style="opacity:0.314" fill="#007272" d="M 262.5,83.5 C 263.833,83.5 264.5,84.1667 264.5,85.5C 263.325,85.719 262.325,85.3857 261.5,84.5C 261.624,83.8933 261.957,83.56 262.5,83.5 Z"/></g>
<g><path style="opacity:0.204" fill="#767600" d="M 272.5,85.5 C 271.081,86.4511 269.415,86.7845 267.5,86.5C 268.607,84.1534 270.274,83.82 272.5,85.5 Z"/></g>
<g><path style="opacity:0.931" fill="#000000" d="M 162.5,133.5 C 162.5,131.167 162.5,128.833 162.5,126.5C 166.62,114.044 170.453,101.377 174,88.5C 178.782,87.1977 183.615,87.1977 188.5,88.5C 192.972,103.389 196.972,118.389 200.5,133.5C 195.489,133.666 190.489,133.499 185.5,133C 184.44,130.263 183.606,127.43 183,124.5C 179.214,123.205 175.38,123.205 171.5,124.5C 170.727,127.431 169.727,130.264 168.5,133C 166.527,133.495 164.527,133.662 162.5,133.5 Z M 176.5,102.5 C 178.597,107.429 180.263,112.596 181.5,118C 178.854,118.497 176.187,118.664 173.5,118.5C 174.818,113.227 175.818,107.893 176.5,102.5 Z"/></g>
<g><path style="opacity:0.937" fill="#000000" d="M 201.5,87.5 C 210.839,87.3335 220.173,87.5002 229.5,88C 238.827,90.4868 241.993,96.3201 239,105.5C 237.125,108.187 234.625,110.021 231.5,111C 234.573,111.739 236.74,113.572 238,116.5C 238.474,122.188 239.641,127.688 241.5,133C 235.804,133.83 230.137,133.663 224.5,132.5C 223.902,126.471 223.069,120.471 222,114.5C 220.915,113.707 219.748,113.04 218.5,112.5C 217.503,119.468 217.17,126.468 217.5,133.5C 212.167,133.5 206.833,133.5 201.5,133.5C 201.5,118.167 201.5,102.833 201.5,87.5 Z M 217.5,92.5 C 224.497,94.3568 226.33,98.6901 223,105.5C 221.559,106.26 220.059,106.926 218.5,107.5C 217.506,102.544 217.173,97.544 217.5,92.5 Z"/></g>
<g><path style="opacity:0.934" fill="#000000" d="M 243.5,87.5 C 249.093,87.1934 254.593,87.5268 260,88.5C 261.844,96.2097 263.844,103.876 266,111.5C 267.784,103.528 269.951,95.6946 272.5,88C 283.182,87.1676 293.849,87.3343 304.5,88.5C 307.098,94.4595 309.598,100.459 312,106.5C 314.265,100.538 316.432,94.5381 318.5,88.5C 321.167,87.1667 323.833,87.1667 326.5,88.5C 322.722,97.7237 319.222,107.057 316,116.5C 315.501,122.157 315.334,127.824 315.5,133.5C 310.5,133.5 305.5,133.5 300.5,133.5C 300.666,127.824 300.499,122.157 300,116.5C 296.528,107.752 292.862,99.0851 289,90.5C 288.5,104.829 288.333,119.163 288.5,133.5C 283.167,133.5 277.833,133.5 272.5,133.5C 272.666,125.826 272.5,118.159 272,110.5C 270.461,117.862 268.794,125.196 267,132.5C 263.927,133.617 260.76,133.784 257.5,133C 255.212,124.567 253.045,116.067 251,107.5C 250.5,116.16 250.334,124.827 250.5,133.5C 248.167,133.5 245.833,133.5 243.5,133.5C 243.5,118.167 243.5,102.833 243.5,87.5 Z"/></g>
</svg>
