<?xml version="1.0" encoding="UTF-8"?>
<!DOCTYPE svg PUBLIC "-//W3C//DTD SVG 1.1//EN" "http://www.w3.org/Graphics/SVG/1.1/DTD/svg11.dtd">
<svg xmlns="http://www.w3.org/2000/svg" version="1.1" width="211px" height="90px" style="shape-rendering:geometricPrecision; text-rendering:geometricPrecision; image-rendering:optimizeQuality; fill-rule:evenodd; clip-rule:evenodd" xmlns:xlink="http://www.w3.org/1999/xlink">
<g><path style="opacity:1" fill="#639643" d="M -0.5,-0.5 C 69.8333,-0.5 140.167,-0.5 210.5,-0.5C 210.5,29.5 210.5,59.5 210.5,89.5C 140.167,89.5 69.8333,89.5 -0.5,89.5C -0.5,59.5 -0.5,29.5 -0.5,-0.5 Z"/></g>
<g><path style="opacity:1" fill="#d1dfc6" d="M 205.5,75.5 C 204.209,75.7373 203.209,75.404 202.5,74.5C 204.49,51.8576 205.156,28.8576 204.5,5.5C 138.167,5.5 71.8333,5.5 5.5,5.5C 5.16916,28.6727 5.50249,51.6727 6.5,74.5C 6.15829,75.3382 5.49162,75.6716 4.5,75.5C 4.5,51.8333 4.5,28.1667 4.5,4.5C 71.5,4.5 138.5,4.5 205.5,4.5C 205.5,28.1667 205.5,51.8333 205.5,75.5 Z"/></g>
<g><path style="opacity:1" fill="#fbfbfb" d="M 202.5,74.5 C 186.372,70.7193 170.038,68.0527 153.5,66.5C 151.981,65.5902 150.315,64.7568 148.5,64C 113.223,55.8531 77.8901,55.5198 42.5,63C 34.235,65.4704 26.5683,68.9704 19.5,73.5C 15.1578,73.7395 10.8244,74.0728 6.5,74.5C 5.50249,51.6727 5.16916,28.6727 5.5,5.5C 71.8333,5.5 138.167,5.5 204.5,5.5C 205.156,28.8576 204.49,51.8576 202.5,74.5 Z"/></g>
<g><path style="opacity:1" fill="#242021" d="M 183.5,15.5 C 185.467,15.2606 187.301,15.5939 189,16.5C 193.818,25.771 197.151,35.4376 199,45.5C 197.667,46.8333 196.333,46.8333 195,45.5C 193.589,43.3496 192.755,41.0163 192.5,38.5C 188.116,38.1744 183.783,38.5078 179.5,39.5C 178.786,41.8111 177.786,43.9777 176.5,46C 175.216,46.6838 174.049,46.5171 173,45.5C 174.593,34.8907 178.093,24.8907 183.5,15.5 Z"/></g>
<g><path style="opacity:1" fill="#252122" d="M 53.5,15.5 C 55.3904,15.2965 56.8904,15.9632 58,17.5C 58.3333,24.5 58.6667,31.5 59,38.5C 59.9425,40.9544 61.7759,41.9544 64.5,41.5C 67.815,42.0162 69.9817,40.6829 71,37.5C 71.3333,30.5 71.6667,23.5 72,16.5C 73.6667,15.1667 75.3333,15.1667 77,16.5C 77.6667,23.8333 77.6667,31.1667 77,38.5C 74.9155,44.6551 70.5822,47.3218 64,46.5C 58.7187,46.6932 55.052,44.3599 53,39.5C 52.2004,31.4211 52.3671,23.4211 53.5,15.5 Z"/></g>
<g><path style="opacity:1" fill="#272324" d="M 122.5,15.5 C 124.144,15.2865 125.644,15.6198 127,16.5C 127.667,26.1667 127.667,35.8333 127,45.5C 125.333,46.8333 123.667,46.8333 122,45.5C 121.193,35.4229 121.36,25.4229 122.5,15.5 Z"/></g>
<g><path style="opacity:1" fill="#272324" d="M 94.5,15.5 C 100.701,14.285 105.868,15.9517 110,20.5C 111.08,23.2371 110.246,24.9037 107.5,25.5C 105.376,23.8793 103.376,22.046 101.5,20C 97.9434,18.8991 95.2767,19.8991 93.5,23C 93.7591,24.2613 94.4258,25.2613 95.5,26C 101.395,27.1768 106.562,29.6768 111,33.5C 112.569,38.6253 111.069,42.4586 106.5,45C 98.9537,48.2204 92.787,46.7204 88,40.5C 86.9202,37.7629 87.7536,36.0963 90.5,35.5C 92.4978,36.9667 94.1645,38.8001 95.5,41C 98.9926,42.0037 102.159,41.5037 105,39.5C 105.72,37.8876 105.554,36.3876 104.5,35C 98.4437,34.2107 93.2771,31.7107 89,27.5C 87.3748,21.757 89.2081,17.757 94.5,15.5 Z"/></g>
<g><path style="opacity:1" fill="#e7e6e6" d="M 185.5,22.5 C 187.011,26.1514 188.677,29.8181 190.5,33.5C 187.5,34.8333 184.5,34.8333 181.5,33.5C 182.99,29.8653 184.323,26.1986 185.5,22.5 Z"/></g>
<g><path style="opacity:1" fill="#232021" d="M 139.5,15.5 C 141.144,15.2865 142.644,15.6198 144,16.5C 144.333,20.8333 144.667,25.1667 145,29.5C 149.5,25 154,20.5 158.5,16C 162.088,15.3886 163.254,16.8886 162,20.5C 159.298,22.9071 156.798,25.4071 154.5,28C 157.833,33.3333 161.167,38.6667 164.5,44C 163.591,46.3193 161.925,46.9859 159.5,46C 156.328,41.3354 152.995,36.8354 149.5,32.5C 145.068,35.5855 143.235,39.9188 144,45.5C 142.333,46.8333 140.667,46.8333 139,45.5C 138.193,35.4229 138.36,25.4229 139.5,15.5 Z"/></g>
<g><path style="opacity:1" fill="#221e1f" d="M 36.5,45.5 C 36.6663,38.1591 36.4997,30.8258 36,23.5C 34.9614,24.2438 34.4614,25.2438 34.5,26.5C 30.071,52.5403 25.071,52.8736 19.5,27.5C 19.6882,25.8967 19.1882,24.5634 18,23.5C 17.5004,30.4921 17.3337,37.4921 17.5,44.5C 16.4151,46.5822 14.9151,46.9156 13,45.5C 12.3333,36.1667 12.3333,26.8333 13,17.5C 16,16.1667 19,16.1667 22,17.5C 23.0869,23.6701 24.7536,29.6701 27,35.5C 28.6659,29.5117 30.3326,23.5117 32,17.5C 35,16.1667 38,16.1667 41,17.5C 41.6667,26.8333 41.6667,36.1667 41,45.5C 39.5098,46.7279 38.0098,46.7279 36.5,45.5 Z"/></g>
<g><path style="opacity:1" fill="#878485" d="M 36.5,45.5 C 35.8333,39.1667 35.1667,32.8333 34.5,26.5C 34.4614,25.2438 34.9614,24.2438 36,23.5C 36.4997,30.8258 36.6663,38.1591 36.5,45.5 Z"/></g>
<g><path style="opacity:1" fill="#8e8c8c" d="M 19.5,27.5 C 18.8333,33.1667 18.1667,38.8333 17.5,44.5C 17.3337,37.4921 17.5004,30.4921 18,23.5C 19.1882,24.5634 19.6882,25.8967 19.5,27.5 Z"/></g>
<g><path style="opacity:1" fill="#e3edbf" d="M 153.5,66.5 C 139.48,66.411 125.48,66.911 111.5,68C 97.5122,69.8327 83.5122,71.3327 69.5,72.5C 52.8006,71.1508 36.134,71.4841 19.5,73.5C 26.5683,68.9704 34.235,65.4704 42.5,63C 77.8901,55.5198 113.223,55.8531 148.5,64C 150.315,64.7568 151.981,65.5902 153.5,66.5 Z"/></g>
<g><path style="opacity:1" fill="#c4d499" d="M 153.5,66.5 C 170.038,68.0527 186.372,70.7193 202.5,74.5C 203.209,75.404 204.209,75.7373 205.5,75.5C 205.5,78.5 205.5,81.5 205.5,84.5C 176.5,84.5 147.5,84.5 118.5,84.5C 112.433,81.8904 106.1,79.7238 99.5,78C 89.5013,75.3913 79.5013,73.558 69.5,72.5C 83.5122,71.3327 97.5122,69.8327 111.5,68C 125.48,66.911 139.48,66.411 153.5,66.5 Z"/></g>
<g><path style="opacity:1" fill="#78923c" d="M 69.5,72.5 C 79.5013,73.558 89.5013,75.3913 99.5,78C 106.1,79.7238 112.433,81.8904 118.5,84.5C 80.5,84.5 42.5,84.5 4.5,84.5C 4.5,81.5 4.5,78.5 4.5,75.5C 5.49162,75.6716 6.15829,75.3382 6.5,74.5C 10.8244,74.0728 15.1578,73.7395 19.5,73.5C 36.134,71.4841 52.8006,71.1508 69.5,72.5 Z"/></g>
</svg>
