<svg width="523" height="525" viewBox="0 0 523 525" fill="none" xmlns="http://www.w3.org/2000/svg">
<g clip-path="url(#clip0_56_31)" filter="url(#filter0_d_56_31)">
<path opacity="0.977" fill-rule="evenodd" clip-rule="evenodd" d="M192.928 1.79437C204.261 1.93684 215.594 2.07933 226.926 2.2218C288.499 13.1975 329.226 48.3789 349.109 107.766C351.424 115.979 352.987 124.332 353.794 132.827C353.657 170.161 353.522 207.497 353.386 244.831C366.184 240.632 379.068 236.627 392.04 232.816C395.381 232.191 398.715 232.233 402.039 232.941C439.286 244.876 476.47 257.01 513.59 269.347C515.435 270.736 517.082 272.257 518.533 273.909C518.047 312.573 517.561 351.236 517.075 389.9C504.517 456.798 465.317 498.976 399.475 516.432C269.152 514.793 138.829 513.155 8.50585 511.516C6.86027 509.828 5.21468 508.142 3.5691 506.454C3.81215 487.122 4.0552 467.79 4.29825 448.458C5.79035 446.843 7.47574 445.364 9.35443 444.022C16.3523 443.609 23.3538 443.531 30.3591 443.786C30.3727 429.448 30.7196 415.117 31.3996 400.795C32.5892 398.977 34.108 397.496 35.9558 396.352C43.6209 395.948 51.2891 395.879 58.9603 396.141C59.1667 366.473 59.7062 336.811 60.5791 307.155C64.4029 301.16 69.588 299.725 76.1344 302.85C77.6679 304.083 78.8156 305.598 79.5776 307.394C79.7046 337.062 79.4983 366.728 78.9587 396.393C144.287 397.214 209.615 398.035 274.943 398.857C273.383 384.568 272.896 370.228 273.484 355.835C223.152 355.369 172.824 354.569 122.502 353.437C117.773 349.722 116.334 344.871 118.185 338.881C119.375 337.063 120.893 335.582 122.741 334.438C173.075 334.571 223.407 335.037 273.735 335.837C273.841 314.167 274.28 292.504 275.052 270.848C276.242 269.03 277.761 267.549 279.609 266.405C297.104 261.426 314.504 256.144 331.812 250.56C333.402 216.915 333.991 183.254 333.582 149.574C331.391 93.3455 304.719 53.8404 253.565 31.059C198.291 12.8611 150.966 25.1004 111.592 67.7771C93.0532 90.6259 83.3896 116.839 82.6015 146.419C81.933 173.08 81.2644 199.739 80.5959 226.4C76.1766 232.709 70.6624 233.807 64.0532 229.692C62.8632 228.774 62.0446 227.598 61.5974 226.161C61.3372 193.822 61.7437 161.491 62.8168 129.169C73.4732 67.4244 108.488 26.6948 167.861 6.97964C176.266 4.80726 184.622 3.07883 192.928 1.79437ZM395.782 253.364C429.628 264.287 463.493 275.213 497.378 286.144C498.182 314.585 497.99 343.084 496.803 371.644C493.916 425.114 468.597 463.632 420.844 487.198C412.147 491.027 403.112 493.747 393.739 495.358C340.03 480.962 307.293 446.547 295.53 392.115C294.586 384.472 294.016 376.797 293.819 369.092C293.35 340.512 293.874 312.016 295.394 283.605C329.065 273.814 362.528 263.734 395.782 253.364ZM394.254 295.349C415.5 301.947 436.752 308.548 458.01 315.152C458.066 338.177 457.276 361.169 455.643 384.127C448.557 419.188 428.095 442.6 394.255 454.361C360.721 441.753 340.854 417.834 334.652 382.606C333.596 359.614 333.385 336.61 334.02 313.593C354.377 308.115 374.455 302.034 394.254 295.349ZM50.7095 416.039C127.378 416.67 204.033 417.967 280.679 419.931C283.966 429.283 288.188 438.169 293.345 446.592C212.346 446.074 131.35 445.222 50.3575 444.037C50.4748 434.705 50.5921 425.371 50.7095 416.039ZM24.1081 463.709C118.77 464.732 213.427 466.089 308.079 467.779C317.143 478.773 327.696 487.906 339.737 495.179C234.406 494.355 129.08 493.198 23.7561 491.706C23.8734 482.374 23.9908 473.041 24.1081 463.709Z" fill="#442359"/>
<path opacity="0.969" fill-rule="evenodd" clip-rule="evenodd" d="M184.823 89.6994C201.494 89.7424 218.157 90.1186 234.813 90.828C237.885 91.6527 240.028 93.5131 241.243 96.4093C241.546 112.077 241.516 127.745 241.152 143.412C255.823 143.429 270.487 143.781 285.142 144.465C286.96 145.655 288.441 147.174 289.585 149.021C290.026 167.028 289.8 185.027 288.906 203.017C287.716 204.835 286.198 206.316 284.35 207.46C269.682 207.776 255.014 207.758 240.347 207.407C240.171 234.742 239.66 262.071 238.817 289.394C237.618 291.879 235.762 293.689 233.248 294.824C215.908 295.273 198.575 295.056 181.252 294.171C179.142 293.022 177.328 291.499 175.809 289.602C174.69 261.97 174.538 234.299 175.353 206.59C160.348 206.568 145.351 206.212 130.362 205.524C128.544 204.334 127.063 202.815 125.919 200.968C125.479 182.961 125.705 164.962 126.598 146.972C127.788 145.154 129.307 143.673 131.154 142.529C146.155 142.217 161.156 142.239 176.157 142.595C176.175 127.924 176.526 113.26 177.21 98.6044C178.217 94.1779 180.754 91.2095 184.823 89.6994ZM197.558 110.861C205.224 110.958 212.89 111.054 220.556 111.15C220.205 125.817 220.187 140.485 220.503 155.153C220.962 158.679 222.764 161.202 225.908 162.722C240.564 163.406 255.227 163.757 269.898 163.775C269.798 171.774 269.697 179.774 269.597 187.773C254.93 187.422 240.262 187.404 225.594 187.72C222.412 189.16 220.548 191.637 220 195.15C219.169 221.473 218.671 247.802 218.507 274.137C210.84 274.041 203.175 273.945 195.509 273.848C196.34 246.102 196.188 218.43 195.052 190.836C193.9 189.654 192.749 188.474 191.596 187.292C176.274 186.6 160.944 186.24 145.606 186.214C145.707 178.215 145.807 170.215 145.908 162.216C161.242 162.576 176.576 162.602 191.911 162.294C193.092 161.142 194.273 159.991 195.454 158.839C197.124 142.954 197.825 126.962 197.558 110.861Z" fill="#442359"/>
<path opacity="0.896" fill-rule="evenodd" clip-rule="evenodd" d="M66.7198 256.228C77.7152 255.519 82.1519 260.575 80.0301 271.396C75.6109 277.705 70.0966 278.803 63.4874 274.689C60.6742 270.972 59.8933 266.795 61.1448 262.158C62.5361 259.653 64.3944 257.676 66.7198 256.228Z" fill="#442359"/>
<path opacity="0.956" fill-rule="evenodd" clip-rule="evenodd" d="M395.53 273.363C421.897 281.395 448.126 289.892 474.216 298.854C475.75 300.087 476.897 301.602 477.659 303.398C477.652 317.232 477.644 331.067 477.637 344.901C483.759 391.889 468.612 430.036 432.195 459.338C420.739 467.703 408.004 473.043 393.991 475.359C359.073 466.06 334.505 444.749 320.289 411.428C317.765 404.567 315.853 397.542 314.553 390.354C313.634 374.545 313.333 358.707 313.65 342.839C313.991 329.009 314.331 315.178 314.672 301.349C315.479 299.573 316.664 298.087 318.228 296.893C344.058 288.876 369.826 281.032 395.53 273.363ZM394.254 295.349C374.455 302.034 354.377 308.115 334.02 313.593C333.385 336.61 333.596 359.614 334.652 382.606C340.854 417.834 360.721 441.753 394.255 454.361C428.095 442.6 448.557 419.188 455.643 384.127C457.276 361.169 458.065 338.177 458.01 315.152C436.752 308.548 415.5 301.947 394.254 295.349Z" fill="#442359"/>
<path opacity="0.935" fill-rule="evenodd" clip-rule="evenodd" d="M424.673 341.735C436.434 342.061 440.195 347.776 435.958 358.878C421.277 373.194 406.596 387.511 391.915 401.828C387.89 403.777 383.891 403.727 379.916 401.677C370.831 392.699 362.113 383.421 353.764 373.846C352.312 361.43 357.535 356.996 369.432 360.542C374.875 366.293 380.472 371.863 386.224 377.254C398.814 364.971 411.631 353.132 424.673 341.735Z" fill="#442359"/>
</g>
<defs>
<filter id="filter0_d_56_31" x="0" y="0" width="526.396" height="526.396" filterUnits="userSpaceOnUse" color-interpolation-filters="sRGB">
<feFlood flood-opacity="0" result="BackgroundImageFix"/>
<feColorMatrix in="SourceAlpha" type="matrix" values="0 0 0 0 0 0 0 0 0 0 0 0 0 0 0 0 0 0 127 0" result="hardAlpha"/>
<feOffset dy="4"/>
<feGaussianBlur stdDeviation="2"/>
<feComposite in2="hardAlpha" operator="out"/>
<feColorMatrix type="matrix" values="0 0 0 0 0 0 0 0 0 0 0 0 0 0 0 0 0 0 0.25 0"/>
<feBlend mode="normal" in2="BackgroundImageFix" result="effect1_dropShadow_56_31"/>
<feBlend mode="normal" in="SourceGraphic" in2="effect1_dropShadow_56_31" result="shape"/>
</filter>
<clipPath id="clip0_56_31">
<rect width="512" height="512" fill="white" transform="translate(10.4365) rotate(0.720315)"/>
</clipPath>
</defs>
</svg>
