<svg width="519" height="519" viewBox="0 0 519 519" fill="none" xmlns="http://www.w3.org/2000/svg">
<g clip-path="url(#clip0_56_51)">
<path opacity="0.94" fill-rule="evenodd" clip-rule="evenodd" d="M240.924 2.44806C243.591 2.48158 246.257 2.5151 248.924 2.54863C323.264 62.2097 397.855 121.652 472.7 180.876C476.255 183.842 479.043 187.377 481.067 191.482C481.283 200.818 481.499 210.156 481.715 219.492C492.199 224.312 502.637 229.278 513.03 234.387C513.584 235.389 514.24 236.231 514.999 236.912C514.362 287.575 513.725 338.237 513.088 388.9C508.367 412.511 496.786 432.2 478.342 447.968C445.653 470.747 413.031 493.505 380.476 516.243C276.484 514.936 172.493 513.628 68.5009 512.321C59.8347 508.661 54.0815 502.256 51.2412 493.102C51.989 407.105 52.7368 321.107 53.4847 235.11C44.4261 242.635 34.8409 249.348 24.7292 255.25C14.6104 257.156 7.32165 253.564 2.86297 244.474C3.11021 224.809 3.35744 205.144 3.60469 185.479C5.0179 182.923 6.71586 180.444 8.69858 178.042C29.8223 162.261 50.8573 146.358 71.8034 130.332C72.5263 99.3387 73.2494 68.3453 73.9724 37.352C76.0136 31.146 80.2281 27.3654 86.616 26.01C107.69 25.3093 128.685 25.9067 149.598 27.802C154.209 30.5016 157.327 34.3744 158.953 39.4205C159.181 47.7573 159.411 56.0942 159.639 64.4311C186.535 43.3857 213.631 22.7247 240.924 2.44806ZM242.66 23.4715C244.035 23.3321 245.367 23.5156 246.654 24.0218C318.766 81.7662 390.88 139.511 462.993 197.255C463.762 201.967 463.537 206.632 462.317 211.248C434.139 197.884 405.627 185.359 376.783 173.67C334.538 139.803 292.294 105.935 250.05 72.0683C244.071 69.4107 238.726 70.3436 234.013 74.8669C163.163 128.813 92.3126 182.761 21.4621 236.708C20.984 221.7 21.1726 206.702 22.0278 191.711C95.7565 135.77 169.301 79.69 242.66 23.4715ZM91.3956 43.5715C108.061 43.781 124.726 43.9905 141.392 44.2001C141.416 55.5395 141.107 66.8699 140.464 78.1911C124.281 90.8461 107.956 103.308 91.4904 115.578C90.7924 91.577 90.7607 67.5747 91.3956 43.5715ZM242.805 91.4787C281.639 120.821 319.929 150.972 357.677 181.93C319.591 198.306 281.547 214.83 243.545 231.499C242.663 233.075 241.975 234.734 241.482 236.474C240.677 260.796 240.204 285.125 240.065 309.462C218.4 309.022 196.732 308.917 175.064 309.144C165.9 311.183 159.666 316.605 156.358 325.41C154.162 382.008 152.95 438.664 152.721 495.378C126.052 495.21 99.3894 494.708 72.7332 493.872C71.1998 492.639 70.052 491.125 69.29 489.329C69.7506 399.661 70.8779 310.002 72.6718 220.35C129.568 177.532 186.278 134.575 242.805 91.4787ZM378.537 193.193C417.847 210.922 457.126 228.751 496.374 246.679C496.459 293.016 495.876 339.347 494.627 385.668C491.06 405.101 481.691 421.152 466.519 433.818C435.994 455.147 405.555 476.599 375.203 498.175C345.912 475.937 316.351 454.064 286.521 432.555C271.307 419.653 262.011 403.368 258.633 383.701C257.847 358.375 257.666 333.038 258.088 307.688C258.69 286.361 259.292 265.033 259.893 243.706C299.624 227.041 339.171 210.204 378.537 193.193ZM378.072 230.19C405.886 242.867 433.729 255.552 461.6 268.243C462.29 306.251 461.978 344.25 460.667 382.241C458.303 392.519 453.029 400.953 444.848 407.544C421.534 423.365 398.495 439.577 375.731 456.179C353.391 439.009 330.767 422.224 307.859 405.821C299.845 399.027 294.786 390.463 292.68 380.129C292.325 342.117 292.969 304.122 294.614 266.144C322.639 254.386 350.457 242.402 378.072 230.19ZM177.843 326.681C198.509 326.94 219.173 327.2 239.838 327.46C239.269 346.813 239.526 366.151 240.609 385.474C244.327 409.394 255.244 429.366 273.359 445.391C284.693 453.334 295.756 461.641 306.548 470.31C306.935 479.31 306.988 488.311 306.708 497.314C261.379 496.744 216.049 496.174 170.719 495.604C171.235 441.273 172.085 386.945 173.268 332.624C174.278 330.168 175.803 328.187 177.843 326.681ZM324.883 483.542C331 488.288 337.277 492.867 343.712 497.279C337.381 497.7 331.046 497.786 324.707 497.54C324.766 492.874 324.824 488.208 324.883 483.542Z" fill="#442359"/>
<path opacity="0.937" fill-rule="evenodd" clip-rule="evenodd" d="M378.311 211.192C411.333 225.203 444.153 239.784 476.769 254.933C477.921 256.115 479.072 257.295 480.225 258.477C480.364 300.482 479.836 342.478 478.641 384.467C475.807 399.556 468.483 411.965 456.671 421.693C432.455 438.723 408.239 455.754 384.023 472.784C378.298 477.38 372.632 477.308 367.024 472.57C344.849 455.569 322.389 438.953 299.646 422.719C285.866 412.917 277.532 399.646 274.644 382.902C274.509 340.564 275.042 298.233 276.241 255.912C277.422 254.76 278.603 253.609 279.784 252.456C312.614 238.369 345.456 224.615 378.311 211.192ZM378.072 230.19C350.457 242.402 322.639 254.386 294.614 266.144C292.969 304.122 292.325 342.117 292.68 380.129C294.786 390.463 299.845 399.027 307.859 405.821C330.767 422.224 353.391 439.009 375.731 456.179C398.495 439.577 421.534 423.365 444.848 407.544C453.029 400.953 458.303 392.519 460.667 382.241C461.978 344.25 462.29 306.251 461.6 268.243C433.729 255.552 405.886 242.867 378.072 230.19Z" fill="#442359"/>
<path opacity="0.927" fill-rule="evenodd" clip-rule="evenodd" d="M424.478 277.777C436.567 276.824 440.336 281.872 435.788 292.921C412.696 326.633 389.604 360.345 366.511 394.058C362.675 397.313 358.502 397.76 353.993 395.401C341.979 384.601 330.116 373.617 318.405 362.451C314.987 356.204 316.381 351.387 322.587 348.002C325.399 347.282 328.062 347.649 330.574 349.102C339.939 357.017 349.002 365.297 357.763 373.946C379.833 341.733 402.072 309.677 424.478 277.777Z" fill="#442359"/>
</g>
<defs>
<clipPath id="clip0_56_51">
<rect width="512" height="512" fill="white" transform="translate(6.43665) rotate(0.720315)"/>
</clipPath>
</defs>
</svg>
