<svg width="840" height="140" viewBox="0 0 840 140" fill="none" xmlns="http://www.w3.org/2000/svg">
<path d="M162.808 112.352C161.998 115.083 160.718 117.365 158.968 119.2C157.219 121.035 155.15 122.4 152.76 123.296C150.371 124.192 147.747 124.64 144.888 124.64C140.707 124.64 137.08 123.765 134.008 122.016C130.979 120.267 128.632 117.771 126.968 114.528C125.347 111.285 124.536 107.403 124.536 102.88C124.536 98.3573 125.347 94.4747 126.968 91.232C128.632 87.9893 130.979 85.4933 134.008 83.744C137.08 81.9947 140.664 81.12 144.76 81.12C147.662 81.12 150.286 81.5253 152.632 82.336C154.979 83.104 156.963 84.2987 158.584 85.92C160.248 87.5413 161.464 89.5893 162.232 92.064L154.232 95.456C153.507 92.896 152.398 91.0827 150.904 90.016C149.411 88.9067 147.491 88.352 145.144 88.352C142.84 88.352 140.814 88.9067 139.064 90.016C137.358 91.1253 136.035 92.768 135.096 94.944C134.158 97.0773 133.688 99.7227 133.688 102.88C133.688 105.995 134.115 108.64 134.968 110.816C135.864 112.992 137.166 114.635 138.872 115.744C140.579 116.853 142.67 117.408 145.144 117.408C147.448 117.408 149.432 116.789 151.096 115.552C152.803 114.315 153.998 112.437 154.68 109.92L162.808 112.352ZM184.032 91.36C187.274 91.36 190.112 92.0213 192.544 93.344C195.018 94.6667 196.938 96.5653 198.304 99.04C199.712 101.515 200.416 104.501 200.416 108C200.416 111.456 199.712 114.443 198.304 116.96C196.938 119.435 195.018 121.333 192.544 122.656C190.112 123.979 187.274 124.64 184.032 124.64C180.832 124.64 177.994 123.979 175.52 122.656C173.045 121.333 171.104 119.435 169.696 116.96C168.33 114.443 167.648 111.456 167.648 108C167.648 104.501 168.33 101.515 169.696 99.04C171.104 96.5653 173.045 94.6667 175.52 93.344C177.994 92.0213 180.832 91.36 184.032 91.36ZM184.032 97.888C182.41 97.888 181.024 98.272 179.872 99.04C178.762 99.7653 177.909 100.875 177.312 102.368C176.714 103.861 176.416 105.739 176.416 108C176.416 110.261 176.714 112.139 177.312 113.632C177.909 115.125 178.762 116.256 179.872 117.024C181.024 117.749 182.41 118.112 184.032 118.112C185.61 118.112 186.954 117.749 188.064 117.024C189.216 116.256 190.09 115.125 190.688 113.632C191.285 112.139 191.584 110.261 191.584 108C191.584 105.739 191.285 103.861 190.688 102.368C190.09 100.875 189.216 99.7653 188.064 99.04C186.954 98.272 185.61 97.888 184.032 97.888ZM228.369 92H237.457L225.297 124H215.185L203.025 92H212.369L220.305 117.28L228.369 92ZM256.788 124.64C253.417 124.64 250.473 123.979 247.956 122.656C245.481 121.333 243.561 119.435 242.196 116.96C240.83 114.485 240.148 111.499 240.148 108C240.148 104.501 240.83 101.515 242.196 99.04C243.561 96.5653 245.46 94.6667 247.892 93.344C250.366 92.0213 253.182 91.36 256.34 91.36C259.582 91.36 262.334 92.0213 264.596 93.344C266.857 94.624 268.585 96.3947 269.78 98.656C270.974 100.875 271.572 103.413 271.572 106.272C271.572 107.125 271.55 107.936 271.508 108.704C271.465 109.472 271.401 110.155 271.316 110.752H245.78V104.672H267.476L263.252 106.208C263.252 103.52 262.633 101.451 261.396 100C260.201 98.5493 258.494 97.824 256.276 97.824C254.654 97.824 253.246 98.208 252.052 98.976C250.9 99.744 250.025 100.896 249.428 102.432C248.83 103.925 248.532 105.824 248.532 108.128C248.532 110.389 248.852 112.267 249.492 113.76C250.174 115.211 251.113 116.299 252.308 117.024C253.545 117.749 255.017 118.112 256.724 118.112C258.601 118.112 260.116 117.749 261.268 117.024C262.42 116.299 263.316 115.296 263.956 114.016L270.932 116.704C270.249 118.368 269.204 119.797 267.796 120.992C266.43 122.187 264.788 123.104 262.868 123.744C260.99 124.341 258.964 124.64 256.788 124.64ZM279.002 124V92H286.618L287.194 98.272C288.048 96.0533 289.285 94.3467 290.906 93.152C292.57 91.9573 294.64 91.36 297.114 91.36C297.84 91.36 298.501 91.424 299.098 91.552C299.696 91.68 300.186 91.8507 300.57 92.064L299.546 99.424C299.12 99.2533 298.586 99.1253 297.946 99.04C297.349 98.9547 296.56 98.912 295.578 98.912C294.298 98.912 293.061 99.232 291.866 99.872C290.672 100.469 289.69 101.408 288.922 102.688C288.154 103.925 287.77 105.504 287.77 107.424V124H279.002ZM306.523 124V81.76H338.203V88.864H315.355V99.36H333.339V106.144H315.355V116.896H339.099V124H306.523ZM359.774 77.344C361.268 77.344 362.612 77.5147 363.806 77.856C365.044 78.1547 365.961 78.5387 366.558 79.008L365.342 84.832C364.873 84.5333 364.34 84.2987 363.742 84.128C363.145 83.9573 362.441 83.872 361.63 83.872C359.966 83.872 358.644 84.256 357.662 85.024C356.681 85.7493 356.19 87.008 356.19 88.8V93.216L356.574 94.944V124H347.806V88.16C347.806 86.368 348.105 84.7893 348.702 83.424C349.3 82.0587 350.132 80.928 351.198 80.032C352.265 79.136 353.524 78.4747 354.974 78.048C356.468 77.5787 358.068 77.344 359.774 77.344ZM366.302 92V98.528H342.238V92H366.302ZM385.31 77.344C386.804 77.344 388.148 77.5147 389.342 77.856C390.58 78.1547 391.497 78.5387 392.094 79.008L390.878 84.832C390.409 84.5333 389.876 84.2987 389.278 84.128C388.681 83.9573 387.977 83.872 387.166 83.872C385.502 83.872 384.18 84.256 383.198 85.024C382.217 85.7493 381.726 87.008 381.726 88.8V93.216L382.11 94.944V124H373.342V88.16C373.342 86.368 373.641 84.7893 374.238 83.424C374.836 82.0587 375.668 80.928 376.734 80.032C377.801 79.136 379.06 78.4747 380.51 78.048C382.004 77.5787 383.604 77.344 385.31 77.344ZM391.838 92V98.528H367.774V92H391.838ZM411.35 124.64C407.98 124.64 405.036 123.979 402.518 122.656C400.044 121.333 398.124 119.435 396.758 116.96C395.393 114.485 394.71 111.499 394.71 108C394.71 104.501 395.393 101.515 396.758 99.04C398.124 96.5653 400.022 94.6667 402.454 93.344C404.929 92.0213 407.745 91.36 410.902 91.36C414.145 91.36 416.897 92.0213 419.158 93.344C421.42 94.624 423.148 96.3947 424.342 98.656C425.537 100.875 426.134 103.413 426.134 106.272C426.134 107.125 426.113 107.936 426.07 108.704C426.028 109.472 425.964 110.155 425.878 110.752H400.342V104.672H422.038L417.814 106.208C417.814 103.52 417.196 101.451 415.958 100C414.764 98.5493 413.057 97.824 410.838 97.824C409.217 97.824 407.809 98.208 406.614 98.976C405.462 99.744 404.588 100.896 403.99 102.432C403.393 103.925 403.094 105.824 403.094 108.128C403.094 110.389 403.414 112.267 404.054 113.76C404.737 115.211 405.676 116.299 406.87 117.024C408.108 117.749 409.58 118.112 411.286 118.112C413.164 118.112 414.678 117.749 415.83 117.024C416.982 116.299 417.878 115.296 418.518 114.016L425.494 116.704C424.812 118.368 423.766 119.797 422.358 120.992C420.993 122.187 419.35 123.104 417.43 123.744C415.553 124.341 413.526 124.64 411.35 124.64ZM448.093 91.36C450.951 91.36 453.362 91.7867 455.325 92.64C457.33 93.4507 458.93 94.5813 460.125 96.032C461.362 97.44 462.237 99.0187 462.749 100.768L454.557 103.712C454.13 101.792 453.405 100.341 452.381 99.36C451.357 98.3787 449.97 97.888 448.221 97.888C446.599 97.888 445.213 98.272 444.061 99.04C442.909 99.7653 442.034 100.896 441.437 102.432C440.839 103.925 440.541 105.803 440.541 108.064C440.541 110.325 440.839 112.203 441.437 113.696C442.077 115.189 442.973 116.299 444.125 117.024C445.319 117.749 446.706 118.112 448.285 118.112C449.565 118.112 450.653 117.899 451.549 117.472C452.445 117.003 453.17 116.341 453.725 115.488C454.322 114.635 454.727 113.611 454.941 112.416L462.877 114.976C462.407 116.896 461.533 118.581 460.253 120.032C458.973 121.483 457.33 122.613 455.325 123.424C453.319 124.235 450.994 124.64 448.349 124.64C445.063 124.64 442.162 123.979 439.645 122.656C437.127 121.333 435.186 119.435 433.821 116.96C432.455 114.485 431.773 111.499 431.773 108C431.773 104.501 432.455 101.515 433.821 99.04C435.186 96.5653 437.106 94.6667 439.581 93.344C442.055 92.0213 444.893 91.36 448.093 91.36ZM481.018 82.208V113.568C481.018 115.104 481.402 116.235 482.17 116.96C482.98 117.643 484.068 117.984 485.434 117.984C486.5 117.984 487.439 117.835 488.25 117.536C489.06 117.195 489.786 116.747 490.426 116.192L491.834 122.016C490.81 122.827 489.53 123.467 487.994 123.936C486.458 124.405 484.836 124.64 483.13 124.64C480.996 124.64 479.098 124.32 477.434 123.68C475.812 123.04 474.532 122.016 473.594 120.608C472.698 119.2 472.25 117.323 472.25 114.976V84.64L481.018 82.208ZM491.258 92V98.528H466.362V92H491.258ZM526.48 81.76V124H517.648V81.76H526.48ZM536.377 124V92H544.249L544.761 101.6L543.673 100.576C544.185 98.4853 544.996 96.7573 546.105 95.392C547.215 94.0267 548.559 93.024 550.137 92.384C551.759 91.7013 553.529 91.36 555.449 91.36C557.668 91.36 559.631 91.7867 561.337 92.64C563.087 93.4933 564.452 94.7947 565.433 96.544C566.457 98.2507 566.969 100.405 566.969 103.008V124H558.201V105.504C558.201 102.773 557.668 100.896 556.601 99.872C555.535 98.8053 554.148 98.272 552.441 98.272C551.247 98.272 550.073 98.5707 548.921 99.168C547.812 99.7227 546.895 100.64 546.169 101.92C545.487 103.2 545.145 104.907 545.145 107.04V124H536.377ZM588.802 124.64C585.56 124.64 582.594 124.064 579.906 122.912C577.261 121.76 575.106 120.139 573.442 118.048L578.498 112.928C579.522 114.464 580.888 115.723 582.594 116.704C584.301 117.685 586.328 118.176 588.674 118.176C590.338 118.176 591.661 117.941 592.642 117.472C593.666 116.96 594.178 116.171 594.178 115.104C594.178 114.421 593.944 113.845 593.474 113.376C593.005 112.864 592.066 112.459 590.658 112.16L585.026 111.008C581.314 110.24 578.669 109.088 577.09 107.552C575.554 105.973 574.786 103.947 574.786 101.472C574.786 99.7227 575.298 98.08 576.322 96.544C577.389 95.008 578.968 93.7707 581.058 92.832C583.149 91.8507 585.752 91.36 588.866 91.36C592.066 91.36 594.84 91.872 597.186 92.896C599.576 93.8773 601.453 95.3493 602.818 97.312L597.57 102.432C596.632 100.939 595.394 99.808 593.858 99.04C592.365 98.2293 590.786 97.824 589.122 97.824C587.928 97.824 586.904 97.952 586.05 98.208C585.197 98.464 584.557 98.8267 584.13 99.296C583.704 99.7227 583.49 100.277 583.49 100.96C583.49 101.643 583.789 102.24 584.386 102.752C584.984 103.221 586.072 103.627 587.65 103.968L594.178 105.312C597.336 105.952 599.597 107.04 600.962 108.576C602.328 110.069 603.01 111.883 603.01 114.016C603.01 116.064 602.456 117.899 601.346 119.52C600.28 121.099 598.68 122.357 596.546 123.296C594.456 124.192 591.874 124.64 588.802 124.64ZM621.138 124.64C619.005 124.64 617.085 124.256 615.378 123.488C613.672 122.72 612.306 121.504 611.282 119.84C610.301 118.133 609.81 115.936 609.81 113.248V92H618.578V111.136C618.578 113.611 619.09 115.339 620.114 116.32C621.138 117.259 622.61 117.728 624.53 117.728C625.426 117.728 626.301 117.579 627.154 117.28C628.008 116.939 628.754 116.427 629.394 115.744C630.077 115.061 630.61 114.187 630.994 113.12C631.378 112.011 631.57 110.709 631.57 109.216V92H640.338V124H632.53L632.21 118.432C631.144 120.565 629.672 122.144 627.794 123.168C625.96 124.149 623.741 124.64 621.138 124.64ZM649.565 124V92H657.181L657.757 98.272C658.61 96.0533 659.847 94.3467 661.469 93.152C663.133 91.9573 665.202 91.36 667.677 91.36C668.402 91.36 669.063 91.424 669.661 91.552C670.258 91.68 670.749 91.8507 671.133 92.064L670.109 99.424C669.682 99.2533 669.149 99.1253 668.509 99.04C667.911 98.9547 667.122 98.912 666.141 98.912C664.861 98.912 663.623 99.232 662.429 99.872C661.234 100.469 660.253 101.408 659.485 102.688C658.717 103.925 658.333 105.504 658.333 107.424V124H649.565ZM694.242 103.584C694.242 101.749 693.709 100.32 692.642 99.296C691.618 98.272 690.253 97.76 688.546 97.76C686.968 97.76 685.581 98.1653 684.386 98.976C683.192 99.7867 682.317 101.131 681.762 103.008L674.274 100.704C675 97.888 676.578 95.6267 679.01 93.92C681.485 92.2133 684.792 91.36 688.93 91.36C691.746 91.36 694.2 91.808 696.29 92.704C698.381 93.5573 700.002 94.8587 701.154 96.608C702.349 98.3573 702.946 100.555 702.946 103.2V116.192C702.946 117.813 703.714 118.624 705.25 118.624C705.976 118.624 706.658 118.517 707.298 118.304L706.786 123.744C705.677 124.299 704.29 124.576 702.626 124.576C701.133 124.576 699.789 124.32 698.594 123.808C697.4 123.296 696.461 122.528 695.778 121.504C695.096 120.437 694.754 119.115 694.754 117.536V117.28L696.29 117.024C696.034 118.645 695.33 120.032 694.178 121.184C693.026 122.293 691.618 123.147 689.954 123.744C688.333 124.341 686.648 124.64 684.898 124.64C682.722 124.64 680.845 124.32 679.266 123.68C677.688 122.997 676.472 122.016 675.618 120.736C674.765 119.456 674.338 117.877 674.338 116C674.338 113.611 675.106 111.669 676.642 110.176C678.178 108.64 680.376 107.595 683.234 107.04L695.266 104.608L695.202 110.048L687.522 111.584C686.072 111.883 684.962 112.288 684.194 112.8C683.469 113.269 683.106 114.059 683.106 115.168C683.106 116.235 683.49 117.045 684.258 117.6C685.069 118.155 686.029 118.432 687.138 118.432C688.034 118.432 688.909 118.325 689.762 118.112C690.616 117.899 691.384 117.557 692.066 117.088C692.749 116.619 693.282 115.979 693.666 115.168C694.05 114.357 694.242 113.376 694.242 112.224V103.584ZM712.752 124V92H720.624L721.136 101.6L720.048 100.576C720.56 98.4853 721.371 96.7573 722.48 95.392C723.59 94.0267 724.934 93.024 726.512 92.384C728.134 91.7013 729.904 91.36 731.824 91.36C734.043 91.36 736.006 91.7867 737.712 92.64C739.462 93.4933 740.827 94.7947 741.808 96.544C742.832 98.2507 743.344 100.405 743.344 103.008V124H734.576V105.504C734.576 102.773 734.043 100.896 732.976 99.872C731.91 98.8053 730.523 98.272 728.816 98.272C727.622 98.272 726.448 98.5707 725.296 99.168C724.187 99.7227 723.27 100.64 722.544 101.92C721.862 103.2 721.52 104.907 721.52 107.04V124H712.752ZM766.905 91.36C769.764 91.36 772.175 91.7867 774.137 92.64C776.143 93.4507 777.743 94.5813 778.937 96.032C780.175 97.44 781.049 99.0187 781.561 100.768L773.369 103.712C772.943 101.792 772.217 100.341 771.193 99.36C770.169 98.3787 768.783 97.888 767.033 97.888C765.412 97.888 764.025 98.272 762.873 99.04C761.721 99.7653 760.847 100.896 760.249 102.432C759.652 103.925 759.353 105.803 759.353 108.064C759.353 110.325 759.652 112.203 760.249 113.696C760.889 115.189 761.785 116.299 762.937 117.024C764.132 117.749 765.519 118.112 767.097 118.112C768.377 118.112 769.465 117.899 770.361 117.472C771.257 117.003 771.983 116.341 772.537 115.488C773.135 114.635 773.54 113.611 773.753 112.416L781.689 114.976C781.22 116.896 780.345 118.581 779.065 120.032C777.785 121.483 776.143 122.613 774.137 123.424C772.132 124.235 769.807 124.64 767.161 124.64C763.876 124.64 760.975 123.979 758.457 122.656C755.94 121.333 753.999 119.435 752.633 116.96C751.268 114.485 750.585 111.499 750.585 108C750.585 104.501 751.268 101.515 752.633 99.04C753.999 96.5653 755.919 94.6667 758.393 93.344C760.868 92.0213 763.705 91.36 766.905 91.36ZM803.35 124.64C799.98 124.64 797.036 123.979 794.518 122.656C792.044 121.333 790.124 119.435 788.758 116.96C787.393 114.485 786.71 111.499 786.71 108C786.71 104.501 787.393 101.515 788.758 99.04C790.124 96.5653 792.022 94.6667 794.454 93.344C796.929 92.0213 799.745 91.36 802.902 91.36C806.145 91.36 808.897 92.0213 811.158 93.344C813.42 94.624 815.148 96.3947 816.342 98.656C817.537 100.875 818.134 103.413 818.134 106.272C818.134 107.125 818.113 107.936 818.07 108.704C818.028 109.472 817.964 110.155 817.878 110.752H792.342V104.672H814.038L809.814 106.208C809.814 103.52 809.196 101.451 807.958 100C806.764 98.5493 805.057 97.824 802.838 97.824C801.217 97.824 799.809 98.208 798.614 98.976C797.462 99.744 796.588 100.896 795.99 102.432C795.393 103.925 795.094 105.824 795.094 108.128C795.094 110.389 795.414 112.267 796.054 113.76C796.737 115.211 797.676 116.299 798.87 117.024C800.108 117.749 801.58 118.112 803.286 118.112C805.164 118.112 806.678 117.749 807.83 117.024C808.982 116.299 809.878 115.296 810.518 114.016L817.494 116.704C816.812 118.368 815.766 119.797 814.358 120.992C812.993 122.187 811.35 123.104 809.43 123.744C807.553 124.341 805.526 124.64 803.35 124.64Z" fill="#442359"/>
<path d="M829.981 114.208C831.687 114.208 833.031 114.677 834.013 115.616C835.037 116.555 835.549 117.813 835.549 119.392C835.549 121.013 835.037 122.293 834.013 123.232C833.031 124.128 831.687 124.576 829.981 124.576C828.274 124.576 826.909 124.128 825.885 123.232C824.903 122.293 824.413 121.013 824.413 119.392C824.413 117.813 824.903 116.555 825.885 115.616C826.909 114.677 828.274 114.208 829.981 114.208Z" fill="#AC0E63"/>
<path opacity="0.942" fill-rule="evenodd" clip-rule="evenodd" d="M51.7413 1.8164C57.2172 1.77605 62.6924 1.81641 68.1671 1.9375C85.5585 4.26669 98.4255 13.3487 106.768 29.1836C107.458 30.6895 108.084 32.2233 108.645 33.7852C108.837 34.6241 108.758 35.4315 108.41 36.207C108.234 36.3586 108.039 36.4797 107.824 36.5703C105.097 36.5386 102.438 36.9421 99.8454 37.7812C97.8368 38.7241 96.2723 40.1772 95.1523 42.1406C94.401 42.4998 93.6186 42.5807 92.8058 42.3828C90.3023 40.8483 87.6429 39.718 84.8275 38.9922C82.6044 38.7355 80.4144 38.897 78.2572 39.4766C75.883 40.5 73.5364 41.5899 71.2176 42.7461C69.3901 41.9241 67.591 41.036 65.8205 40.082C65.6936 44.2934 65.4981 48.4915 65.2339 52.6758C63.1589 56.1984 60.3041 57.0461 56.669 55.2187C55.8261 54.5113 55.1614 53.6637 54.6745 52.6758C54.4102 48.4915 54.2148 44.2934 54.0878 40.082C52.3174 41.036 50.5183 41.9241 48.6908 42.7461C46.1647 41.4424 43.5835 40.2719 40.9472 39.2344C38.086 38.6393 35.2702 38.8009 32.4996 39.7187C30.6721 40.5407 28.873 41.4288 27.1026 42.3828C26.2897 42.5807 25.5074 42.4998 24.756 42.1406C23.124 39.4087 20.7774 37.7134 17.7164 37.0547C15.6648 36.8726 13.6311 36.6304 11.6154 36.3281C11.0326 35.2722 10.9935 34.1823 11.4981 33.0586C17.6315 18.2524 28.1517 8.44377 43.0591 3.63281C45.9521 2.85003 48.8461 2.24456 51.7413 1.8164ZM48.6908 6.41796C48.9376 6.38176 49.1723 6.42213 49.3947 6.53906C37.9814 13.5835 29.964 23.5536 25.3427 36.4492C22.6697 34.1426 19.5801 32.851 16.0738 32.5742C22.8415 18.4045 33.7137 9.68578 48.6908 6.41796ZM70.5136 6.66015C85.8443 9.41542 96.9514 18.0534 103.835 32.5742C100.328 32.851 97.2386 34.1426 94.5657 36.4492C89.963 23.543 81.9458 13.6134 70.5136 6.66015ZM59.7195 7.6289C60.2557 7.98172 60.6858 8.4661 61.0101 9.08203C66.139 17.6972 68.7983 27.0618 68.9884 37.1758C64.8364 34.7803 60.4172 34.0942 55.7304 35.1172C54.0306 35.5674 52.4272 36.2535 50.92 37.1758C51.187 26.4612 54.1202 16.6122 59.7195 7.6289ZM54.3225 8.59765C49.647 17.5061 47.0658 27.0322 46.5789 37.1758C41.168 34.3228 35.6144 33.9997 29.9184 36.207C34.6953 23.8494 42.8301 14.6463 54.3225 8.59765ZM65.5859 8.59765C77.0783 14.6463 85.2131 23.8494 89.9899 36.207C84.2939 33.9997 78.7404 34.3228 73.3295 37.1758C72.8426 27.0322 70.2614 17.5061 65.5859 8.59765ZM58.077 38.8711C59.3284 38.8711 60.58 38.8711 61.8314 38.8711C61.8706 42.6662 61.8314 46.4605 61.7141 50.2539C61.2762 51.9122 60.2987 52.3561 58.7809 51.5859C58.4953 51.1868 58.2999 50.7429 58.1943 50.2539C58.077 46.4605 58.0378 42.6662 58.077 38.8711Z" fill="#442359"/>
<path opacity="0.954" fill-rule="evenodd" clip-rule="evenodd" d="M20.2976 46.3789C24.1311 46.3385 27.9638 46.3789 31.7957 46.5C34.768 47.3072 36.6453 49.2447 37.4274 52.3125C40.3605 53.0795 42.1986 54.9766 42.9417 58.0039C43.0199 61.0717 43.0983 64.1393 43.1764 67.2071C44.8326 68.8803 45.38 70.8985 44.819 73.2618C43.7968 76.2118 41.7631 77.665 38.718 77.6211C38.075 79.4157 37.058 80.9495 35.6675 82.2227C35.4896 82.7722 35.5288 83.297 35.7848 83.7969C39.1481 85.1694 42.5116 86.5416 45.8749 87.9141C46.2691 87.9981 46.5038 88.2403 46.5789 88.6407C46.1631 89.8615 45.6546 91.0323 45.0536 92.1524C41.8246 90.7487 38.5783 89.3762 35.3155 88.0352C32.6151 92.8523 28.7822 94.1037 23.8174 91.7891C22.5542 90.7588 21.5374 89.5077 20.7669 88.0352C16.4956 89.7334 12.2718 91.5498 8.09557 93.4844C6.55326 94.8518 5.73197 96.5873 5.6317 98.6914C5.51438 106.441 5.47528 114.191 5.51438 121.941C4.26289 121.941 3.01139 121.941 1.75991 121.941C1.7208 113.384 1.75991 104.827 1.87723 96.2696C2.50573 93.3996 4.03099 91.1795 6.45299 89.6094C11.0971 87.5959 15.7511 85.6182 20.4149 83.6758C20.5714 83.1914 20.5714 82.7071 20.4149 82.2227C19.0243 80.9495 18.0075 79.4157 17.3644 77.6211C12.3145 77.09 10.3591 74.2644 11.4981 69.1446C11.8532 68.4122 12.3225 67.7663 12.906 67.2071C12.9842 62.767 13.0624 58.3268 13.1406 53.8868C14.1611 49.9679 16.5468 47.4652 20.2976 46.3789ZM22.4095 50.2539C24.9137 50.2135 27.4168 50.2539 29.9184 50.375C31.5765 50.4833 32.7106 51.3309 33.3209 52.918C33.4462 53.8395 33.6809 54.7274 34.0249 55.5821C34.8673 56.032 35.767 56.3144 36.7234 56.4297C38.2611 57.0597 39.0824 58.2301 39.1873 59.9414C39.3438 61.5561 39.3438 63.1705 39.1873 64.7852C37.2781 62.5723 35.2836 60.4331 33.2036 58.3672C32.265 57.8828 31.3264 57.8828 30.3877 58.3672C29.3116 61.4997 27.1997 63.2756 24.0521 63.6953C21.9402 63.776 19.8283 63.8569 17.7164 63.9375C17.2862 64.0586 17.0124 64.3413 16.8951 64.7852C16.7387 61.8789 16.7387 58.9727 16.8951 56.0664C17.2928 52.6291 19.1309 50.6916 22.4095 50.2539ZM32.0303 63.5743C33.2599 64.4783 34.3942 65.5277 35.4328 66.7227C35.6834 69.897 35.5269 73.0455 34.9635 76.168C32.9969 80.3104 29.829 81.8039 25.46 80.6485C23.0109 79.6548 21.4856 77.8384 20.8842 75.1993C20.5783 72.7074 20.461 70.2049 20.5323 67.6914C22.4111 67.7316 24.2884 67.6914 26.164 67.5703C28.6968 67.0751 30.6524 65.743 32.0303 63.5743ZM16.0738 69.8711C16.3085 69.8711 16.5431 69.8711 16.7778 69.8711C16.7778 71.0014 16.7778 72.1315 16.7778 73.2618C15.3952 73.0767 14.8868 72.2693 15.2525 70.8399C15.4144 70.3918 15.6881 70.0688 16.0738 69.8711ZM39.3046 69.8711C40.9202 70.2269 41.3506 71.1957 40.5952 72.7774C40.2235 73.107 39.7931 73.2685 39.3046 73.2618C39.3046 72.1315 39.3046 71.0014 39.3046 69.8711ZM24.2867 84.6446C26.7116 85.2822 29.1363 85.2822 31.561 84.6446C31.4944 87.7349 29.9302 89.0669 26.8679 88.6407C25.2188 87.8625 24.3585 86.5305 24.2867 84.6446Z" fill="#AC0E63"/>
<path opacity="0.952" fill-rule="evenodd" clip-rule="evenodd" d="M90.9286 46.3789C96.6605 45.5921 101.471 47.368 105.36 51.7071C108.577 56.3394 109.75 61.5062 108.88 67.2071C110.579 68.9423 111.088 71.0009 110.405 73.3829C111.759 74.7648 113.401 75.4913 115.333 75.5625C115.763 75.6836 116.037 75.9663 116.154 76.4102C116.31 77.0561 116.31 77.7018 116.154 78.3477C114.254 82.2464 111.32 84.9507 107.354 86.461C109.779 87.5356 112.126 88.7465 114.394 90.0938C115.967 91.5239 117.101 93.2597 117.796 95.3008C118.143 104.169 118.26 113.05 118.148 121.941C116.897 121.941 115.645 121.941 114.394 121.941C114.433 114.191 114.394 106.441 114.277 98.6914C114.135 96.2187 113.079 94.2812 111.109 92.8789C106.527 98.2281 100.739 100.811 93.7444 100.629C88.784 100.792 84.2472 99.4602 80.1345 96.6329C78.8047 95.5835 77.6314 94.3725 76.6146 93C75.267 93.6665 74.2894 94.7564 73.6815 96.2696C73.176 97.8605 73.0587 99.4752 73.3295 101.113C75.8203 103.022 77.5019 105.525 78.3745 108.621C78.7141 113.048 78.8314 117.488 78.7265 121.941C77.4751 121.941 76.2235 121.941 74.9721 121.941C75.0112 118.711 74.9721 115.482 74.8547 112.254C74.4971 107.284 71.9941 104.135 67.3458 102.809C65.7279 107.218 62.6382 109.034 58.0769 108.258C55.2451 107.515 53.4071 105.699 52.5626 102.809C48.73 103.858 46.305 106.361 45.2883 110.316C44.9677 114.183 44.8504 118.058 44.9363 121.941C43.6849 121.941 42.4332 121.941 41.1818 121.941C41.1426 117.824 41.1818 113.706 41.2992 109.59C42.5757 103.843 45.9782 100.251 51.5066 98.8125C50.0823 97.2853 49.1826 95.4689 48.8081 93.3633C48.6516 90.4571 48.6516 87.5508 48.8081 84.6446C50.8388 77.7614 55.3362 74.734 62.3007 75.5625C66.9546 76.8139 69.8878 79.8413 71.1003 84.6446C71.1784 87.1471 71.2568 89.6499 71.3349 92.1524C72.167 90.8899 73.2229 89.8807 74.5028 89.125C76.38 88.2369 78.2572 87.3491 80.1345 86.461C76.1683 84.9507 73.2351 82.2464 71.3349 78.3477C71.1784 77.7018 71.1784 77.0561 71.3349 76.4102C71.4522 75.9663 71.7261 75.6836 72.1562 75.5625C74.0874 75.4913 75.73 74.7648 77.0839 73.3829C76.4009 71.0009 76.9094 68.9423 78.6092 67.2071C78.6873 64.4624 78.7657 61.7174 78.8439 58.9727C80.4116 52.2285 84.4399 48.0304 90.9286 46.3789ZM91.6325 50.4961C91.9047 53.4411 91.9439 56.428 91.7498 59.4571C90.9084 61.3754 89.5394 62.7075 87.6434 63.4532C86.2418 63.6728 84.8339 63.8341 83.4196 63.9375C82.9895 64.0586 82.7157 64.3413 82.5983 64.7852C81.9758 57.5009 84.9871 52.7378 91.6325 50.4961ZM95.6216 50.4961C102.446 52.6245 105.535 57.3876 104.89 64.7852C104.773 64.3413 104.499 64.0586 104.069 63.9375C100.985 64.3011 98.4431 63.2919 96.4429 60.9102C96.2083 60.4258 95.9736 59.9414 95.739 59.4571C95.6216 56.4711 95.5825 53.4842 95.6216 50.4961ZM93.5098 64.3008C94.8151 65.3597 96.2231 66.2882 97.7335 67.086C98.8657 67.5449 100.039 67.7467 101.253 67.6914C101.376 70.5444 101.181 73.37 100.667 76.168C98.2073 80.9718 94.5702 82.2232 89.7553 79.9219C87.6141 78.3693 86.48 76.2298 86.3528 73.5039C86.2355 71.5681 86.1965 69.6306 86.2355 67.6914C89.1668 67.6716 91.5915 66.5413 93.5098 64.3008ZM81.777 69.8711C82.0117 69.8711 82.2463 69.8711 82.481 69.8711C82.481 71.0014 82.481 72.1315 82.481 73.2618C81.0984 73.0767 80.5899 72.2693 80.9557 70.8399C81.1177 70.3918 81.3913 70.0688 81.777 69.8711ZM105.008 69.8711C106.623 70.2269 107.054 71.1957 106.298 72.7774C105.927 73.107 105.496 73.2685 105.008 73.2618C105.008 72.1315 105.008 71.0014 105.008 69.8711ZM79.4305 76.8946C80.577 77.2281 81.7503 77.43 82.9503 77.5C83.6332 79.3361 84.6891 80.9103 86.1181 82.2227C86.2331 82.5358 86.2723 82.8589 86.2355 83.1914C82.3132 83.3254 79.1062 81.8723 76.6146 78.8321C77.6471 78.3014 78.5857 77.6558 79.4305 76.8946ZM107.354 76.8946C108.544 77.4688 109.718 78.1147 110.874 78.8321C108.348 81.7887 105.141 83.2418 101.253 83.1914C101.405 82.1796 101.913 81.3724 102.779 80.7696C103.389 79.7509 103.937 78.7015 104.421 77.6211C105.447 77.4928 106.425 77.2506 107.354 76.8946ZM58.3116 79.5586C64.5459 79.3731 67.5964 82.5216 67.4631 89.0039C67.6023 95.521 64.5518 98.629 58.3116 98.3282C55.3784 97.5612 53.5404 95.6641 52.7972 92.6368C52.2899 89.8739 52.368 87.1289 53.0319 84.4024C54.0353 81.8713 55.7952 80.2566 58.3116 79.5586ZM89.9899 84.6446C92.4149 85.2823 94.8395 85.2823 97.2642 84.6446C97.4979 86.0887 97.5761 87.5419 97.4989 89.0039C98.7503 89.0039 100.002 89.0039 101.253 89.0039C101.218 88.7492 101.257 88.507 101.371 88.2774C103.291 89.2067 105.208 90.135 107.12 91.0625C105.59 92.9049 103.713 94.2773 101.488 95.1797C94.3998 97.7595 87.7513 96.8714 81.5424 92.5157C81.063 92.102 80.6718 91.6176 80.3691 91.0625C82.2813 90.135 84.1977 89.2067 86.1181 88.2774C86.2315 88.507 86.2704 88.7492 86.2355 89.0039C87.4869 89.0039 88.7385 89.0039 89.9899 89.0039C89.9899 87.5508 89.9899 86.0977 89.9899 84.6446ZM69.1057 97.7227C69.369 98.1557 69.4082 98.6401 69.223 99.1758C68.9727 99.0085 68.6988 98.8874 68.4017 98.8125C68.7868 98.5391 69.0215 98.1758 69.1057 97.7227ZM56.9037 102.324C58.9581 102.563 60.9918 102.644 63.0047 102.566C61.5886 104.369 59.8678 104.732 57.8423 103.656C57.3814 103.305 57.0686 102.861 56.9037 102.324Z" fill="#AC0E63"/>
<path opacity="0.877" fill-rule="evenodd" clip-rule="evenodd" d="M80.8384 99.1758C81.9113 99.9176 82.8891 100.806 83.7716 101.84C83.9281 102.001 83.9281 102.163 83.7716 102.324C82.7466 103.301 81.808 104.35 80.9557 105.473C79.8578 104.886 78.7237 104.401 77.5533 104.02C77.6131 103.41 77.8088 102.845 78.1399 102.324C79.0011 101.234 79.9005 100.184 80.8384 99.1758Z" fill="#AC0E63"/>
<path opacity="0.952" fill-rule="evenodd" clip-rule="evenodd" d="M106.181 99.1758C109.801 101.645 111.248 105.117 110.522 109.59C110.165 110.893 109.617 112.104 108.88 113.223C108.762 116.128 108.723 119.034 108.762 121.941C107.511 121.941 106.259 121.941 105.008 121.941C104.969 118.389 105.008 114.836 105.125 111.285C106.764 109.326 107.077 107.146 106.064 104.746C105.2 103.895 104.378 103.007 103.6 102.082C104.466 101.108 105.326 100.14 106.181 99.1758Z" fill="#AC0E63"/>
<path fill-rule="evenodd" clip-rule="evenodd" d="M11.1461 104.504C12.3976 104.504 13.6491 104.504 14.9005 104.504C14.9005 110.316 14.9005 116.129 14.9005 121.941C13.6491 121.941 12.3976 121.941 11.1461 121.941C11.1461 116.129 11.1461 110.316 11.1461 104.504Z" fill="#AC0E63"/>
<path fill-rule="evenodd" clip-rule="evenodd" d="M50.568 112.254C51.8194 112.254 53.0711 112.254 54.3225 112.254C54.3225 115.483 54.3225 118.712 54.3225 121.941C53.0711 121.941 51.8194 121.941 50.568 121.941C50.568 118.712 50.568 115.483 50.568 112.254Z" fill="#AC0E63"/>
<path fill-rule="evenodd" clip-rule="evenodd" d="M67.4631 112.254C68.7145 112.254 69.9662 112.254 71.2176 112.254C71.2176 115.483 71.2176 118.712 71.2176 121.941C69.9662 121.941 68.7145 121.941 67.4631 121.941C67.4631 118.712 67.4631 115.483 67.4631 112.254Z" fill="#AC0E63"/>
</svg>
