<?xml version="1.0" encoding="UTF-8"?>
<!DOCTYPE svg PUBLIC "-//W3C//DTD SVG 1.1//EN" "http://www.w3.org/Graphics/SVG/1.1/DTD/svg11.dtd">
<svg xmlns="http://www.w3.org/2000/svg" version="1.1" width="276px" height="182px" style="shape-rendering:geometricPrecision; text-rendering:geometricPrecision; image-rendering:optimizeQuality; fill-rule:evenodd; clip-rule:evenodd" xmlns:xlink="http://www.w3.org/1999/xlink">
<g><path style="opacity:1" fill="#fdfefd" d="M -0.5,-0.5 C 91.5,-0.5 183.5,-0.5 275.5,-0.5C 275.5,60.1667 275.5,120.833 275.5,181.5C 183.5,181.5 91.5,181.5 -0.5,181.5C -0.5,120.833 -0.5,60.1667 -0.5,-0.5 Z"/></g>
<g><path style="opacity:1" fill="#8eacd5" d="M 128.5,25.5 C 129.649,25.7911 130.316,26.6244 130.5,28C 130.508,31.1539 129.842,31.3206 128.5,28.5C 127.808,29.0253 127.308,29.6919 127,30.5C 126.36,28.4567 126.86,26.7901 128.5,25.5 Z"/></g>
<g><path style="opacity:1" fill="#7ca1d0" d="M 148.5,25.5 C 150.391,26.5361 152.224,26.5361 154,25.5C 154.667,27.1667 154.667,28.8333 154,30.5C 153,27.8333 152,27.8333 151,30.5C 150.333,27.8333 149.667,27.8333 149,30.5C 148.506,28.8659 148.34,27.1992 148.5,25.5 Z"/></g>
<g><path style="opacity:1" fill="#6b97cb" d="M 118.5,25.5 C 119.892,27.9237 121.725,29.2571 124,29.5C 124.333,28.8333 124.667,28.1667 125,27.5C 125.494,29.1341 125.66,30.8008 125.5,32.5C 124.5,32.5 123.5,32.5 122.5,32.5C 122.649,31.448 122.483,30.448 122,29.5C 120.287,29.3802 118.454,29.5469 116.5,30C 117.582,28.6703 118.249,27.1703 118.5,25.5 Z"/></g>
<g><path style="opacity:1" fill="#4e87c3" d="M 134.5,25.5 C 135.558,26.6002 136.392,27.9336 137,29.5C 138.008,24.4591 138.508,24.7924 138.5,30.5C 134.424,30.7061 133.091,29.0394 134.5,25.5 Z"/></g>
<g><path style="opacity:1" fill="#4a85c4" d="M 144.5,25.5 C 146.416,26.6653 147.249,28.332 147,30.5C 146,29.1667 145,29.1667 144,30.5C 143.616,28.8034 143.782,27.1368 144.5,25.5 Z"/></g>
<g><path style="opacity:1" fill="#77a3ce" d="M 159.5,26.5 C 161.912,26.6941 162.912,28.0274 162.5,30.5C 160.533,30.2606 158.699,30.5939 157,31.5C 155.635,30.4071 155.301,29.0738 156,27.5C 156.71,28.9733 157.876,29.6399 159.5,29.5C 159.5,28.5 159.5,27.5 159.5,26.5 Z"/></g>
<g><path style="opacity:1" fill="#0a70bb" d="M 128.5,34.5 C 132.96,33.8847 136.96,34.8847 140.5,37.5C 143.053,37.0548 145.72,37.0548 148.5,37.5C 149.097,43.3839 152.097,47.3839 157.5,49.5C 155.857,51.9768 154.024,54.3102 152,56.5C 151.944,59.7802 151.111,62.7802 149.5,65.5C 149.709,66.086 150.043,66.586 150.5,67C 143.518,76.5217 139.185,75.355 137.5,63.5C 138.428,59.6365 137.761,55.9698 135.5,52.5C 134.5,51.8333 133.5,51.1667 132.5,50.5C 127.676,52.7057 124.342,51.3724 122.5,46.5C 123.185,41.8226 125.185,37.8226 128.5,34.5 Z"/></g>
<g><path style="opacity:1" fill="#9ec64d" d="M 166.5,36.5 C 169.956,38.7833 173.29,41.2833 176.5,44C 175.5,44.3333 174.5,44.6667 173.5,45C 178.113,59.166 175.28,71.666 165,82.5C 160.086,79.9602 155.253,77.2936 150.5,74.5C 160.358,67.7703 164.524,58.4369 163,46.5C 162.355,45.354 161.522,44.354 160.5,43.5C 162.523,41.1472 164.523,38.8138 166.5,36.5 Z"/></g>
<g><path style="opacity:1" fill="#9fc64d" d="M 109.5,40.5 C 113.182,40.3347 116.848,40.5014 120.5,41C 115.399,55.0311 119.066,66.0311 131.5,74C 126.774,77.0298 121.774,79.5298 116.5,81.5C 115.558,81.3918 114.725,81.0585 114,80.5C 104.669,68.0203 103.169,54.6869 109.5,40.5 Z"/></g>
<g><path style="opacity:1" fill="#2f75bc" d="M 155.5,62.5 C 156.532,64.503 156.198,66.503 154.5,68.5C 153.229,66.1937 153.562,64.1937 155.5,62.5 Z"/></g>
<g><path style="opacity:1" fill="#a0c64e" d="M 147.5,76.5 C 147.897,75.475 148.563,75.3083 149.5,76C 153.721,78.9369 157.721,82.1035 161.5,85.5C 160.998,86.521 160.332,86.6877 159.5,86C 155.625,82.6193 151.625,79.4526 147.5,76.5 Z"/></g>
<g><path style="opacity:1" fill="#a1c74f" d="M 133.5,74.5 C 134.525,74.8966 134.692,75.5632 134,76.5C 130.075,79.5473 126.241,82.714 122.5,86C 121.275,86.5628 120.275,86.2295 119.5,85C 124.35,81.6366 129.017,78.1366 133.5,74.5 Z"/></g>
<g><path style="opacity:1" fill="#a2c852" d="M 138.5,76.5 C 139.499,82.005 139.499,87.6716 138.5,93.5C 136.654,93.7778 135.32,93.1112 134.5,91.5C 135.837,86.4918 137.17,81.4918 138.5,76.5 Z"/></g>
<g><path style="opacity:1" fill="#a0c74f" d="M 135.5,75.5 C 136.239,75.369 136.906,75.5357 137.5,76C 134.874,80.0838 132.374,84.2505 130,88.5C 128.637,90.7843 127.137,90.951 125.5,89C 129.461,84.8856 132.794,80.3856 135.5,75.5 Z"/></g>
<g><path style="opacity:1" fill="#9fc64c" d="M 144.5,75.5 C 148.507,79.6545 152.173,84.1545 155.5,89C 154.464,90.6169 153.297,90.7836 152,89.5C 149.22,84.9384 146.72,80.2717 144.5,75.5 Z"/></g>
<g><path style="opacity:1" fill="#a1c851" d="M 141.5,76.5 C 143.916,80.7359 145.582,85.4025 146.5,90.5C 146.167,92.1667 145.167,93.1667 143.5,93.5C 142.63,87.8477 141.963,82.1811 141.5,76.5 Z"/></g>
<g><path style="opacity:1" fill="#1671bb" d="M 30.5,100.5 C 32.8333,100.5 35.1667,100.5 37.5,100.5C 40.4644,109.932 44.1311,119.098 48.5,128C 46.5,128.667 44.5,128.667 42.5,128C 41.6919,125.912 40.6919,123.912 39.5,122C 35.8333,121.333 32.1667,121.333 28.5,122C 27.3313,124.007 26.6646,126.173 26.5,128.5C 24.396,128.799 22.396,128.466 20.5,127.5C 24.1317,118.577 27.465,109.577 30.5,100.5 Z"/></g>
<g><path style="opacity:1" fill="#2c77be" d="M 86.5,100.5 C 88.5,100.5 90.5,100.5 92.5,100.5C 92.5,102.167 92.5,103.833 92.5,105.5C 90.5,105.5 88.5,105.5 86.5,105.5C 86.5,103.833 86.5,102.167 86.5,100.5 Z"/></g>
<g><path style="opacity:1" fill="#1771bb" d="M 112.5,100.5 C 114.833,100.5 117.167,100.5 119.5,100.5C 122.833,109.833 126.167,119.167 129.5,128.5C 127.5,128.5 125.5,128.5 123.5,128.5C 124.022,122.859 121.522,120.526 116,121.5C 110.478,120.526 107.978,122.859 108.5,128.5C 106.5,128.5 104.5,128.5 102.5,128.5C 105.633,119.102 108.966,109.769 112.5,100.5 Z"/></g>
<g><path style="opacity:1" fill="#6e9ecd" d="M 132.5,100.5 C 132.5,109.5 132.5,118.5 132.5,127.5C 133.833,127.5 135.167,127.5 136.5,127.5C 136.5,118.5 136.5,109.5 136.5,100.5C 137.494,109.652 137.827,118.985 137.5,128.5C 135.5,128.5 133.5,128.5 131.5,128.5C 131.173,118.985 131.506,109.652 132.5,100.5 Z"/></g>
<g><path style="opacity:1" fill="#006eba" d="M 132.5,100.5 C 133.833,100.5 135.167,100.5 136.5,100.5C 136.5,109.5 136.5,118.5 136.5,127.5C 135.167,127.5 133.833,127.5 132.5,127.5C 132.5,118.5 132.5,109.5 132.5,100.5 Z"/></g>
<g><path style="opacity:1" fill="#006eba" d="M 146.5,100.5 C 146.5,109.5 146.5,118.5 146.5,127.5C 144.833,127.5 143.167,127.5 141.5,127.5C 141.5,118.5 141.5,109.5 141.5,100.5C 143.167,100.5 144.833,100.5 146.5,100.5 Z"/></g>
<g><path style="opacity:1" fill="#a5bfdb" d="M 146.5,100.5 C 147.494,109.652 147.827,118.985 147.5,128.5C 145.265,128.795 143.265,128.461 141.5,127.5C 143.167,127.5 144.833,127.5 146.5,127.5C 146.5,118.5 146.5,109.5 146.5,100.5 Z"/></g>
<g><path style="opacity:1" fill="#1671bb" d="M 167.5,100.5 C 169.792,100.244 171.959,100.577 174,101.5C 177.598,110.127 181.098,118.793 184.5,127.5C 182.604,128.466 180.604,128.799 178.5,128.5C 178.597,123.348 176.097,121.014 171,121.5C 169.167,121.667 167.333,121.833 165.5,122C 164.308,123.912 163.308,125.912 162.5,128C 160.866,128.494 159.199,128.66 157.5,128.5C 160.269,118.962 163.602,109.629 167.5,100.5 Z"/></g>
<g><path style="opacity:1" fill="#2e78be" d="M 212.5,100.5 C 214.5,100.5 216.5,100.5 218.5,100.5C 218.5,102.167 218.5,103.833 218.5,105.5C 216.5,105.5 214.5,105.5 212.5,105.5C 212.5,103.833 212.5,102.167 212.5,100.5 Z"/></g>
<g><path style="opacity:1" fill="#136fba" d="M 189.5,100.5 C 192.167,100.5 194.833,100.5 197.5,100.5C 197.5,101.5 197.5,102.5 197.5,103.5C 193.5,102.833 191.833,104.5 192.5,108.5C 193.833,108.5 195.167,108.5 196.5,108.5C 196.5,109.833 196.5,111.167 196.5,112.5C 195.167,112.5 193.833,112.5 192.5,112.5C 192.5,117.833 192.5,123.167 192.5,128.5C 190.833,128.5 189.167,128.5 187.5,128.5C 187.5,123.167 187.5,117.833 187.5,112.5C 186.5,112.5 185.5,112.5 184.5,112.5C 184.5,111.167 184.5,109.833 184.5,108.5C 185.5,108.5 186.5,108.5 187.5,108.5C 187.107,105.487 187.774,102.82 189.5,100.5 Z"/></g>
<g><path style="opacity:1" fill="#e9f1f5" d="M 33.5,107.5 C 35.7943,110.37 37.1277,113.703 37.5,117.5C 35.1667,117.5 32.8333,117.5 30.5,117.5C 31.0991,114.037 32.0991,110.704 33.5,107.5 Z"/></g>
<g><path style="opacity:1" fill="#73a1cf" d="M 86.5,107.5 C 88.5,107.5 90.5,107.5 92.5,107.5C 92.5,114.5 92.5,121.5 92.5,128.5C 90.5,128.5 88.5,128.5 86.5,128.5C 86.5,121.5 86.5,114.5 86.5,107.5 Z"/></g>
<g><path style="opacity:1" fill="#eaf2f6" d="M 115.5,107.5 C 117.403,110.53 118.737,113.863 119.5,117.5C 117.167,117.5 114.833,117.5 112.5,117.5C 113.101,114.032 114.101,110.699 115.5,107.5 Z"/></g>
<g><path style="opacity:1" fill="#e6eef4" d="M 170.5,107.5 C 172.198,110.231 173.531,113.231 174.5,116.5C 172.257,117.474 169.924,117.808 167.5,117.5C 167.698,113.908 168.698,110.574 170.5,107.5 Z"/></g>
<g><path style="opacity:1" fill="#91b5d7" d="M 212.5,108.5 C 214.265,107.539 216.265,107.205 218.5,107.5C 218.5,114.5 218.5,121.5 218.5,128.5C 216.265,128.795 214.265,128.461 212.5,127.5C 214.167,127.5 215.833,127.5 217.5,127.5C 217.5,121.167 217.5,114.833 217.5,108.5C 215.833,108.5 214.167,108.5 212.5,108.5 Z"/></g>
<g><path style="opacity:1" fill="#1871bb" d="M 54.5,107.5 C 57.8621,107.07 60.6954,108.07 63,110.5C 64.4007,108.808 66.2341,108.141 68.5,108.5C 68.6664,116.174 68.4997,123.841 68,131.5C 66.3362,135.084 63.5029,136.751 59.5,136.5C 54.8812,136.809 51.5478,134.975 49.5,131C 49.6667,130.5 49.8333,130 50,129.5C 53.1071,130.252 56.1071,131.252 59,132.5C 63.0823,131.841 64.4156,129.508 63,125.5C 57.8787,129.875 53.5454,129.209 50,123.5C 47.1725,116.851 48.6725,111.518 54.5,107.5 Z"/></g>
<g><path style="opacity:1" fill="#0f70ba" d="M 80.5,107.5 C 84.9807,106.963 86.314,108.63 84.5,112.5C 81.4532,111.855 79.2865,112.855 78,115.5C 77.501,119.821 77.3343,124.154 77.5,128.5C 75.8333,128.5 74.1667,128.5 72.5,128.5C 72.5,121.833 72.5,115.167 72.5,108.5C 74.7659,108.141 76.5993,108.808 78,110.5C 78.6979,109.309 79.5313,108.309 80.5,107.5 Z"/></g>
<g><path style="opacity:1" fill="#006cba" d="M 87.5,108.5 C 88.8333,108.5 90.1667,108.5 91.5,108.5C 91.5,114.833 91.5,121.167 91.5,127.5C 90.1667,127.5 88.8333,127.5 87.5,127.5C 87.5,121.167 87.5,114.833 87.5,108.5 Z"/></g>
<g><path style="opacity:1" fill="#146fbb" d="M 206.5,107.5 C 210.981,106.963 212.314,108.63 210.5,112.5C 207.453,111.855 205.287,112.855 204,115.5C 203.501,119.821 203.334,124.154 203.5,128.5C 201.833,128.5 200.167,128.5 198.5,128.5C 198.5,121.833 198.5,115.167 198.5,108.5C 200.766,108.141 202.599,108.808 204,110.5C 204.698,109.309 205.531,108.309 206.5,107.5 Z"/></g>
<g><path style="opacity:1" fill="#1572bc" d="M 212.5,108.5 C 214.167,108.5 215.833,108.5 217.5,108.5C 217.5,114.833 217.5,121.167 217.5,127.5C 215.833,127.5 214.167,127.5 212.5,127.5C 212.5,121.167 212.5,114.833 212.5,108.5 Z"/></g>
<g><path style="opacity:1" fill="#1270ba" d="M 227.5,107.5 C 232.557,106.847 236.557,108.513 239.5,112.5C 239,113.881 238,114.547 236.5,114.5C 233.338,110.585 230.171,110.585 227,114.5C 225.029,120.828 227.195,123.994 233.5,124C 234.071,122.795 234.738,121.628 235.5,120.5C 237.115,121.154 238.782,121.654 240.5,122C 237.561,127.798 232.894,129.798 226.5,128C 221.847,124.212 220.347,119.378 222,113.5C 223.36,110.977 225.193,108.977 227.5,107.5 Z"/></g>
<g><path style="opacity:1" fill="#1b72bb" d="M 246.5,107.5 C 250.584,107.043 254.417,107.71 258,109.5C 259.12,115.441 259.953,121.441 260.5,127.5C 258.264,128.812 256.264,128.479 254.5,126.5C 251.375,128.351 248.042,128.851 244.5,128C 240.063,123.414 240.729,119.748 246.5,117C 249.168,116.433 251.834,115.933 254.5,115.5C 254.67,114.178 254.337,113.011 253.5,112C 250.435,111.347 247.601,111.847 245,113.5C 244.167,113.167 243.333,112.833 242.5,112.5C 243.857,110.814 245.19,109.148 246.5,107.5 Z"/></g>
<g><path style="opacity:1" fill="#f4f7fa" d="M 56.5,111.5 C 63.6979,112.699 65.3646,116.532 61.5,123C 58.975,123.896 56.8083,123.396 55,121.5C 54.037,117.851 54.537,114.518 56.5,111.5 Z"/></g>
<g><path style="opacity:1" fill="#eef4f8" d="M 251.5,118.5 C 252.5,118.5 253.5,118.5 254.5,118.5C 254.673,123.323 252.339,125.323 247.5,124.5C 246.933,121.089 248.266,119.089 251.5,118.5 Z"/></g>
<g><path style="opacity:1" fill="#c5dc99" d="M 95.5,143.5 C 96.7251,144.152 97.3917,145.319 97.5,147C 97.1667,148.167 96.8333,149.333 96.5,150.5C 95.5258,148.257 95.1924,145.924 95.5,143.5 Z"/></g>
<g><path style="opacity:1" fill="#a4c854" d="M 110.5,152.5 C 109.526,150.915 108.026,149.915 106,149.5C 104.491,144.507 106.325,142.507 111.5,143.5C 111.81,146.713 111.477,149.713 110.5,152.5 Z"/></g>
<g><path style="opacity:1" fill="#a7cb5d" d="M 129.5,152.5 C 128.526,150.915 127.026,149.915 125,149.5C 123.491,144.507 125.325,142.507 130.5,143.5C 130.81,146.713 130.477,149.713 129.5,152.5 Z"/></g>
<g><path style="opacity:1" fill="#c4dc96" d="M 140.5,144.5 C 142.494,143.85 144.494,143.517 146.5,143.5C 146.5,145.5 146.5,147.5 146.5,149.5C 144.347,150.573 142.347,150.573 140.5,149.5C 146.956,147.614 146.956,145.947 140.5,144.5 Z"/></g>
<g><path style="opacity:1" fill="#a4c957" d="M 215.5,149.5 C 213.399,145.169 214.733,143.336 219.5,144C 220.696,144.654 220.696,145.154 219.5,145.5C 216.07,144.258 214.737,145.591 215.5,149.5 Z"/></g>
<g><path style="opacity:1" fill="#b0cf6f" d="M 55.5,145.5 C 55.5,146.167 55.5,146.833 55.5,147.5C 54.2921,146.766 52.9587,146.433 51.5,146.5C 51.762,147.978 51.4287,149.311 50.5,150.5C 49.513,147.232 49.1796,143.898 49.5,140.5C 51.8568,140.337 54.1902,140.503 56.5,141C 58.0432,143.045 57.7099,144.545 55.5,145.5 Z"/></g>
<g><path style="opacity:1" fill="#f1f7e7" d="M 55.5,145.5 C 54.1667,145.5 52.8333,145.5 51.5,145.5C 51.5,144.167 51.5,142.833 51.5,141.5C 55.44,140.766 56.7734,142.099 55.5,145.5 Z"/></g>
<g><path style="opacity:1" fill="#a8cb5f" d="M 67.5,144.5 C 69.1849,143.156 70.8516,143.323 72.5,145C 70.8925,144.981 69.2259,144.815 67.5,144.5 Z"/></g>
<g><path style="opacity:1" fill="#a8cb5e" d="M 88.5,143.5 C 94.1581,142.679 95.8248,144.846 93.5,150C 92.2068,150.49 90.8734,150.657 89.5,150.5C 88.2201,150.637 87.8868,148.303 88.5,143.5 Z"/></g>
<g><path style="opacity:1" fill="#fbfdf9" d="M 90.5,144.5 C 93.3892,144.999 94.0558,146.499 92.5,149C 91.552,149.483 90.552,149.649 89.5,149.5C 89.366,147.708 89.6993,146.042 90.5,144.5 Z"/></g>
<g><path style="opacity:1" fill="#fcfdf9" d="M 107.5,144.5 C 110.084,145.048 111.084,146.715 110.5,149.5C 106.716,149.475 105.716,147.808 107.5,144.5 Z"/></g>
<g><path style="opacity:1" fill="#f8fbf3" d="M 126.5,144.5 C 127.5,144.5 128.5,144.5 129.5,144.5C 129.5,146.167 129.5,147.833 129.5,149.5C 125.716,149.475 124.716,147.808 126.5,144.5 Z"/></g>
<g><path style="opacity:1" fill="#ecf3d9" d="M 140.5,144.5 C 146.956,145.947 146.956,147.614 140.5,149.5C 139.167,147.833 139.167,146.167 140.5,144.5 Z"/></g>
<g><path style="opacity:1" fill="#a5c958" d="M 159.5,143.5 C 160.302,144.952 160.802,146.618 161,148.5C 162.011,149.337 163.178,149.67 164.5,149.5C 164.338,147.473 164.505,145.473 165,143.5C 165.497,145.81 165.663,148.143 165.5,150.5C 160.094,151.265 158.094,148.931 159.5,143.5 Z"/></g>
<g><path style="opacity:1" fill="#a3c856" d="M 81.5,143.5 C 83.1667,143.5 84.8333,143.5 86.5,143.5C 86.5,145.833 86.5,148.167 86.5,150.5C 83.2027,150.671 82.8694,150.005 85.5,148.5C 85,148.167 84.5,147.833 84,147.5C 81.898,148.038 81.0646,149.038 81.5,150.5C 80.4173,149.635 80.2506,148.635 81,147.5C 82.5095,146.91 84.0095,146.244 85.5,145.5C 84.2243,144.355 82.891,144.355 81.5,145.5C 80.537,145.03 80.537,144.363 81.5,143.5 Z"/></g>
<g><path style="opacity:1" fill="#a4c954" d="M 98.5,143.5 C 104.067,142.753 105.9,145.087 104,150.5C 102.333,142.5 100.667,142.5 99,150.5C 98.5034,148.19 98.3367,145.857 98.5,143.5 Z"/></g>
<g><path style="opacity:1" fill="#a6ca5b" d="M 132.5,143.5 C 134.167,143.5 135.833,143.5 137.5,143.5C 137.663,145.857 137.497,148.19 137,150.5C 135.891,142.715 134.558,142.715 133,150.5C 132.503,148.19 132.337,145.857 132.5,143.5 Z"/></g>
<g><path style="opacity:1" fill="#98c23a" d="M 156.5,141.5 C 157.267,142.172 157.934,143.005 158.5,144C 157.68,146.333 157.347,148.5 157.5,150.5C 156.144,147.429 155.811,144.429 156.5,141.5 Z"/></g>
<g><path style="opacity:1" fill="#afcf6d" d="M 205.5,140.5 C 207.842,140.775 207.842,141.608 205.5,143C 207.5,143.333 209.5,143.667 211.5,144C 210.036,145.864 209.036,148.031 208.5,150.5C 207.038,142.576 205.871,142.576 205,150.5C 203.622,146.852 203.789,143.519 205.5,140.5 Z"/></g>
<g><path style="opacity:1" fill="#a3c958" d="M 222.5,147.5 C 224.19,146.897 225.69,145.897 227,144.5C 227.495,146.473 227.662,148.473 227.5,150.5C 224.001,150.741 223.668,149.908 226.5,148C 225.207,147.51 223.873,147.343 222.5,147.5 Z"/></g>
<g><path style="opacity:1" fill="#a8cb60" d="M 60.5,144.5 C 63.676,142.727 65.3427,143.727 65.5,147.5C 63.712,147.215 62.0453,147.548 60.5,148.5C 62.3381,149.189 64.0048,149.522 65.5,149.5C 63.5,150.833 61.5,150.833 59.5,149.5C 57.9907,147.38 58.324,145.713 60.5,144.5 Z"/></g>
<g><path style="opacity:1" fill="#f8fbf2" d="M 60.5,144.5 C 62.1033,144.312 63.4366,144.812 64.5,146C 62.5372,146.844 61.2039,146.344 60.5,144.5 Z"/></g>
<g><path style="opacity:1" fill="#9dc545" d="M 73.5,140.5 C 74.404,141.209 74.7373,142.209 74.5,143.5C 79.2129,143.468 80.7129,145.801 79,150.5C 77.3333,142.5 75.6667,142.5 74,150.5C 73.5017,147.183 73.335,143.85 73.5,140.5 Z"/></g>
<g><path style="opacity:1" fill="#a9cc60" d="M 118.5,140.5 C 121.815,142.921 123.315,146.254 123,150.5C 120.775,146.538 118.442,146.538 116,150.5C 116.494,147.164 117.328,143.831 118.5,140.5 Z"/></g>
<g><path style="opacity:1" fill="#f7faf0" d="M 118.5,143.5 C 121.962,145.193 121.962,146.193 118.5,146.5C 118.5,145.5 118.5,144.5 118.5,143.5 Z"/></g>
<g><path style="opacity:1" fill="#a0c74e" d="M 172.5,149.5 C 171.167,147.833 171.167,146.167 172.5,144.5C 175.676,142.727 177.343,143.727 177.5,147.5C 175.219,147.077 173.552,147.744 172.5,149.5 Z"/></g>
<g><path style="opacity:1" fill="#f9fcf4" d="M 172.5,144.5 C 174.103,144.312 175.437,144.812 176.5,146C 174.537,146.844 173.204,146.344 172.5,144.5 Z"/></g>
<g><path style="opacity:1" fill="#a5c959" d="M 200.5,144.5 C 201.771,146.109 202.771,147.942 203.5,150C 201.939,150.188 201.272,149.355 201.5,147.5C 199.833,147.5 198.167,147.5 196.5,147.5C 196.728,149.355 196.061,150.188 194.5,150C 195.618,146.645 197.118,143.478 199,140.5C 200.188,141.563 200.688,142.897 200.5,144.5 Z"/></g>
<g><path style="opacity:1" fill="#f3f8ea" d="M 200.5,144.5 C 200.052,146.465 199.052,146.798 197.5,145.5C 198,144.5 198.5,143.5 199,142.5C 199.278,143.416 199.778,144.082 200.5,144.5 Z"/></g>
<g><path style="opacity:1" fill="#abcd66" d="M 67.5,144.5 C 68.6222,145.947 70.1222,146.947 72,147.5C 72.6917,148.437 72.525,149.103 71.5,149.5C 70.3778,148.053 68.8778,147.053 67,146.5C 66.3083,145.563 66.475,144.897 67.5,144.5 Z"/></g>
<g><path style="opacity:1" fill="#9cc442" d="M 167.5,143.5 C 168.552,143.351 169.552,143.517 170.5,144C 168.926,145.826 168.093,147.993 168,150.5C 167.503,148.19 167.337,145.857 167.5,143.5 Z"/></g>
<g><path style="opacity:1" fill="#b6d37d" d="M 187.5,144.5 C 188.542,143.209 189.708,143.209 191,144.5C 191.808,146.579 191.641,148.579 190.5,150.5C 190.036,148.025 189.036,146.025 187.5,144.5 Z"/></g>
<g><path style="opacity:1" fill="#a2c74f" d="M 55.5,147.5 C 57.0847,148.002 57.5847,149.002 57,150.5C 55.9614,149.756 55.4614,148.756 55.5,147.5 Z"/></g>
<g><path style="opacity:1" fill="#b1cf71" d="M 71.5,149.5 C 69.9652,150.788 68.2985,150.788 66.5,149.5C 67.8875,149.193 69.5542,149.193 71.5,149.5 Z"/></g>
<g><path style="opacity:1" fill="#a9cc61" d="M 146.5,143.5 C 147.461,145.265 147.795,147.265 147.5,149.5C 148.5,149.5 149.5,149.5 150.5,149.5C 150.338,147.473 150.505,145.473 151,143.5C 151.497,145.81 151.663,148.143 151.5,150.5C 149.585,150.784 147.919,150.451 146.5,149.5C 146.5,147.5 146.5,145.5 146.5,143.5 Z"/></g>
<g><path style="opacity:1" fill="#afcd6c" d="M 172.5,149.5 C 174.446,149.193 176.113,149.193 177.5,149.5C 175.701,150.788 174.035,150.788 172.5,149.5 Z"/></g>
<g><path style="opacity:1" fill="#b7d47c" d="M 222.5,147.5 C 223.087,148.767 223.087,149.767 222.5,150.5C 220.836,149.777 219.169,150.11 217.5,151.5C 216.478,151.145 215.811,150.478 215.5,149.5C 218.079,149.606 220.412,148.939 222.5,147.5 Z"/></g>
<g><path style="opacity:1" fill="#a9cc5f" d="M 110.5,152.5 C 108.815,153.844 107.148,153.677 105.5,152C 107.107,152.019 108.774,152.185 110.5,152.5 Z"/></g>
<g><path style="opacity:1" fill="#a6ca5f" d="M 129.5,152.5 C 127.815,153.844 126.148,153.677 124.5,152C 126.107,152.019 127.774,152.185 129.5,152.5 Z"/></g>
</svg>
